<?xml version="1.0" standalone="yes"?>

<svg version="1.1" viewBox="0.0 0.0 682.3779527559055 100.0" fill="none" stroke="none" stroke-linecap="square" stroke-miterlimit="10" xmlns="http://www.w3.org/2000/svg" xmlns:xlink="http://www.w3.org/1999/xlink"><clipPath id="p.0"><path d="m0 0l682.3779 0l0 100.0l-682.3779 0l0 -100.0z" clip-rule="nonzero"></path></clipPath><g clip-path="url(#p.0)"><path fill="#000000" fill-opacity="0.0" d="m0 0l682.3779 0l0 100.0l-682.3779 0z" fill-rule="nonzero"></path><path fill="#000000" fill-opacity="0.0" d="m68.63301 25.32021l608.8819 0" fill-rule="nonzero"></path><path stroke="#666666" stroke-width="1.0" stroke-linejoin="round" stroke-linecap="butt" d="m68.63301 25.32021l602.8819 0" fill-rule="evenodd"></path><path fill="#666666" stroke="#666666" stroke-width="1.0" stroke-linecap="butt" d="m671.5149 26.971943l4.538086 -1.6517334l-4.538086 -1.6517315z" fill-rule="evenodd"></path><path fill="#000000" fill-opacity="0.0" d="m0 -8.503937l85.00787 0l0 32.283463l-85.00787 0z" fill-rule="nonzero"></path><path fill="#ffffff" d="m9.984375 7.5591884l2.03125 0l0 1.1250005q1.078125 -1.3125005 2.578125 -1.3125005q0.796875 0 1.375 0.328125q0.59375 0.32812548 0.96875 0.9843755q0.546875 -0.65625 1.171875 -0.9843755q0.640625 -0.328125 1.359375 -0.328125q0.921875 0 1.546875 0.375q0.640625 0.35937548 0.953125 1.0781255q0.21875 0.53125 0.21875 1.71875l0 5.3125l-2.1875 0l0 -4.75q0 -1.234375 -0.234375 -1.59375q-0.296875 -0.46875 -0.9375 -0.46875q-0.453125 0 -0.859375 0.28125q-0.40625 0.28125 -0.59375 0.828125q-0.171875 0.546875 -0.171875 1.71875l0 3.984375l-2.203125 0l0 -4.546875q0 -1.21875 -0.125 -1.5625q-0.109375 -0.359375 -0.359375 -0.53125q-0.234375 -0.171875 -0.65625 -0.171875q-0.515625 0 -0.921875 0.28125q-0.40625 0.265625 -0.578125 0.78125q-0.171875 0.515625 -0.171875 1.71875l0 4.03125l-2.203125 0l0 -8.296875zm16.039062 2.5312505l-2.0 -0.359375q0.34375 -1.203125 1.15625 -1.7812505q0.828125 -0.578125 2.4375 -0.578125q1.46875 0 2.1875 0.34375q0.71875 0.34375048 1.015625 0.8906255q0.296875 0.53125 0.296875 1.953125l-0.03125 2.5625q0 1.09375 0.109375 1.625q0.109375 0.515625 0.390625 1.109375l-2.171875 0q-0.078125 -0.21875 -0.203125 -0.65625q-0.0625 -0.1875 -0.078125 -0.25q-0.5625 0.546875 -1.203125 0.828125q-0.640625 0.265625 -1.375 0.265625q-1.28125 0 -2.015625 -0.6875q-0.734375 -0.703125 -0.734375 -1.765625q0 -0.703125 0.328125 -1.25q0.34375 -0.5625 0.9375 -0.84375q0.609375 -0.296875 1.75 -0.515625q1.546875 -0.296875 2.140625 -0.546875l0 -0.21875q0 -0.625 -0.3125 -0.890625q-0.3125 -0.28125 -1.1875 -0.28125q-0.578125 0 -0.90625 0.234375q-0.328125 0.234375 -0.53125 0.8125zm2.9375 1.78125q-0.421875 0.140625 -1.34375 0.34375q-0.90625 0.1875 -1.1875 0.375q-0.4375 0.296875 -0.4375 0.765625q0 0.46875 0.34375 0.8125q0.34375 0.328125 0.875 0.328125q0.59375 0 1.140625 -0.390625q0.390625 -0.296875 0.515625 -0.734375q0.09375 -0.28125 0.09375 -1.0625l0 -0.4375zm3.5390625 1.609375l2.203125 -0.328125q0.140625 0.640625 0.5625 0.96875q0.4375 0.328125 1.21875 0.328125q0.84375 0 1.28125 -0.3125q0.28125 -0.21875 0.28125 -0.578125q0 -0.25 -0.15625 -0.421875q-0.15625 -0.15625 -0.734375 -0.28125q-2.65625 -0.59375 -3.359375 -1.078125q-0.984375 -0.671875 -0.984375 -1.859375q0 -1.078125 0.84375 -1.8125q0.859375 -0.7343755 2.640625 -0.7343755q1.703125 0 2.53125 0.5625q0.828125 0.5468755 1.140625 1.6250005l-2.0625 0.390625q-0.140625 -0.484375 -0.515625 -0.734375q-0.359375 -0.265625 -1.046875 -0.265625q-0.875 0 -1.25 0.234375q-0.25 0.171875 -0.25 0.453125q0 0.234375 0.21875 0.390625q0.296875 0.21875 2.046875 0.625q1.765625 0.390625 2.453125 0.96875q0.6875 0.59375 0.6875 1.640625q0 1.140625 -0.953125 1.96875q-0.953125 0.8125 -2.8125 0.8125q-1.703125 0 -2.6875 -0.6875q-0.984375 -0.6875 -1.296875 -1.875zm13.4765625 -5.9218755l0 1.7500005l-1.5 0l0 3.34375q0 1.015625 0.046875 1.1875q0.046875 0.15625 0.1875 0.265625q0.15625 0.109375 0.375 0.109375q0.3125 0 0.890625 -0.203125l0.1875 1.703125q-0.765625 0.328125 -1.734375 0.328125q-0.59375 0 -1.078125 -0.203125q-0.46875 -0.203125 -0.703125 -0.515625q-0.21875 -0.3125 -0.296875 -0.859375q-0.078125 -0.375 -0.078125 -1.546875l0 -3.609375l-1.0 0l0 -1.7500005l1.0 0l0 -1.65625l2.203125 -1.28125l0 2.9375l1.5 0zm6.328125 5.6562505l2.1875 0.359375q-0.421875 1.203125 -1.328125 1.84375q-0.90625 0.625 -2.28125 0.625q-2.15625 0 -3.203125 -1.421875q-0.8125 -1.125 -0.8125 -2.859375q0 -2.0625 1.078125 -3.21875q1.078125 -1.1718755 2.71875 -1.1718755q1.859375 0 2.921875 1.2187505q1.078125 1.21875 1.03125 3.75l-5.5 0q0.015625 0.96875 0.515625 1.515625q0.515625 0.546875 1.28125 0.546875q0.515625 0 0.859375 -0.28125q0.359375 -0.28125 0.53125 -0.90625zm0.125 -2.21875q-0.015625 -0.953125 -0.484375 -1.453125q-0.46875 -0.5 -1.140625 -0.5q-0.71875 0 -1.1875 0.53125q-0.46875 0.515625 -0.46875 1.421875l3.28125 0zm6.0703125 4.859375l-2.1875 0l0 -8.296875l2.03125 0l0 1.1718755q0.53125 -0.8281255 0.9375 -1.0937505q0.421875 -0.265625 0.953125 -0.265625q0.75 0 1.453125 0.40625l-0.6875 1.9218755q-0.546875 -0.359375 -1.03125 -0.359375q-0.453125 0 -0.78125 0.25q-0.3125 0.25 -0.5 0.921875q-0.1875 0.65625 -0.1875 2.78125l0 2.5625z" fill-rule="nonzero"></path><path fill="#000000" fill-opacity="0.0" d="m10.0 78.22404l667.49603 0" fill-rule="nonzero"></path><path stroke="#999999" stroke-width="1.0" stroke-linejoin="round" stroke-linecap="butt" d="m10.0 78.22404l661.49603 0" fill-rule="evenodd"></path><path fill="#999999" stroke="#999999" stroke-width="1.0" stroke-linecap="butt" d="m671.49603 79.87577l4.538147 -1.6517334l-4.538147 -1.6517258z" fill-rule="evenodd"></path><path fill="#000000" fill-opacity="0.0" d="m0 43.72441l85.00787 0l0 34.48819l-85.00787 0z" fill-rule="nonzero"></path><path fill="#ffffff" d="m17.765625 68.08441l-2.046875 0l0 -1.21875q-0.5 0.703125 -1.203125 1.0625q-0.6875 0.34375 -1.390625 0.34375q-1.421875 0 -2.453125 -1.15625q-1.015625 -1.15625 -1.015625 -3.21875q0 -2.109375 0.984375 -3.203125q1.0 -1.09375 2.515625 -1.09375q1.390625 0 2.40625 1.15625l0 -4.125l2.203125 0l0 11.453125zm-5.859375 -4.328125q0 1.328125 0.359375 1.921875q0.53125 0.859375 1.484375 0.859375q0.765625 0 1.296875 -0.640625q0.53125 -0.65625 0.53125 -1.9375q0 -1.421875 -0.515625 -2.046875q-0.515625 -0.640625 -1.328125 -0.640625q-0.78125 0 -1.3125 0.625q-0.515625 0.625 -0.515625 1.859375zm12.8203125 1.6875l2.1875 0.359375q-0.421875 1.203125 -1.328125 1.84375q-0.90625 0.625 -2.28125 0.625q-2.15625 0 -3.203125 -1.421875q-0.8125 -1.125 -0.8125 -2.859375q0 -2.0625 1.078125 -3.21875q1.078125 -1.171875 2.71875 -1.171875q1.859375 0 2.921875 1.21875q1.078125 1.21875 1.03125 3.75l-5.5 0q0.015625 0.96875 0.515625 1.515625q0.515625 0.546875 1.28125 0.546875q0.515625 0 0.859375 -0.28125q0.359375 -0.28125 0.53125 -0.90625zm0.125 -2.21875q-0.015625 -0.953125 -0.484375 -1.453125q-0.46875 -0.5 -1.140625 -0.5q-0.71875 0 -1.1875 0.53125q-0.46875 0.515625 -0.46875 1.421875l3.28125 0zm6.2578125 4.859375l-3.34375 -8.296875l2.296875 0l1.5625 4.234375l0.453125 1.40625q0.1875 -0.53125 0.234375 -0.703125q0.109375 -0.359375 0.234375 -0.703125l1.578125 -4.234375l2.25 0l-3.296875 8.296875l-1.96875 0zm11.4140625 -2.640625l2.1875 0.359375q-0.421875 1.203125 -1.328125 1.84375q-0.90625 0.625 -2.28125 0.625q-2.15625 0 -3.203125 -1.421875q-0.8125 -1.125 -0.8125 -2.859375q0 -2.0625 1.078125 -3.21875q1.078125 -1.171875 2.71875 -1.171875q1.859375 0 2.921875 1.21875q1.078125 1.21875 1.03125 3.75l-5.5 0q0.015625 0.96875 0.515625 1.515625q0.515625 0.546875 1.28125 0.546875q0.515625 0 0.859375 -0.28125q0.359375 -0.28125 0.53125 -0.90625zm0.125 -2.21875q-0.015625 -0.953125 -0.484375 -1.453125q-0.46875 -0.5 -1.140625 -0.5q-0.71875 0 -1.1875 0.53125q-0.46875 0.515625 -0.46875 1.421875l3.28125 0zm3.9765625 4.859375l0 -11.453125l2.1875 0l0 11.453125l-2.1875 0zm3.9296875 -4.265625q0 -1.09375 0.53125 -2.109375q0.546875 -1.03125 1.53125 -1.5625q1.0 -0.546875 2.21875 -0.546875q1.875 0 3.078125 1.21875q1.203125 1.21875 1.203125 3.09375q0 1.875 -1.21875 3.125q-1.203125 1.234375 -3.046875 1.234375q-1.140625 0 -2.1875 -0.515625q-1.03125 -0.515625 -1.578125 -1.515625q-0.53125 -1.0 -0.53125 -2.421875zm2.25 0.109375q0 1.234375 0.578125 1.890625q0.59375 0.65625 1.453125 0.65625q0.859375 0 1.4375 -0.65625q0.59375 -0.65625 0.59375 -1.90625q0 -1.21875 -0.59375 -1.875q-0.578125 -0.65625 -1.4375 -0.65625q-0.859375 0 -1.453125 0.65625q-0.578125 0.65625 -0.578125 1.890625zm7.9765625 -4.140625l2.046875 0l0 1.21875q0.390625 -0.625 1.0625 -1.015625q0.6875 -0.390625 1.515625 -0.390625q1.453125 0 2.453125 1.140625q1.015625 1.125 1.015625 3.140625q0 2.078125 -1.015625 3.234375q-1.015625 1.15625 -2.46875 1.15625q-0.6875 0 -1.25 -0.265625q-0.546875 -0.28125 -1.171875 -0.953125l0 4.1875l-2.1875 0l0 -11.453125zm2.171875 4.0q0 1.40625 0.546875 2.078125q0.5625 0.65625 1.359375 0.65625q0.765625 0 1.265625 -0.609375q0.515625 -0.609375 0.515625 -2.015625q0 -1.296875 -0.53125 -1.921875q-0.515625 -0.640625 -1.296875 -0.640625q-0.796875 0 -1.328125 0.625q-0.53125 0.609375 -0.53125 1.828125z" fill-rule="nonzero"></path><path fill="#6fa8dc" d="m73.519684 25.318897l0 0c0 -4.4269753 3.581726 -8.015747 8.0 -8.015747l0 0c2.1217346 0 4.156563 0.84451294 5.6568527 2.3477573c1.5002975 1.5032444 2.3431473 3.5420818 2.3431473 5.6679897l0 0c0 4.4269753 -3.5817184 8.015747 -8.0 8.015747l0 0c-4.418274 0 -8.0 -3.5887718 -8.0 -8.015747z" fill-rule="nonzero"></path><path stroke="#000000" stroke-width="1.0" stroke-linejoin="round" stroke-linecap="butt" d="m73.519684 25.318897l0 0c0 -4.4269753 3.581726 -8.015747 8.0 -8.015747l0 0c2.1217346 0 4.156563 0.84451294 5.6568527 2.3477573c1.5002975 1.5032444 2.3431473 3.5420818 2.3431473 5.6679897l0 0c0 4.4269753 -3.5817184 8.015747 -8.0 8.015747l0 0c-4.418274 0 -8.0 -3.5887718 -8.0 -8.015747z" fill-rule="nonzero"></path><path fill="#f1c232" d="m95.519684 78.2231l0 0c0 -4.426979 3.581726 -8.015747 8.0 -8.015747l0 0c2.1217346 0 4.156563 0.84451294 5.6568527 2.3477554c1.5002975 1.5032425 2.3431473 3.5420837 2.3431473 5.6679916l0 0c0 4.4269714 -3.5817184 8.015747 -8.0 8.015747l0 0c-4.418274 0 -8.0 -3.5887756 -8.0 -8.015747z" fill-rule="nonzero"></path><path stroke="#000000" stroke-width="1.0" stroke-linejoin="round" stroke-linecap="butt" d="m95.519684 78.2231l0 0c0 -4.426979 3.581726 -8.015747 8.0 -8.015747l0 0c2.1217346 0 4.156563 0.84451294 5.6568527 2.3477554c1.5002975 1.5032425 2.3431473 3.5420837 2.3431473 5.6679916l0 0c0 4.4269714 -3.5817184 8.015747 -8.0 8.015747l0 0c-4.418274 0 -8.0 -3.5887756 -8.0 -8.015747z" fill-rule="nonzero"></path><path fill="#000000" fill-opacity="0.0" d="m81.519684 33.334644c0 9.218262 5.503937 13.8262825 11.007874 18.43652c5.503937 4.610237 11.007874 9.222687 11.007874 18.445374" fill-rule="nonzero"></path><path stroke="#ffffff" stroke-width="1.0" stroke-linejoin="round" stroke-linecap="butt" d="m81.519684 33.334644c0 9.218262 5.503937 13.826286 11.007874 18.436523c2.7519684 2.3051186 5.503937 4.6107903 7.567917 7.4930115c1.03199 1.4411125 1.8919754 3.026371 2.4939728 4.8277626l0.06137085 0.19016266" fill-rule="evenodd"></path><path fill="#ffffff" stroke="#ffffff" stroke-width="1.0" stroke-linecap="butt" d="m101.017136 64.525635l2.3027573 4.244972l0.96460724 -4.732025z" fill-rule="evenodd"></path><path fill="#f1c232" d="m127.519684 78.2231l0 0c0 -4.426979 3.581726 -8.015747 8.0 -8.015747l0 0c2.1217346 0 4.1565704 0.84451294 5.6568604 2.3477554c1.5002899 1.5032425 2.3431396 3.5420837 2.3431396 5.6679916l0 0c0 4.4269714 -3.581726 8.015747 -8.0 8.015747l0 0c-4.418274 0 -8.0 -3.5887756 -8.0 -8.015747z" fill-rule="nonzero"></path><path stroke="#000000" stroke-width="1.0" stroke-linejoin="round" stroke-linecap="butt" d="m127.519684 78.2231l0 0c0 -4.426979 3.581726 -8.015747 8.0 -8.015747l0 0c2.1217346 0 4.1565704 0.84451294 5.6568604 2.3477554c1.5002899 1.5032425 2.3431396 3.5420837 2.3431396 5.6679916l0 0c0 4.4269714 -3.581726 8.015747 -8.0 8.015747l0 0c-4.418274 0 -8.0 -3.5887756 -8.0 -8.015747z" fill-rule="nonzero"></path><path fill="#f1c232" d="m159.51968 78.2126l0 0c0 -4.426979 3.581726 -8.015747 8.0 -8.015747l0 0c2.1217346 0 4.1565704 0.84451294 5.6568604 2.3477554c1.5002899 1.5032425 2.3431396 3.5420837 2.3431396 5.6679916l0 0c0 4.4269714 -3.581726 8.015747 -8.0 8.015747l0 0c-4.418274 0 -8.0 -3.5887756 -8.0 -8.015747z" fill-rule="nonzero"></path><path stroke="#000000" stroke-width="1.0" stroke-linejoin="round" stroke-linecap="butt" d="m159.51968 78.2126l0 0c0 -4.426979 3.581726 -8.015747 8.0 -8.015747l0 0c2.1217346 0 4.1565704 0.84451294 5.6568604 2.3477554c1.5002899 1.5032425 2.3431396 3.5420837 2.3431396 5.6679916l0 0c0 4.4269714 -3.581726 8.015747 -8.0 8.015747l0 0c-4.418274 0 -8.0 -3.5887756 -8.0 -8.015747z" fill-rule="nonzero"></path><path fill="#f1c232" d="m191.51968 78.2231l0 0c0 -4.426979 3.581726 -8.015747 8.0 -8.015747l0 0c2.1217346 0 4.1565704 0.84451294 5.6568604 2.3477554c1.5002899 1.5032425 2.3431396 3.5420837 2.3431396 5.6679916l0 0c0 4.4269714 -3.581726 8.015747 -8.0 8.015747l0 0c-4.418274 0 -8.0 -3.5887756 -8.0 -8.015747z" fill-rule="nonzero"></path><path stroke="#000000" stroke-width="1.0" stroke-linejoin="round" stroke-linecap="butt" d="m191.51968 78.2231l0 0c0 -4.426979 3.581726 -8.015747 8.0 -8.015747l0 0c2.1217346 0 4.1565704 0.84451294 5.6568604 2.3477554c1.5002899 1.5032425 2.3431396 3.5420837 2.3431396 5.6679916l0 0c0 4.4269714 -3.581726 8.015747 -8.0 8.015747l0 0c-4.418274 0 -8.0 -3.5887756 -8.0 -8.015747z" fill-rule="nonzero"></path><path fill="#f1c232" d="m287.51968 78.2231l0 0c0 -4.426979 3.581726 -8.015747 8.0 -8.015747l0 0c2.1217346 0 4.156555 0.84451294 5.6568604 2.3477554c1.5002747 1.5032425 2.3431396 3.5420837 2.3431396 5.6679916l0 0c0 4.4269714 -3.581726 8.015747 -8.0 8.015747l0 0c-4.418274 0 -8.0 -3.5887756 -8.0 -8.015747z" fill-rule="nonzero"></path><path stroke="#000000" stroke-width="1.0" stroke-linejoin="round" stroke-linecap="butt" d="m287.51968 78.2231l0 0c0 -4.426979 3.581726 -8.015747 8.0 -8.015747l0 0c2.1217346 0 4.156555 0.84451294 5.6568604 2.3477554c1.5002747 1.5032425 2.3431396 3.5420837 2.3431396 5.6679916l0 0c0 4.4269714 -3.581726 8.015747 -8.0 8.015747l0 0c-4.418274 0 -8.0 -3.5887756 -8.0 -8.015747z" fill-rule="nonzero"></path><path fill="#6fa8dc" d="m175.51968 25.318897l0 0c0 -4.4269753 3.581726 -8.015747 8.0 -8.015747l0 0c2.1217346 0 4.1565704 0.84451294 5.6568604 2.3477573c1.5002899 1.5032444 2.3431396 3.5420818 2.3431396 5.6679897l0 0c0 4.4269753 -3.581726 8.015747 -8.0 8.015747l0 0c-4.418274 0 -8.0 -3.5887718 -8.0 -8.015747z" fill-rule="nonzero"></path><path stroke="#000000" stroke-width="1.0" stroke-linejoin="round" stroke-linecap="butt" d="m175.51968 25.318897l0 0c0 -4.4269753 3.581726 -8.015747 8.0 -8.015747l0 0c2.1217346 0 4.1565704 0.84451294 5.6568604 2.3477573c1.5002899 1.5032444 2.3431396 3.5420818 2.3431396 5.6679897l0 0c0 4.4269753 -3.581726 8.015747 -8.0 8.015747l0 0c-4.418274 0 -8.0 -3.5887718 -8.0 -8.015747z" fill-rule="nonzero"></path><path fill="#000000" fill-opacity="0.0" d="m167.51968 70.19685c0 -9.215549 4.0 -13.824799 8.0 -18.431095c4.0 -4.6063004 8.0 -9.209652 8.0 -18.4193" fill-rule="nonzero"></path><path stroke="#ffffff" stroke-width="1.0" stroke-linejoin="round" stroke-linecap="butt" d="m167.51968 70.19685c0 -9.215549 4.0 -13.824795 8.0 -18.431095c2.0 -2.3031502 4.0 -4.6055603 5.5 -7.4833946c0.75 -1.4389153 1.375 -3.0216866 1.8125 -4.8203316l0.035491943 -0.15110779" fill-rule="evenodd"></path><path fill="#ffffff" stroke="#ffffff" stroke-width="1.0" stroke-linecap="butt" d="m184.50963 39.490414l-1.1488037 -4.690712l-2.1351013 4.3317337z" fill-rule="evenodd"></path><path fill="#f1c232" d="m239.51968 78.2231l0 0c0 -4.426979 3.581726 -8.015747 8.0 -8.015747l0 0c2.1217346 0 4.1565704 0.84451294 5.6568604 2.3477554c1.5002899 1.5032425 2.3431396 3.5420837 2.3431396 5.6679916l0 0c0 4.4269714 -3.581726 8.015747 -8.0 8.015747l0 0c-4.418274 0 -8.0 -3.5887756 -8.0 -8.015747z" fill-rule="nonzero"></path><path stroke="#000000" stroke-width="1.0" stroke-linejoin="round" stroke-linecap="butt" d="m239.51968 78.2231l0 0c0 -4.426979 3.581726 -8.015747 8.0 -8.015747l0 0c2.1217346 0 4.1565704 0.84451294 5.6568604 2.3477554c1.5002899 1.5032425 2.3431396 3.5420837 2.3431396 5.6679916l0 0c0 4.4269714 -3.581726 8.015747 -8.0 8.015747l0 0c-4.418274 0 -8.0 -3.5887756 -8.0 -8.015747z" fill-rule="nonzero"></path><path fill="#f1c232" d="m335.51968 78.2231l0 0c0 -4.426979 3.581726 -8.015747 8.0 -8.015747l0 0c2.1217346 0 4.156555 0.84451294 5.6568604 2.3477554c1.5002747 1.5032425 2.3431396 3.5420837 2.3431396 5.6679916l0 0c0 4.4269714 -3.581726 8.015747 -8.0 8.015747l0 0c-4.418274 0 -8.0 -3.5887756 -8.0 -8.015747z" fill-rule="nonzero"></path><path stroke="#000000" stroke-width="1.0" stroke-linejoin="round" stroke-linecap="butt" d="m335.51968 78.2231l0 0c0 -4.426979 3.581726 -8.015747 8.0 -8.015747l0 0c2.1217346 0 4.156555 0.84451294 5.6568604 2.3477554c1.5002747 1.5032425 2.3431396 3.5420837 2.3431396 5.6679916l0 0c0 4.4269714 -3.581726 8.015747 -8.0 8.015747l0 0c-4.418274 0 -8.0 -3.5887756 -8.0 -8.015747z" fill-rule="nonzero"></path><path fill="#f1c232" d="m369.76642 78.2231l0 0c0 -4.426979 3.5816956 -8.015747 8.0 -8.015747l0 0c2.121704 0 4.156555 0.84451294 5.65683 2.3477554c1.5003052 1.5032425 2.3431702 3.5420837 2.3431702 5.6679916l0 0c0 4.4269714 -3.581726 8.015747 -8.0 8.015747l0 0c-4.4183044 0 -8.0 -3.5887756 -8.0 -8.015747z" fill-rule="nonzero"></path><path stroke="#000000" stroke-width="1.0" stroke-linejoin="round" stroke-linecap="butt" d="m369.76642 78.2231l0 0c0 -4.426979 3.5816956 -8.015747 8.0 -8.015747l0 0c2.121704 0 4.156555 0.84451294 5.65683 2.3477554c1.5003052 1.5032425 2.3431702 3.5420837 2.3431702 5.6679916l0 0c0 4.4269714 -3.581726 8.015747 -8.0 8.015747l0 0c-4.4183044 0 -8.0 -3.5887756 -8.0 -8.015747z" fill-rule="nonzero"></path><path fill="#000000" fill-opacity="0.0" d="m377.76642 70.20735c0 -9.218262 4.188965 -13.826286 8.37793 -18.436523c4.1889954 -4.6102333 8.37796 -9.222683 8.37796 -18.44537" fill-rule="nonzero"></path><path stroke="#ffffff" stroke-width="1.0" stroke-linejoin="round" stroke-linecap="butt" d="m377.76642 70.20735c0 -9.218262 4.188965 -13.826286 8.37793 -18.436523c2.0944824 -2.3051186 4.1889954 -4.6107903 5.759857 -7.493019c0.7854309 -1.4411087 1.4399414 -3.0263634 1.8981323 -4.827755l0.040100098 -0.16323853" fill-rule="evenodd"></path><path fill="#ffffff" stroke="#ffffff" stroke-width="1.0" stroke-linecap="butt" d="m395.48352 39.47398l-1.1268616 -4.6960335l-2.1553345 4.321705z" fill-rule="evenodd"></path><path fill="#f1c232" d="m406.24933 78.2231l0 0c0 -4.426979 3.581726 -8.015747 8.0 -8.015747l0 0c2.1217346 0 4.1565857 0.84451294 5.6568604 2.3477554c1.5003052 1.5032425 2.3431396 3.5420837 2.3431396 5.6679916l0 0c0 4.4269714 -3.5816956 8.015747 -8.0 8.015747l0 0c-4.418274 0 -8.0 -3.5887756 -8.0 -8.015747z" fill-rule="nonzero"></path><path stroke="#000000" stroke-width="1.0" stroke-linejoin="round" stroke-linecap="butt" d="m406.24933 78.2231l0 0c0 -4.426979 3.581726 -8.015747 8.0 -8.015747l0 0c2.1217346 0 4.1565857 0.84451294 5.6568604 2.3477554c1.5003052 1.5032425 2.3431396 3.5420837 2.3431396 5.6679916l0 0c0 4.4269714 -3.5816956 8.015747 -8.0 8.015747l0 0c-4.418274 0 -8.0 -3.5887756 -8.0 -8.015747z" fill-rule="nonzero"></path><path fill="#f1c232" d="m447.25723 78.2231l0 0c0 -4.426979 3.5816956 -8.015747 8.0 -8.015747l0 0c2.121704 0 4.156555 0.84451294 5.65683 2.3477554c1.5003052 1.5032425 2.3431702 3.5420837 2.3431702 5.6679916l0 0c0 4.4269714 -3.581726 8.015747 -8.0 8.015747l0 0c-4.4183044 0 -8.0 -3.5887756 -8.0 -8.015747z" fill-rule="nonzero"></path><path stroke="#000000" stroke-width="1.0" stroke-linejoin="round" stroke-linecap="butt" d="m447.25723 78.2231l0 0c0 -4.426979 3.5816956 -8.015747 8.0 -8.015747l0 0c2.121704 0 4.156555 0.84451294 5.65683 2.3477554c1.5003052 1.5032425 2.3431702 3.5420837 2.3431702 5.6679916l0 0c0 4.4269714 -3.581726 8.015747 -8.0 8.015747l0 0c-4.4183044 0 -8.0 -3.5887756 -8.0 -8.015747z" fill-rule="nonzero"></path><path fill="#6fa8dc" d="m386.51968 25.318897l0 0c0 -4.4269753 3.581726 -8.015747 8.0 -8.015747l0 0c2.1217346 0 4.156555 0.84451294 5.6568604 2.3477573c1.5002747 1.5032444 2.3431396 3.5420818 2.3431396 5.6679897l0 0c0 4.4269753 -3.581726 8.015747 -8.0 8.015747l0 0c-4.418274 0 -8.0 -3.5887718 -8.0 -8.015747z" fill-rule="nonzero"></path><path stroke="#000000" stroke-width="1.0" stroke-linejoin="round" stroke-linecap="butt" d="m386.51968 25.318897l0 0c0 -4.4269753 3.581726 -8.015747 8.0 -8.015747l0 0c2.1217346 0 4.156555 0.84451294 5.6568604 2.3477573c1.5002747 1.5032444 2.3431396 3.5420818 2.3431396 5.6679897l0 0c0 4.4269753 -3.581726 8.015747 -8.0 8.015747l0 0c-4.418274 0 -8.0 -3.5887718 -8.0 -8.015747z" fill-rule="nonzero"></path><path fill="#000000" fill-opacity="0.0" d="m89.519684 25.318897c21.500069 0 32.24817 0.015748978 43.000137 0.031496048c10.751968 0.015748978 21.507797 0.031496048 43.01561 0.031496048" fill-rule="nonzero"></path><path stroke="#ffffff" stroke-width="1.0" stroke-linejoin="round" stroke-linecap="butt" d="m89.519684 25.318897c21.500061 0 32.24817 0.015748978 43.000137 0.031496048c5.3759766 0.007873535 10.75293 0.015748978 17.474365 0.021654129c3.3607178 0.0029525757 7.057541 0.0054130554 11.258453 0.0071353912l8.282791 0.0015697479" fill-rule="evenodd"></path><path fill="#ffffff" stroke="#ffffff" stroke-width="1.0" stroke-linecap="butt" d="m169.53513 27.032486l4.5384064 -1.6508732l-4.537781 -1.6525917z" fill-rule="evenodd"></path><path fill="#000000" fill-opacity="0.0" d="m111.519684 78.2231c4.0 0 6.0 0.01574707 8.0 0.03149414c2.0 0.01574707 4.0 0.03149414 8.0 0.03149414" fill-rule="nonzero"></path><path stroke="#ffffff" stroke-width="1.0" stroke-linejoin="round" stroke-linecap="butt" d="m111.519684 78.2231c4.0 0 6.0 0.01574707 8.0 0.03149414l2.0000305 0.013320923" fill-rule="evenodd"></path><path fill="#ffffff" stroke="#ffffff" stroke-width="1.0" stroke-linecap="butt" d="m121.51471 79.91965l4.543083 -1.6379852l-4.533081 -1.6654663z" fill-rule="evenodd"></path><path fill="#000000" fill-opacity="0.0" d="m143.51968 78.2231c4.0 0 6.0 0.01574707 8.0 0.03149414c2.0 0.01574707 4.0 0.03149414 8.0 0.03149414" fill-rule="nonzero"></path><path stroke="#ffffff" stroke-width="1.0" stroke-linejoin="round" stroke-linecap="butt" d="m143.51968 78.2231c4.0 0 6.0 0.01574707 8.0 0.03149414l2.0000305 0.013320923" fill-rule="evenodd"></path><path fill="#ffffff" stroke="#ffffff" stroke-width="1.0" stroke-linecap="butt" d="m153.51471 79.91965l4.5430756 -1.6379852l-4.533066 -1.6654663z" fill-rule="evenodd"></path><path fill="#000000" fill-opacity="0.0" d="m175.51968 78.2126c4.0 0 6.0 0.01574707 8.0 0.03149414c2.0 0.01574707 4.0 0.03149414 8.0 0.03149414" fill-rule="nonzero"></path><path stroke="#ffffff" stroke-width="1.0" stroke-linejoin="round" stroke-linecap="butt" d="m175.51968 78.2126c4.0 0 6.0 0.01574707 8.0 0.03149414l2.0000153 0.013320923" fill-rule="evenodd"></path><path fill="#ffffff" stroke="#ffffff" stroke-width="1.0" stroke-linecap="butt" d="m185.51471 79.90914l4.5430756 -1.6379776l-4.533066 -1.6654663z" fill-rule="evenodd"></path><path fill="#000000" fill-opacity="0.0" d="m207.51968 78.2231c8.0 0 12.0 0.01574707 16.0 0.03149414c4.0 0.01574707 8.0 0.03149414 16.0 0.03149414" fill-rule="nonzero"></path><path stroke="#ffffff" stroke-width="1.0" stroke-linejoin="round" stroke-linecap="butt" d="m207.51968 78.2231c8.0 0 12.0 0.01574707 16.0 0.03149414c2.0 0.007873535 4.0 0.01574707 6.5 0.021652222l3.5 0.0059661865" fill-rule="evenodd"></path><path fill="#ffffff" stroke="#ffffff" stroke-width="1.0" stroke-linecap="butt" d="m233.51862 79.933945l4.5391693 -1.6488037l-4.537033 -1.6546631z" fill-rule="evenodd"></path><path fill="#000000" fill-opacity="0.0" d="m255.51968 78.2231c8.0 0 12.0 0.01574707 16.0 0.03149414c4.0 0.01574707 8.0 0.03149414 16.0 0.03149414" fill-rule="nonzero"></path><path stroke="#ffffff" stroke-width="1.0" stroke-linejoin="round" stroke-linecap="butt" d="m255.51968 78.2231c8.0 0 12.0 0.01574707 16.0 0.03149414c2.0 0.007873535 4.0 0.01574707 6.5 0.021652222l3.5 0.0059661865" fill-rule="evenodd"></path><path fill="#ffffff" stroke="#ffffff" stroke-width="1.0" stroke-linecap="butt" d="m281.51862 79.933945l4.539154 -1.6488037l-4.537018 -1.6546631z" fill-rule="evenodd"></path><path fill="#000000" fill-opacity="0.0" d="m303.51968 78.2231c8.0 0 12.0 0.01574707 16.0 0.03149414c4.0 0.01574707 8.0 0.03149414 16.0 0.03149414" fill-rule="nonzero"></path><path stroke="#ffffff" stroke-width="1.0" stroke-linejoin="round" stroke-linecap="butt" d="m303.51968 78.2231c8.0 0 12.0 0.01574707 16.0 0.03149414c2.0 0.007873535 4.0 0.01574707 6.5 0.021652222l3.5 0.0059661865" fill-rule="evenodd"></path><path fill="#ffffff" stroke="#ffffff" stroke-width="1.0" stroke-linecap="butt" d="m329.51862 79.933945l4.539154 -1.6488037l-4.537018 -1.6546631z" fill-rule="evenodd"></path><path fill="#000000" fill-opacity="0.0" d="m351.51968 78.2231c4.5617065 0 6.843872 0.01574707 9.123413 0.03149414c2.2795105 0.01574707 4.5563965 0.03149414 9.1128235 0.03149414" fill-rule="nonzero"></path><path stroke="#ffffff" stroke-width="1.0" stroke-linejoin="round" stroke-linecap="butt" d="m351.51968 78.2231c4.561676 0 6.843872 0.01574707 9.123413 0.03149414l3.1128235 0.018203735" fill-rule="evenodd"></path><path fill="#ffffff" stroke="#ffffff" stroke-width="1.0" stroke-linecap="butt" d="m363.75226 79.92452l4.541748 -1.6416702l-4.534424 -1.6617813z" fill-rule="evenodd"></path><path fill="#000000" fill-opacity="0.0" d="m385.76642 78.2231c5.120758 0 7.6824646 0.01574707 10.241516 0.03149414c2.559082 0.01574707 5.115448 0.03149414 10.230896 0.03149414" fill-rule="nonzero"></path><path stroke="#ffffff" stroke-width="1.0" stroke-linejoin="round" stroke-linecap="butt" d="m385.76642 78.2231c5.120758 0 7.682495 0.01574707 10.241547 0.03149414c1.2795105 0.007873535 2.5583801 0.01574707 4.156769 0.021652222l0.07409668 1.9836426E-4" fill-rule="evenodd"></path><path fill="#ffffff" stroke="#ffffff" stroke-width="1.0" stroke-linecap="butt" d="m400.2362 79.92818l4.540741 -1.6444397l-4.535431 -1.6590195z" fill-rule="evenodd"></path><path fill="#000000" fill-opacity="0.0" d="m422.24933 78.2231c6.2519836 0 9.37796 0.01574707 12.503967 0.03149414c3.1259766 0.01574707 6.251953 0.03149414 12.503937 0.03149414" fill-rule="nonzero"></path><path stroke="#ffffff" stroke-width="1.0" stroke-linejoin="round" stroke-linecap="butt" d="m422.24933 78.2231c6.2519836 0 9.37796 0.01574707 12.503967 0.03149414c1.5629883 0.007873535 3.1259766 0.01574707 5.079712 0.021652222l1.4242249 0.0031051636" fill-rule="evenodd"></path><path fill="#ffffff" stroke="#ffffff" stroke-width="1.0" stroke-linecap="butt" d="m441.25537 79.93108l4.5399475 -1.646637l-4.536255 -1.6568222z" fill-rule="evenodd"></path><path fill="#f1c232" d="m504.2756 78.2231l0 0c0 -4.426979 3.5816956 -8.015747 7.9999695 -8.015747l0 0c2.1217651 0 4.156555 0.84451294 5.6568604 2.3477554c1.5003052 1.5032425 2.3431396 3.5420837 2.3431396 5.6679916l0 0c0 4.4269714 -3.581726 8.015747 -8.0 8.015747l0 0c-4.418274 0 -7.9999695 -3.5887756 -7.9999695 -8.015747z" fill-rule="nonzero"></path><path stroke="#000000" stroke-width="1.0" stroke-linejoin="round" stroke-linecap="butt" d="m504.2756 78.2231l0 0c0 -4.426979 3.5816956 -8.015747 7.9999695 -8.015747l0 0c2.1217651 0 4.156555 0.84451294 5.6568604 2.3477554c1.5003052 1.5032425 2.3431396 3.5420837 2.3431396 5.6679916l0 0c0 4.4269714 -3.581726 8.015747 -8.0 8.015747l0 0c-4.418274 0 -7.9999695 -3.5887756 -7.9999695 -8.015747z" fill-rule="nonzero"></path><path fill="#f1c232" d="m587.01575 78.25328l0 0c0 -4.4269714 3.581726 -8.015747 8.0 -8.015747l0 0c2.121704 0 4.156555 0.84451294 5.6568604 2.3477554c1.5003052 1.5032501 2.3431396 3.5420837 2.3431396 5.6679916l0 0c0 4.426979 -3.581726 8.015747 -8.0 8.015747l0 0c-4.418274 0 -8.0 -3.588768 -8.0 -8.015747z" fill-rule="nonzero"></path><path stroke="#000000" stroke-width="1.0" stroke-linejoin="round" stroke-linecap="butt" d="m587.01575 78.25328l0 0c0 -4.4269714 3.581726 -8.015747 8.0 -8.015747l0 0c2.121704 0 4.156555 0.84451294 5.6568604 2.3477554c1.5003052 1.5032501 2.3431396 3.5420837 2.3431396 5.6679916l0 0c0 4.426979 -3.581726 8.015747 -8.0 8.015747l0 0c-4.418274 0 -8.0 -3.588768 -8.0 -8.015747z" fill-rule="nonzero"></path><path fill="#000000" fill-opacity="0.0" d="m463.25723 78.2231c10.254608 0 15.38327 0.01574707 20.509247 0.03149414c5.1259766 0.01574707 10.249298 0.03149414 20.498627 0.03149414" fill-rule="nonzero"></path><path stroke="#ffffff" stroke-width="1.0" stroke-linejoin="round" stroke-linecap="butt" d="m463.25723 78.2231c10.254608 0 15.38327 0.01574707 20.509247 0.03149414c2.5629883 0.007873535 5.1253357 0.01574707 8.328064 0.021652222c1.6013489 0.0029525757 3.362854 0.00541687 5.364563 0.0071411133l0.80599976 3.2043457E-4" fill-rule="evenodd"></path><path fill="#ffffff" stroke="#ffffff" stroke-width="1.0" stroke-linecap="butt" d="m498.26443 79.93543l4.5387573 -1.6499252l-4.537445 -1.6535339z" fill-rule="evenodd"></path><path fill="#000000" fill-opacity="0.0" d="m520.2756 78.2231c5.8189087 0 8.728394 0.01574707 11.637817 0.03149414c2.9094238 0.01574707 5.8189087 0.03149414 11.637817 0.03149414" fill-rule="nonzero"></path><path stroke="#ffffff" stroke-width="1.0" stroke-linejoin="round" stroke-linecap="butt" d="m520.2756 78.2231c5.8189087 0 8.728394 0.01574707 11.637817 0.03149414c1.4547119 0.007873535 2.9094238 0.01574707 4.727844 0.021652222l0.90997314 0.0021362305" fill-rule="evenodd"></path><path fill="#ffffff" stroke="#ffffff" stroke-width="1.0" stroke-linecap="butt" d="m537.5491 79.93011l4.540222 -1.6458969l-4.5360107 -1.6575623z" fill-rule="evenodd"></path><path fill="#000000" fill-opacity="0.0" d="m11.0 25.255905c15.629921 0 23.444881 0.015748978 31.259842 0.031496048c7.8149605 0.015748978 15.629921 0.031496048 31.259842 0.031496048" fill-rule="nonzero"></path><path stroke="#ffffff" stroke-width="1.0" stroke-linejoin="round" stroke-linecap="butt" stroke-dasharray="4.0,3.0" d="m11.0 25.255905c15.629921 0 23.444881 0.015748978 31.259842 0.031496048c3.9074821 0.007873535 7.8149605 0.015748978 12.69931 0.021654129c2.4421768 0.0029525757 5.1285706 0.0054130554 8.18129 0.0071353912l4.379242 0.0011425018" fill-rule="evenodd"></path><path fill="#ffffff" stroke="#ffffff" stroke-width="1.0" stroke-linecap="butt" d="m67.51926 26.969065l4.5385284 -1.6505489l-4.5376663 -1.652916z" fill-rule="evenodd"></path><path fill="#000000" fill-opacity="0.0" d="m595.01575 70.23753c0 -9.233635 4.0 -13.849159 8.0 -18.46727c4.0 -4.6181107 8.0 -9.238808 8.0 -18.477612" fill-rule="nonzero"></path><path stroke="#ffffff" stroke-width="1.0" stroke-linejoin="round" stroke-linecap="butt" d="m595.01575 70.23753c0 -9.233639 4.0 -13.849159 8.0 -18.46727c2.0 -2.3090553 4.0 -4.6187553 5.5 -7.5060425c0.75 -1.4436455 1.375 -3.0316887 1.8125 -4.8362427l0.039916992 -0.17037964" fill-rule="evenodd"></path><path fill="#ffffff" stroke="#ffffff" stroke-width="1.0" stroke-linecap="butt" d="m612.0102 39.43588l-1.1522217 -4.689865l-2.131897 4.3333054z" fill-rule="evenodd"></path><path fill="#6fa8dc" d="m603.0184 25.287401l0 0c0 -4.4269753 3.581726 -8.015747 8.0 -8.015747l0 0c2.121704 0 4.156555 0.84451294 5.6568604 2.3477573c1.5003052 1.5032444 2.3431396 3.5420818 2.3431396 5.6679897l0 0c0 4.4269753 -3.581726 8.015749 -8.0 8.015749l0 0c-4.418274 0 -8.0 -3.5887737 -8.0 -8.015749z" fill-rule="nonzero"></path><path stroke="#000000" stroke-width="1.0" stroke-linejoin="round" stroke-linecap="butt" d="m603.0184 25.287401l0 0c0 -4.4269753 3.581726 -8.015747 8.0 -8.015747l0 0c2.121704 0 4.156555 0.84451294 5.6568604 2.3477573c1.5003052 1.5032444 2.3431396 3.5420818 2.3431396 5.6679897l0 0c0 4.4269753 -3.581726 8.015749 -8.0 8.015749l0 0c-4.418274 0 -8.0 -3.5887737 -8.0 -8.015749z" fill-rule="nonzero"></path><path fill="#f1c232" d="m644.0341 78.25459l0 0c0 -4.4269714 3.581726 -8.015747 8.0 -8.015747l0 0c2.121704 0 4.156555 0.84451294 5.6568604 2.3477554c1.5003052 1.5032501 2.3431396 3.5420837 2.3431396 5.6679916l0 0c0 4.426979 -3.581726 8.015747 -8.0 8.015747l0 0c-4.418274 0 -8.0 -3.588768 -8.0 -8.015747z" fill-rule="nonzero"></path><path stroke="#000000" stroke-width="1.0" stroke-linejoin="round" stroke-linecap="butt" d="m644.0341 78.25459l0 0c0 -4.4269714 3.581726 -8.015747 8.0 -8.015747l0 0c2.121704 0 4.156555 0.84451294 5.6568604 2.3477554c1.5003052 1.5032501 2.3431396 3.5420837 2.3431396 5.6679916l0 0c0 4.426979 -3.581726 8.015747 -8.0 8.015747l0 0c-4.418274 0 -8.0 -3.588768 -8.0 -8.015747z" fill-rule="nonzero"></path><path fill="#f1c232" d="m543.5512 78.25328l0 0c0 -4.4269714 3.581665 -8.015747 8.0 -8.015747l0 0c2.121704 0 4.156555 0.84451294 5.6567993 2.3477554c1.5003052 1.5032501 2.3432007 3.5420837 2.3432007 5.6679916l0 0c0 4.426979 -3.581726 8.015747 -8.0 8.015747l0 0c-4.418335 0 -8.0 -3.588768 -8.0 -8.015747z" fill-rule="nonzero"></path><path stroke="#000000" stroke-width="1.0" stroke-linejoin="round" stroke-linecap="butt" d="m543.5512 78.25328l0 0c0 -4.4269714 3.581665 -8.015747 8.0 -8.015747l0 0c2.121704 0 4.156555 0.84451294 5.6567993 2.3477554c1.5003052 1.5032501 2.3432007 3.5420837 2.3432007 5.6679916l0 0c0 4.426979 -3.581726 8.015747 -8.0 8.015747l0 0c-4.418335 0 -8.0 -3.588768 -8.0 -8.015747z" fill-rule="nonzero"></path><path fill="#000000" fill-opacity="0.0" d="m559.5512 78.25328c6.866089 0 10.299194 0.01574707 13.732239 0.03149414c3.4331055 0.01574707 6.86615 0.03150177 13.7323 0.03150177" fill-rule="nonzero"></path><path stroke="#ffffff" stroke-width="1.0" stroke-linejoin="round" stroke-linecap="butt" d="m559.5512 78.25328c6.866089 0 10.299194 0.01574707 13.732239 0.03149414c1.7165527 0.007873535 3.4331055 0.01574707 5.5787354 0.021652222l2.1535645 0.0042800903" fill-rule="evenodd"></path><path fill="#ffffff" stroke="#ffffff" stroke-width="1.0" stroke-linecap="butt" d="m581.0142 79.96244l4.539612 -1.647522l-4.53656 -1.6559448z" fill-rule="evenodd"></path><path fill="#000000" fill-opacity="0.0" d="m603.01575 78.25328c10.254639 0 15.383301 0.01574707 20.509277 0.03149414c5.1259766 0.01574707 10.249268 0.03150177 20.498596 0.03150177" fill-rule="nonzero"></path><path stroke="#ffffff" stroke-width="1.0" stroke-linejoin="round" stroke-linecap="butt" d="m603.01575 78.25328c10.254639 0 15.383301 0.01574707 20.509277 0.03149414c2.5629883 0.007873535 5.125305 0.01574707 8.328064 0.021652222c1.6013794 0.0029525757 3.362854 0.00541687 5.364563 0.0071411133l0.80596924 3.2043457E-4" fill-rule="evenodd"></path><path fill="#ffffff" stroke="#ffffff" stroke-width="1.0" stroke-linecap="butt" d="m638.02295 79.96562l4.5387573 -1.6499329l-4.5374146 -1.6535339z" fill-rule="evenodd"></path><path fill="#000000" fill-opacity="0.0" d="m191.51968 25.318897c48.749985 0 73.125946 0.015748978 97.49997 0.031496048c24.374023 0.015748978 48.746063 0.031496048 97.49216 0.031496048" fill-rule="nonzero"></path><path stroke="#ffffff" stroke-width="1.0" stroke-linejoin="round" stroke-linecap="butt" d="m191.51968 25.318897c48.749985 0 73.125946 0.015748978 97.49997 0.031496048c12.187012 0.007873535 24.373505 0.015748978 39.606567 0.021654129c7.6164856 0.0029525757 15.994629 0.0054130554 25.515259 0.0071353912l26.37033 0.002204895" fill-rule="evenodd"></path><path fill="#ffffff" stroke="#ffffff" stroke-width="1.0" stroke-linecap="butt" d="m380.5117 27.033121l4.538208 -1.6513538l-4.5379333 -1.652111z" fill-rule="evenodd"></path><path fill="#000000" fill-opacity="0.0" d="m402.51968 25.318897c50.12497 0 75.18698 0.015748978 100.24997 0.031496048c25.062988 0.015748978 50.126953 0.031496048 100.25397 0.031496048" fill-rule="nonzero"></path><path stroke="#ffffff" stroke-width="1.0" stroke-linejoin="round" stroke-linecap="butt" d="m402.51968 25.318897c50.125 0 75.18698 0.015748978 100.24997 0.031496048c12.531494 0.007873535 25.063232 0.015748978 40.727966 0.021654129c7.8323975 0.0029525757 16.447998 0.0054130554 26.238464 0.0071353912l27.287537 0.0022201538" fill-rule="evenodd"></path><path fill="#ffffff" stroke="#ffffff" stroke-width="1.0" stroke-linecap="butt" d="m597.0235 27.033134l4.538208 -1.6513634l-4.537964 -1.6521015z" fill-rule="evenodd"></path></g></svg>

