<?xml version="1.0" standalone="yes"?>

<svg version="1.1" viewBox="0.0 0.0 686.2178477690288 200.28083989501312" fill="none" stroke="none" stroke-linecap="square" stroke-miterlimit="10" xmlns="http://www.w3.org/2000/svg" xmlns:xlink="http://www.w3.org/1999/xlink"><clipPath id="p.0"><path d="m0 0l686.21783 0l0 200.28084l-686.21783 0l0 -200.28084z" clip-rule="nonzero"></path></clipPath><g clip-path="url(#p.0)"><path fill="#000000" fill-opacity="0.0" d="m0 0l686.21783 0l0 200.28084l-686.21783 0z" fill-rule="nonzero"></path><path fill="#000000" fill-opacity="0.0" d="m68.63301 57.32021l608.8819 0" fill-rule="nonzero"></path><path stroke="#666666" stroke-width="1.0" stroke-linejoin="round" stroke-linecap="butt" d="m68.63301 57.32021l602.8819 0" fill-rule="evenodd"></path><path fill="#666666" stroke="#666666" stroke-width="1.0" stroke-linecap="butt" d="m671.5149 58.971943l4.538086 -1.6517334l-4.538086 -1.6517334z" fill-rule="evenodd"></path><path fill="#000000" fill-opacity="0.0" d="m0 23.496063l85.00787 0l0 32.283463l-85.00787 0z" fill-rule="nonzero"></path><path fill="#ffffff" d="m9.984375 39.55919l2.03125 0l0 1.125q1.078125 -1.3125 2.578125 -1.3125q0.796875 0 1.375 0.328125q0.59375 0.328125 0.96875 0.984375q0.546875 -0.65625 1.171875 -0.984375q0.640625 -0.328125 1.359375 -0.328125q0.921875 0 1.546875 0.375q0.640625 0.359375 0.953125 1.078125q0.21875 0.53125 0.21875 1.71875l0 5.3125l-2.1875 0l0 -4.75q0 -1.234375 -0.234375 -1.59375q-0.296875 -0.46875 -0.9375 -0.46875q-0.453125 0 -0.859375 0.28125q-0.40625 0.28125 -0.59375 0.828125q-0.171875 0.546875 -0.171875 1.71875l0 3.984375l-2.203125 0l0 -4.546875q0 -1.21875 -0.125 -1.5625q-0.109375 -0.359375 -0.359375 -0.53125q-0.234375 -0.171875 -0.65625 -0.171875q-0.515625 0 -0.921875 0.28125q-0.40625 0.265625 -0.578125 0.78125q-0.171875 0.515625 -0.171875 1.71875l0 4.03125l-2.203125 0l0 -8.296875zm16.039062 2.53125l-2.0 -0.359375q0.34375 -1.203125 1.15625 -1.78125q0.828125 -0.578125 2.4375 -0.578125q1.46875 0 2.1875 0.34375q0.71875 0.34375 1.015625 0.890625q0.296875 0.53125 0.296875 1.953125l-0.03125 2.5625q0 1.09375 0.109375 1.625q0.109375 0.515625 0.390625 1.109375l-2.171875 0q-0.078125 -0.21875 -0.203125 -0.65625q-0.0625 -0.1875 -0.078125 -0.25q-0.5625 0.546875 -1.203125 0.828125q-0.640625 0.265625 -1.375 0.265625q-1.28125 0 -2.015625 -0.6875q-0.734375 -0.703125 -0.734375 -1.765625q0 -0.703125 0.328125 -1.25q0.34375 -0.5625 0.9375 -0.84375q0.609375 -0.296875 1.75 -0.515625q1.546875 -0.296875 2.140625 -0.546875l0 -0.21875q0 -0.625 -0.3125 -0.890625q-0.3125 -0.28125 -1.1875 -0.28125q-0.578125 0 -0.90625 0.234375q-0.328125 0.234375 -0.53125 0.8125zm2.9375 1.78125q-0.421875 0.140625 -1.34375 0.34375q-0.90625 0.1875 -1.1875 0.375q-0.4375 0.296875 -0.4375 0.765625q0 0.46875 0.34375 0.8125q0.34375 0.328125 0.875 0.328125q0.59375 0 1.140625 -0.390625q0.390625 -0.296875 0.515625 -0.734375q0.09375 -0.28125 0.09375 -1.0625l0 -0.4375zm3.5390625 1.609375l2.203125 -0.328125q0.140625 0.640625 0.5625 0.96875q0.4375 0.328125 1.21875 0.328125q0.84375 0 1.28125 -0.3125q0.28125 -0.21875 0.28125 -0.578125q0 -0.25 -0.15625 -0.421875q-0.15625 -0.15625 -0.734375 -0.28125q-2.65625 -0.59375 -3.359375 -1.078125q-0.984375 -0.671875 -0.984375 -1.859375q0 -1.078125 0.84375 -1.8125q0.859375 -0.734375 2.640625 -0.734375q1.703125 0 2.53125 0.5625q0.828125 0.546875 1.140625 1.625l-2.0625 0.390625q-0.140625 -0.484375 -0.515625 -0.734375q-0.359375 -0.265625 -1.046875 -0.265625q-0.875 0 -1.25 0.234375q-0.25 0.171875 -0.25 0.453125q0 0.234375 0.21875 0.390625q0.296875 0.21875 2.046875 0.625q1.765625 0.390625 2.453125 0.96875q0.6875 0.59375 0.6875 1.640625q0 1.140625 -0.953125 1.96875q-0.953125 0.8125 -2.8125 0.8125q-1.703125 0 -2.6875 -0.6875q-0.984375 -0.6875 -1.296875 -1.875zm13.4765625 -5.921875l0 1.75l-1.5 0l0 3.34375q0 1.015625 0.046875 1.1875q0.046875 0.15625 0.1875 0.265625q0.15625 0.109375 0.375 0.109375q0.3125 0 0.890625 -0.203125l0.1875 1.703125q-0.765625 0.328125 -1.734375 0.328125q-0.59375 0 -1.078125 -0.203125q-0.46875 -0.203125 -0.703125 -0.515625q-0.21875 -0.3125 -0.296875 -0.859375q-0.078125 -0.375 -0.078125 -1.546875l0 -3.609375l-1.0 0l0 -1.75l1.0 0l0 -1.65625l2.203125 -1.28125l0 2.9375l1.5 0zm6.328125 5.65625l2.1875 0.359375q-0.421875 1.203125 -1.328125 1.84375q-0.90625 0.625 -2.28125 0.625q-2.15625 0 -3.203125 -1.421875q-0.8125 -1.125 -0.8125 -2.859375q0 -2.0625 1.078125 -3.21875q1.078125 -1.171875 2.71875 -1.171875q1.859375 0 2.921875 1.21875q1.078125 1.21875 1.03125 3.75l-5.5 0q0.015625 0.96875 0.515625 1.515625q0.515625 0.546875 1.28125 0.546875q0.515625 0 0.859375 -0.28125q0.359375 -0.28125 0.53125 -0.90625zm0.125 -2.21875q-0.015625 -0.953125 -0.484375 -1.453125q-0.46875 -0.5 -1.140625 -0.5q-0.71875 0 -1.1875 0.53125q-0.46875 0.515625 -0.46875 1.421875l3.28125 0zm6.0703125 4.859375l-2.1875 0l0 -8.296875l2.03125 0l0 1.171875q0.53125 -0.828125 0.9375 -1.09375q0.421875 -0.265625 0.953125 -0.265625q0.75 0 1.453125 0.40625l-0.6875 1.921875q-0.546875 -0.359375 -1.03125 -0.359375q-0.453125 0 -0.78125 0.25q-0.3125 0.25 -0.5 0.921875q-0.1875 0.65625 -0.1875 2.78125l0 2.5625z" fill-rule="nonzero"></path><path fill="#000000" fill-opacity="0.0" d="m10.0 182.22404l667.49603 0" fill-rule="nonzero"></path><path stroke="#999999" stroke-width="1.0" stroke-linejoin="round" stroke-linecap="butt" d="m10.0 182.22404l661.49603 0" fill-rule="evenodd"></path><path fill="#999999" stroke="#999999" stroke-width="1.0" stroke-linecap="butt" d="m671.49603 183.87578l4.538147 -1.6517334l-4.538147 -1.6517334z" fill-rule="evenodd"></path><path fill="#000000" fill-opacity="0.0" d="m0 147.72441l85.00787 0l0 34.48819l-85.00787 0z" fill-rule="nonzero"></path><path fill="#ffffff" d="m17.765625 172.08441l-2.046875 0l0 -1.21875q-0.5 0.703125 -1.203125 1.0625q-0.6875 0.34375 -1.390625 0.34375q-1.421875 0 -2.453125 -1.15625q-1.015625 -1.15625 -1.015625 -3.21875q0 -2.109375 0.984375 -3.203125q1.0 -1.09375 2.515625 -1.09375q1.390625 0 2.40625 1.15625l0 -4.125l2.203125 0l0 11.453125zm-5.859375 -4.328125q0 1.328125 0.359375 1.921875q0.53125 0.859375 1.484375 0.859375q0.765625 0 1.296875 -0.640625q0.53125 -0.65625 0.53125 -1.9375q0 -1.421875 -0.515625 -2.046875q-0.515625 -0.640625 -1.328125 -0.640625q-0.78125 0 -1.3125 0.625q-0.515625 0.625 -0.515625 1.859375zm12.8203125 1.6875l2.1875 0.359375q-0.421875 1.203125 -1.328125 1.84375q-0.90625 0.625 -2.28125 0.625q-2.15625 0 -3.203125 -1.421875q-0.8125 -1.125 -0.8125 -2.859375q0 -2.0625 1.078125 -3.21875q1.078125 -1.171875 2.71875 -1.171875q1.859375 0 2.921875 1.21875q1.078125 1.21875 1.03125 3.75l-5.5 0q0.015625 0.96875 0.515625 1.515625q0.515625 0.546875 1.28125 0.546875q0.515625 0 0.859375 -0.28125q0.359375 -0.28125 0.53125 -0.90625zm0.125 -2.21875q-0.015625 -0.953125 -0.484375 -1.453125q-0.46875 -0.5 -1.140625 -0.5q-0.71875 0 -1.1875 0.53125q-0.46875 0.515625 -0.46875 1.421875l3.28125 0zm6.2578125 4.859375l-3.34375 -8.296875l2.296875 0l1.5625 4.234375l0.453125 1.40625q0.1875 -0.53125 0.234375 -0.703125q0.109375 -0.359375 0.234375 -0.703125l1.578125 -4.234375l2.25 0l-3.296875 8.296875l-1.96875 0zm11.4140625 -2.640625l2.1875 0.359375q-0.421875 1.203125 -1.328125 1.84375q-0.90625 0.625 -2.28125 0.625q-2.15625 0 -3.203125 -1.421875q-0.8125 -1.125 -0.8125 -2.859375q0 -2.0625 1.078125 -3.21875q1.078125 -1.171875 2.71875 -1.171875q1.859375 0 2.921875 1.21875q1.078125 1.21875 1.03125 3.75l-5.5 0q0.015625 0.96875 0.515625 1.515625q0.515625 0.546875 1.28125 0.546875q0.515625 0 0.859375 -0.28125q0.359375 -0.28125 0.53125 -0.90625zm0.125 -2.21875q-0.015625 -0.953125 -0.484375 -1.453125q-0.46875 -0.5 -1.140625 -0.5q-0.71875 0 -1.1875 0.53125q-0.46875 0.515625 -0.46875 1.421875l3.28125 0zm3.9765625 4.859375l0 -11.453125l2.1875 0l0 11.453125l-2.1875 0zm3.9296875 -4.265625q0 -1.09375 0.53125 -2.109375q0.546875 -1.03125 1.53125 -1.5625q1.0 -0.546875 2.21875 -0.546875q1.875 0 3.078125 1.21875q1.203125 1.21875 1.203125 3.09375q0 1.875 -1.21875 3.125q-1.203125 1.234375 -3.046875 1.234375q-1.140625 0 -2.1875 -0.515625q-1.03125 -0.515625 -1.578125 -1.515625q-0.53125 -1.0 -0.53125 -2.421875zm2.25 0.109375q0 1.234375 0.578125 1.890625q0.59375 0.65625 1.453125 0.65625q0.859375 0 1.4375 -0.65625q0.59375 -0.65625 0.59375 -1.90625q0 -1.21875 -0.59375 -1.875q-0.578125 -0.65625 -1.4375 -0.65625q-0.859375 0 -1.453125 0.65625q-0.578125 0.65625 -0.578125 1.890625zm7.9765625 -4.140625l2.046875 0l0 1.21875q0.390625 -0.625 1.0625 -1.015625q0.6875 -0.390625 1.515625 -0.390625q1.453125 0 2.453125 1.140625q1.015625 1.125 1.015625 3.140625q0 2.078125 -1.015625 3.234375q-1.015625 1.15625 -2.46875 1.15625q-0.6875 0 -1.25 -0.265625q-0.546875 -0.28125 -1.171875 -0.953125l0 4.1875l-2.1875 0l0 -11.453125zm2.171875 4.0q0 1.40625 0.546875 2.078125q0.5625 0.65625 1.359375 0.65625q0.765625 0 1.265625 -0.609375q0.515625 -0.609375 0.515625 -2.015625q0 -1.296875 -0.53125 -1.921875q-0.515625 -0.640625 -1.296875 -0.640625q-0.796875 0 -1.328125 0.625q-0.53125 0.609375 -0.53125 1.828125z" fill-rule="nonzero"></path><path fill="#6fa8dc" d="m73.519684 57.318897l0 0c0 -4.4269753 3.581726 -8.015747 8.0 -8.015747l0 0c2.1217346 0 4.156563 0.84451294 5.6568527 2.3477592c1.5002899 1.5032425 2.3431473 3.54208 2.3431473 5.667988l0 0c0 4.4269753 -3.5817184 8.015751 -8.0 8.015751l0 0c-4.418274 0 -8.0 -3.5887756 -8.0 -8.015751z" fill-rule="nonzero"></path><path stroke="#000000" stroke-width="1.0" stroke-linejoin="round" stroke-linecap="butt" d="m73.519684 57.318897l0 0c0 -4.4269753 3.581726 -8.015747 8.0 -8.015747l0 0c2.1217346 0 4.156563 0.84451294 5.6568527 2.3477592c1.5002899 1.5032425 2.3431473 3.54208 2.3431473 5.667988l0 0c0 4.4269753 -3.5817184 8.015751 -8.0 8.015751l0 0c-4.418274 0 -8.0 -3.5887756 -8.0 -8.015751z" fill-rule="nonzero"></path><path fill="#f1c232" d="m95.519684 182.2231l0 0c0 -4.4269714 3.581726 -8.015747 8.0 -8.015747l0 0c2.1217346 0 4.156563 0.84451294 5.6568527 2.347763c1.5002975 1.5032349 2.3431473 3.5420685 2.3431473 5.667984l0 0c0 4.4269714 -3.5817184 8.015747 -8.0 8.015747l0 0c-4.418274 0 -8.0 -3.5887756 -8.0 -8.015747z" fill-rule="nonzero"></path><path stroke="#000000" stroke-width="1.0" stroke-linejoin="round" stroke-linecap="butt" d="m95.519684 182.2231l0 0c0 -4.4269714 3.581726 -8.015747 8.0 -8.015747l0 0c2.1217346 0 4.156563 0.84451294 5.6568527 2.347763c1.5002975 1.5032349 2.3431473 3.5420685 2.3431473 5.667984l0 0c0 4.4269714 -3.5817184 8.015747 -8.0 8.015747l0 0c-4.418274 0 -8.0 -3.5887756 -8.0 -8.015747z" fill-rule="nonzero"></path><path fill="#000000" fill-opacity="0.0" d="m81.519684 65.33465c0 27.218292 5.503937 40.826355 11.007874 54.436584c5.503937 13.610237 11.007874 27.222649 11.007874 54.445305" fill-rule="nonzero"></path><path stroke="#ffffff" stroke-width="1.0" stroke-linejoin="round" stroke-linecap="butt" d="m81.519684 65.33465c0 27.2183 5.503937 40.826347 11.007874 54.436584c2.7519684 6.8051224 5.503937 13.610786 7.567917 22.118004c1.03199 4.253601 1.8919754 8.932587 2.4939728 14.249603c0.30099487 2.6585083 0.53749084 5.4765167 0.69873047 8.480606c0.04031372 0.75102234 0.075935364 1.5136719 0.106674194 2.2883759c0.015365601 0.38734436 0.029518127 0.7776947 0.042419434 1.1711273l0.0040740967 0.13832092" fill-rule="evenodd"></path><path fill="#ffffff" stroke="#ffffff" stroke-width="1.0" stroke-linecap="butt" d="m101.78982 168.24318l1.7226944 4.511627l1.580368 -4.563431z" fill-rule="evenodd"></path><path fill="#ffffff" d="m66.50131 11.501312l7.5013123 0l0 0l11.251968 0l26.254593 0l0 12.530184l0 0l0 5.370079l0 3.5800533l-26.254593 0l-5.7910156 9.519646l-5.4609528 -9.519646l-7.5013123 0l0 -3.5800533l0 -5.370079l0 0z" fill-rule="nonzero"></path><path stroke="#000000" stroke-width="1.0" stroke-linejoin="round" stroke-linecap="butt" d="m66.50131 11.501312l7.5013123 0l0 0l11.251968 0l26.254593 0l0 12.530184l0 0l0 5.370079l0 3.5800533l-26.254593 0l-5.7910156 9.519646l-5.4609528 -9.519646l-7.5013123 0l0 -3.5800533l0 -5.370079l0 0z" fill-rule="nonzero"></path><path fill="#000000" d="m81.248604 25.98147l-0.96875 0l0 -6.15625q-0.34375 0.328125 -0.90625 0.671875q-0.5625 0.328125 -1.015625 0.484375l0 -0.9375q0.8125 -0.375 1.40625 -0.90625q0.609375 -0.546875 0.859375 -1.0625l0.625 0l0 7.90625zm2.8327484 0l0 -1.09375l1.09375 0l0 1.09375l-1.09375 0zm2.4137726 -3.890625q0 -1.390625 0.28125 -2.234375q0.296875 -0.859375 0.859375 -1.3125q0.578125 -0.46875 1.4375 -0.46875q0.625 0 1.09375 0.265625q0.484375 0.25 0.796875 0.734375q0.3125 0.46875 0.484375 1.171875q0.1875 0.6875 0.1875 1.84375q0 1.390625 -0.296875 2.25q-0.28125 0.84375 -0.84375 1.3125q-0.5625 0.46875 -1.421875 0.46875q-1.140625 0 -1.796875 -0.828125q-0.78125 -0.984375 -0.78125 -3.203125zm1.0 0q0 1.953125 0.453125 2.59375q0.453125 0.640625 1.125 0.640625q0.65625 0 1.109375 -0.640625q0.453125 -0.65625 0.453125 -2.59375q0 -1.9375 -0.453125 -2.578125q-0.453125 -0.640625 -1.125 -0.640625q-0.671875 0 -1.0625 0.5625q-0.5 0.71875 -0.5 2.65625zm5.4733734 3.890625l0 -1.09375l1.09375 0l0 1.09375l-1.09375 0zm2.4137726 -3.890625q0 -1.390625 0.28125 -2.234375q0.296875 -0.859375 0.859375 -1.3125q0.578125 -0.46875 1.4375 -0.46875q0.625 0 1.09375 0.265625q0.484375 0.25 0.796875 0.734375q0.3125 0.46875 0.484375 1.171875q0.1875 0.6875 0.1875 1.84375q0 1.390625 -0.296875 2.25q-0.28125 0.84375 -0.84375 1.3125q-0.5625 0.46875 -1.421875 0.46875q-1.140625 0 -1.796875 -0.828125q-0.78125 -0.984375 -0.78125 -3.203125zm1.0 0q0 1.953125 0.453125 2.59375q0.453125 0.640625 1.125 0.640625q0.65625 0 1.109375 -0.640625q0.453125 -0.65625 0.453125 -2.59375q0 -1.9375 -0.453125 -2.578125q-0.453125 -0.640625 -1.125 -0.640625q-0.671875 0 -1.0625 0.5625q-0.5 0.71875 -0.5 2.65625z" fill-rule="nonzero"></path><path fill="#f1c232" d="m127.519684 182.2231l0 0c0 -4.4269714 3.581726 -8.015747 8.0 -8.015747l0 0c2.1217346 0 4.1565704 0.84451294 5.6568604 2.347763c1.5002899 1.5032349 2.3431396 3.5420685 2.3431396 5.667984l0 0c0 4.4269714 -3.581726 8.015747 -8.0 8.015747l0 0c-4.418274 0 -8.0 -3.5887756 -8.0 -8.015747z" fill-rule="nonzero"></path><path stroke="#000000" stroke-width="1.0" stroke-linejoin="round" stroke-linecap="butt" d="m127.519684 182.2231l0 0c0 -4.4269714 3.581726 -8.015747 8.0 -8.015747l0 0c2.1217346 0 4.1565704 0.84451294 5.6568604 2.347763c1.5002899 1.5032349 2.3431396 3.5420685 2.3431396 5.667984l0 0c0 4.4269714 -3.581726 8.015747 -8.0 8.015747l0 0c-4.418274 0 -8.0 -3.5887756 -8.0 -8.015747z" fill-rule="nonzero"></path><path fill="#f1c232" d="m159.51968 182.2126l0 0c0 -4.4269714 3.581726 -8.015747 8.0 -8.015747l0 0c2.1217346 0 4.1565704 0.84451294 5.6568604 2.3477478c1.5002899 1.5032501 2.3431396 3.5420837 2.3431396 5.6679993l0 0c0 4.4269714 -3.581726 8.015747 -8.0 8.015747l0 0c-4.418274 0 -8.0 -3.5887756 -8.0 -8.015747z" fill-rule="nonzero"></path><path stroke="#000000" stroke-width="1.0" stroke-linejoin="round" stroke-linecap="butt" d="m159.51968 182.2126l0 0c0 -4.4269714 3.581726 -8.015747 8.0 -8.015747l0 0c2.1217346 0 4.1565704 0.84451294 5.6568604 2.3477478c1.5002899 1.5032501 2.3431396 3.5420837 2.3431396 5.6679993l0 0c0 4.4269714 -3.581726 8.015747 -8.0 8.015747l0 0c-4.418274 0 -8.0 -3.5887756 -8.0 -8.015747z" fill-rule="nonzero"></path><path fill="#f1c232" d="m191.51968 182.2231l0 0c0 -4.4269714 3.581726 -8.015747 8.0 -8.015747l0 0c2.1217346 0 4.1565704 0.84451294 5.6568604 2.347763c1.5002899 1.5032349 2.3431396 3.5420685 2.3431396 5.667984l0 0c0 4.4269714 -3.581726 8.015747 -8.0 8.015747l0 0c-4.418274 0 -8.0 -3.5887756 -8.0 -8.015747z" fill-rule="nonzero"></path><path stroke="#000000" stroke-width="1.0" stroke-linejoin="round" stroke-linecap="butt" d="m191.51968 182.2231l0 0c0 -4.4269714 3.581726 -8.015747 8.0 -8.015747l0 0c2.1217346 0 4.1565704 0.84451294 5.6568604 2.347763c1.5002899 1.5032349 2.3431396 3.5420685 2.3431396 5.667984l0 0c0 4.4269714 -3.581726 8.015747 -8.0 8.015747l0 0c-4.418274 0 -8.0 -3.5887756 -8.0 -8.015747z" fill-rule="nonzero"></path><path fill="#f1c232" d="m287.51968 182.2231l0 0c0 -4.4269714 3.581726 -8.015747 8.0 -8.015747l0 0c2.1217346 0 4.156555 0.84451294 5.6568604 2.347763c1.5002747 1.5032349 2.3431396 3.5420685 2.3431396 5.667984l0 0c0 4.4269714 -3.581726 8.015747 -8.0 8.015747l0 0c-4.418274 0 -8.0 -3.5887756 -8.0 -8.015747z" fill-rule="nonzero"></path><path stroke="#000000" stroke-width="1.0" stroke-linejoin="round" stroke-linecap="butt" d="m287.51968 182.2231l0 0c0 -4.4269714 3.581726 -8.015747 8.0 -8.015747l0 0c2.1217346 0 4.156555 0.84451294 5.6568604 2.347763c1.5002747 1.5032349 2.3431396 3.5420685 2.3431396 5.667984l0 0c0 4.4269714 -3.581726 8.015747 -8.0 8.015747l0 0c-4.418274 0 -8.0 -3.5887756 -8.0 -8.015747z" fill-rule="nonzero"></path><path fill="#000000" fill-opacity="0.0" d="m10.0 113.712494l667.49603 0" fill-rule="nonzero"></path><path stroke="#666666" stroke-width="1.0" stroke-linejoin="round" stroke-linecap="butt" d="m10.0 113.712494l661.49603 0" fill-rule="evenodd"></path><path fill="#666666" stroke="#666666" stroke-width="1.0" stroke-linecap="butt" d="m671.49603 115.36423l4.538086 -1.6517334l-4.538086 -1.6517334z" fill-rule="evenodd"></path><path fill="#000000" fill-opacity="0.0" d="m0 82.69292l85.00787 0l0 30.992119l-85.00787 0z" fill-rule="nonzero"></path><path fill="#ffffff" d="m9.4375 104.49291l1.9375 -9.3125l1.140625 0l-0.734375 3.578125q0.640625 -0.625 1.1875 -0.890625q0.5625 -0.265625 1.140625 -0.265625q0.84375 0 1.296875 0.4375q0.46875 0.4375 0.46875 1.171875q0 0.34375 -0.203125 1.296875l-0.828125 3.984375l-1.15625 0l0.859375 -4.078125q0.1875 -0.890625 0.1875 -1.125q0 -0.328125 -0.234375 -0.53125q-0.21875 -0.21875 -0.65625 -0.21875q-0.625 0 -1.1875 0.328125q-0.5625 0.328125 -0.890625 0.90625q-0.3125 0.5625 -0.578125 1.828125l-0.609375 2.890625l-1.140625 0zm7.6156006 -2.5625q0 -1.96875 1.15625 -3.265625q0.953125 -1.0625 2.515625 -1.0625q1.21875 0 1.953125 0.765625q0.75 0.75 0.75 2.046875q0 1.171875 -0.46875 2.171875q-0.46875 0.984375 -1.34375 1.53125q-0.859375 0.53125 -1.8125 0.53125q-0.78125 0 -1.4375 -0.328125q-0.640625 -0.34375 -0.984375 -0.953125q-0.328125 -0.625 -0.328125 -1.4375zm1.140625 -0.109375q0 0.953125 0.453125 1.453125q0.46875 0.484375 1.171875 0.484375q0.359375 0 0.71875 -0.140625q0.375 -0.15625 0.671875 -0.453125q0.3125 -0.3125 0.53125 -0.703125q0.21875 -0.390625 0.359375 -0.84375q0.203125 -0.625 0.203125 -1.203125q0 -0.921875 -0.46875 -1.421875q-0.453125 -0.5 -1.15625 -0.5q-0.546875 0 -0.984375 0.265625q-0.4375 0.25 -0.796875 0.75q-0.359375 0.484375 -0.53125 1.140625q-0.171875 0.65625 -0.171875 1.171875zm8.740601 1.734375l-0.1875 0.9375q-0.40625 0.109375 -0.796875 0.109375q-0.6875 0 -1.09375 -0.328125q-0.296875 -0.25 -0.296875 -0.703125q0 -0.21875 0.15625 -1.015625l0.828125 -3.921875l-0.90625 0l0.171875 -0.875l0.90625 0l0.359375 -1.65625l1.3125 -0.796875l-0.515625 2.453125l1.125 0l-0.1875 0.875l-1.125 0l-0.78125 3.734375q-0.140625 0.703125 -0.140625 0.84375q0 0.203125 0.109375 0.3125q0.125 0.109375 0.390625 0.109375q0.375 0 0.671875 -0.078125zm4.8903503 0.9375l1.21875 -5.859375l-1.03125 0l0.1875 -0.875l1.03125 0l0.203125 -0.96875q0.140625 -0.71875 0.296875 -1.03125q0.171875 -0.3125 0.53125 -0.515625q0.375 -0.21875 1.0 -0.21875q0.4375 0 1.265625 0.1875l-0.203125 1.0q-0.59375 -0.15625 -0.984375 -0.15625q-0.328125 0 -0.515625 0.171875q-0.171875 0.171875 -0.296875 0.796875l-0.140625 0.734375l1.28125 0l-0.1875 0.875l-1.28125 0l-1.234375 5.859375l-1.140625 0zm5.1717377 -8.0l0.28125 -1.3125l1.140625 0l-0.28125 1.3125l-1.140625 0zm-1.671875 8.0l1.40625 -6.734375l1.15625 0l-1.421875 6.734375l-1.140625 0zm2.55484 0l2.921875 -3.421875l-1.671875 -3.3125l1.265625 0l0.578125 1.1875q0.3125 0.671875 0.5625 1.296875l1.953125 -2.484375l1.390625 0l-2.828125 3.40625l1.703125 3.328125l-1.265625 0l-0.671875 -1.375q-0.21875 -0.4375 -0.5 -1.078125l-2.0 2.453125l-1.4375 0zm12.0703125 -2.296875l1.109375 0.125q-0.234375 0.828125 -1.109375 1.578125q-0.859375 0.75 -2.0625 0.75q-0.75 0 -1.375 -0.34375q-0.625 -0.359375 -0.953125 -1.015625q-0.328125 -0.65625 -0.328125 -1.5q0 -1.109375 0.5 -2.140625q0.515625 -1.046875 1.328125 -1.546875q0.8125 -0.5 1.765625 -0.5q1.203125 0 1.921875 0.75q0.71875 0.75 0.71875 2.046875q0 0.484375 -0.078125 1.015625l-4.96875 0q-0.03125 0.1875 -0.03125 0.34375q0 0.953125 0.4375 1.453125q0.4375 0.5 1.0625 0.5q0.59375 0 1.15625 -0.390625q0.578125 -0.390625 0.90625 -1.125zm-3.34375 -1.671875l3.78125 0q0 -0.171875 0 -0.25q0 -0.859375 -0.4375 -1.3125q-0.421875 -0.46875 -1.09375 -0.46875q-0.734375 0 -1.34375 0.515625q-0.609375 0.5 -0.90625 1.515625zm5.9124756 1.671875l1.140625 -0.078125q0 0.5 0.15625 0.84375q0.15625 0.34375 0.5625 0.578125q0.40625 0.21875 0.953125 0.21875q0.765625 0 1.140625 -0.296875q0.375 -0.3125 0.375 -0.734375q0 -0.296875 -0.21875 -0.5625q-0.234375 -0.265625 -1.15625 -0.65625q-0.90625 -0.390625 -1.15625 -0.546875q-0.421875 -0.265625 -0.640625 -0.609375q-0.21875 -0.359375 -0.21875 -0.8125q0 -0.796875 0.625 -1.359375q0.640625 -0.578125 1.78125 -0.578125q1.28125 0 1.9375 0.59375q0.671875 0.578125 0.6875 1.53125l-1.125 0.078125q-0.015625 -0.609375 -0.421875 -0.953125q-0.40625 -0.359375 -1.15625 -0.359375q-0.59375 0 -0.921875 0.28125q-0.328125 0.265625 -0.328125 0.578125q0 0.3125 0.28125 0.5625q0.1875 0.15625 0.984375 0.5q1.3125 0.578125 1.65625 0.90625q0.546875 0.53125 0.546875 1.28125q0 0.5 -0.3125 0.984375q-0.296875 0.484375 -0.9375 0.78125q-0.625 0.28125 -1.484375 0.28125q-1.15625 0 -1.984375 -0.578125q-0.8125 -0.578125 -0.765625 -1.875z" fill-rule="nonzero"></path><path fill="#cc0000" d="m125.01837 113.71129l0 0c0 -4.426979 3.581726 -8.015747 8.0 -8.015747l0 0c2.1217346 0 4.1565704 0.84451294 5.6568604 2.3477554c1.5002899 1.5032425 2.3431396 3.5420837 2.3431396 5.6679916l0 0c0 4.4269714 -3.581726 8.015747 -8.0 8.015747l0 0c-4.418274 0 -8.0 -3.5887756 -8.0 -8.015747z" fill-rule="nonzero"></path><path stroke="#000000" stroke-width="1.0" stroke-linejoin="round" stroke-linecap="butt" d="m125.01837 113.71129l0 0c0 -4.426979 3.581726 -8.015747 8.0 -8.015747l0 0c2.1217346 0 4.1565704 0.84451294 5.6568604 2.3477554c1.5002899 1.5032425 2.3431396 3.5420837 2.3431396 5.6679916l0 0c0 4.4269714 -3.581726 8.015747 -8.0 8.015747l0 0c-4.418274 0 -8.0 -3.5887756 -8.0 -8.015747z" fill-rule="nonzero"></path><path fill="#6fa8dc" d="m175.51968 57.318897l0 0c0 -4.4269753 3.581726 -8.015747 8.0 -8.015747l0 0c2.1217346 0 4.1565704 0.84451294 5.6568604 2.3477592c1.5002899 1.5032425 2.3431396 3.54208 2.3431396 5.667988l0 0c0 4.4269753 -3.581726 8.015751 -8.0 8.015751l0 0c-4.418274 0 -8.0 -3.5887756 -8.0 -8.015751z" fill-rule="nonzero"></path><path stroke="#000000" stroke-width="1.0" stroke-linejoin="round" stroke-linecap="butt" d="m175.51968 57.318897l0 0c0 -4.4269753 3.581726 -8.015747 8.0 -8.015747l0 0c2.1217346 0 4.1565704 0.84451294 5.6568604 2.3477592c1.5002899 1.5032425 2.3431396 3.54208 2.3431396 5.667988l0 0c0 4.4269753 -3.581726 8.015751 -8.0 8.015751l0 0c-4.418274 0 -8.0 -3.5887756 -8.0 -8.015751z" fill-rule="nonzero"></path><path fill="#ffffff" d="m170.51181 11.501312l7.5013123 0l0 0l11.251968 0l26.254593 0l0 12.530184l0 0l0 5.370079l0 3.5800533l-26.254593 0l-5.7910156 9.519646l-5.4609528 -9.519646l-7.5013123 0l0 -3.5800533l0 -5.370079l0 0z" fill-rule="nonzero"></path><path stroke="#000000" stroke-width="1.0" stroke-linejoin="round" stroke-linecap="butt" d="m170.51181 11.501312l7.5013123 0l0 0l11.251968 0l26.254593 0l0 12.530184l0 0l0 5.370079l0 3.5800533l-26.254593 0l-5.7910156 9.519646l-5.4609528 -9.519646l-7.5013123 0l0 -3.5800533l0 -5.370079l0 0z" fill-rule="nonzero"></path><path fill="#000000" d="m185.25911 25.98147l-0.96875 0l0 -6.15625q-0.34375 0.328125 -0.90625 0.671875q-0.5625 0.328125 -1.015625 0.484375l0 -0.9375q0.8125 -0.375 1.40625 -0.90625q0.609375 -0.546875 0.859375 -1.0625l0.625 0l0 7.90625zm2.8327484 0l0 -1.09375l1.09375 0l0 1.09375l-1.09375 0zm2.4137726 -3.890625q0 -1.390625 0.28125 -2.234375q0.296875 -0.859375 0.859375 -1.3125q0.578125 -0.46875 1.4375 -0.46875q0.625 0 1.09375 0.265625q0.484375 0.25 0.796875 0.734375q0.3125 0.46875 0.484375 1.171875q0.1875 0.6875 0.1875 1.84375q0 1.390625 -0.296875 2.25q-0.28125 0.84375 -0.84375 1.3125q-0.5625 0.46875 -1.421875 0.46875q-1.140625 0 -1.796875 -0.828125q-0.78125 -0.984375 -0.78125 -3.203125zm1.0 0q0 1.953125 0.453125 2.59375q0.453125 0.640625 1.125 0.640625q0.65625 0 1.109375 -0.640625q0.453125 -0.65625 0.453125 -2.59375q0 -1.9375 -0.453125 -2.578125q-0.453125 -0.640625 -1.125 -0.640625q-0.671875 0 -1.0625 0.5625q-0.5 0.71875 -0.5 2.65625zm5.4733734 3.890625l0 -1.09375l1.09375 0l0 1.09375l-1.09375 0zm6.0543976 0l-0.96875 0l0 -6.15625q-0.34375 0.328125 -0.90625 0.671875q-0.5625 0.328125 -1.015625 0.484375l0 -0.9375q0.8125 -0.375 1.40625 -0.90625q0.609375 -0.546875 0.859375 -1.0625l0.625 0l0 7.90625z" fill-rule="nonzero"></path><path fill="#000000" fill-opacity="0.0" d="m141.01837 113.71129c21.244095 0 42.48819 -24.18898 42.48819 -48.377953" fill-rule="nonzero"></path><path stroke="#ffffff" stroke-width="1.0" stroke-linejoin="round" stroke-linecap="butt" d="m141.01837 113.71129c10.622055 0 21.244095 -6.047249 29.210632 -15.118111c3.983261 -4.5354385 7.302658 -9.826775 9.626236 -15.496063c1.1617737 -2.8346481 2.0746155 -5.7637787 2.6970062 -8.740158c0.15559387 -0.74409485 0.29301453 -1.4911423 0.41166687 -2.2404022c0.029663086 -0.1873169 0.058151245 -0.37477112 0.08544922 -0.56235504l0.032821655 -0.23589325" fill-rule="evenodd"></path><path fill="#ffffff" stroke="#ffffff" stroke-width="1.0" stroke-linecap="butt" d="m184.72978 71.435135l-1.3266144 -4.6435623l-1.9685822 4.4099045z" fill-rule="evenodd"></path><path fill="#000000" fill-opacity="0.0" d="m141.01837 113.71129c53.244095 0 106.48819 30.251968 106.48819 60.503937" fill-rule="nonzero"></path><path stroke="#ffffff" stroke-width="1.0" stroke-linejoin="round" stroke-linecap="butt" d="m141.01837 113.71129c26.622055 0 53.244095 7.5629883 73.21063 18.90747c9.983261 5.6722565 18.302658 12.289871 24.126236 19.380173c2.9117737 3.5451508 5.1996155 7.208481 6.759506 10.930893c0.38996887 0.930603 0.73443604 1.8648987 1.031784 2.8019562c0.14868164 0.46853638 0.2855835 0.9377594 0.41049194 1.4075623c0.062469482 0.2348938 0.121902466 0.46995544 0.17835999 0.7051239c0.028213501 0.11758423 0.05569458 0.23519897 0.0823822 0.3528595l0.012390137 0.056152344" fill-rule="evenodd"></path><path fill="#ffffff" stroke="#ffffff" stroke-width="1.0" stroke-linecap="butt" d="m245.18895 168.43968l2.1528015 4.3229523l1.1295929 -4.6953735z" fill-rule="evenodd"></path><path fill="#ffffff" d="m106.27559 134.49081l15.0813675 0l11.886833 -9.490883l10.735214 9.490883l52.784775 0l0 4.6666718l0 0l0 7.0l0 16.333328l-52.784775 0l-22.622047 0l0 0l-15.0813675 0l0 -16.333328l0 -7.0l0 0z" fill-rule="nonzero"></path><path stroke="#000000" stroke-width="1.0" stroke-linejoin="round" stroke-linecap="butt" d="m106.27559 134.49081l15.0813675 0l11.886833 -9.490883l10.735214 9.490883l52.784775 0l0 4.6666718l0 0l0 7.0l0 16.333328l-52.784775 0l-22.622047 0l0 0l-15.0813675 0l0 -16.333328l0 -7.0l0 0z" fill-rule="nonzero"></path><path fill="#000000" d="m116.08809 145.73082l0 -7.875l2.953125 0q0.890625 0 1.4375 0.25q0.546875 0.234375 0.859375 0.734375q0.3125 0.484375 0.3125 1.03125q0 0.5 -0.28125 0.953125q-0.265625 0.4375 -0.828125 0.71875q0.71875 0.203125 1.09375 0.71875q0.390625 0.5 0.390625 1.1875q0 0.546875 -0.234375 1.03125q-0.234375 0.46875 -0.578125 0.734375q-0.34375 0.25 -0.859375 0.390625q-0.515625 0.125 -1.265625 0.125l-3.0 0zm1.03125 -4.5625l1.703125 0q0.703125 0 1.0 -0.09375q0.390625 -0.125 0.59375 -0.390625q0.203125 -0.28125 0.203125 -0.6875q0 -0.390625 -0.1875 -0.6875q-0.1875 -0.296875 -0.546875 -0.40625q-0.34375 -0.109375 -1.1875 -0.109375l-1.578125 0l0 2.375zm0 3.640625l1.96875 0q0.5 0 0.703125 -0.046875q0.359375 -0.0625 0.59375 -0.203125q0.25 -0.15625 0.40625 -0.4375q0.15625 -0.296875 0.15625 -0.671875q0 -0.4375 -0.234375 -0.765625q-0.21875 -0.328125 -0.625 -0.453125q-0.390625 -0.140625 -1.140625 -0.140625l-1.828125 0l0 2.71875zm9.7326355 0.921875l0 -0.84375q-0.671875 0.96875 -1.8125 0.96875q-0.5 0 -0.953125 -0.1875q-0.4375 -0.203125 -0.65625 -0.484375q-0.203125 -0.296875 -0.28125 -0.71875q-0.0625 -0.28125 -0.0625 -0.90625l0 -3.53125l0.96875 0l0 3.15625q0 0.765625 0.0625 1.03125q0.09375 0.375 0.375 0.59375q0.296875 0.21875 0.734375 0.21875q0.4375 0 0.8125 -0.21875q0.390625 -0.234375 0.546875 -0.609375q0.15625 -0.390625 0.15625 -1.109375l0 -3.0625l0.96875 0l0 5.703125l-0.859375 0zm2.0046234 0.46875l0.9375 0.140625q0.0625 0.4375 0.328125 0.640625q0.359375 0.265625 0.984375 0.265625q0.671875 0 1.03125 -0.265625q0.375 -0.265625 0.5 -0.75q0.078125 -0.296875 0.078125 -1.25q-0.640625 0.75 -1.59375 0.75q-1.171875 0 -1.8125 -0.84375q-0.640625 -0.859375 -0.640625 -2.046875q0 -0.8125 0.296875 -1.5q0.296875 -0.6875 0.84375 -1.0625q0.5625 -0.375 1.328125 -0.375q1.0 0 1.65625 0.8125l0 -0.6875l0.890625 0l0 4.921875q0 1.34375 -0.265625 1.890625q-0.265625 0.5625 -0.859375 0.875q-0.59375 0.328125 -1.453125 0.328125q-1.015625 0 -1.640625 -0.46875q-0.625 -0.453125 -0.609375 -1.375zm0.796875 -3.421875q0 1.125 0.4375 1.640625q0.453125 0.515625 1.125 0.515625q0.671875 0 1.125 -0.515625q0.453125 -0.515625 0.453125 -1.609375q0 -1.046875 -0.46875 -1.578125q-0.46875 -0.53125 -1.125 -0.53125q-0.640625 0 -1.09375 0.53125q-0.453125 0.515625 -0.453125 1.546875zm8.277771 -3.8125l0 -1.109375l0.96875 0l0 1.109375l-0.96875 0zm0 6.765625l0 -5.703125l0.96875 0l0 5.703125l-0.96875 0zm2.3518524 0l0 -5.703125l0.875 0l0 0.796875q0.265625 -0.421875 0.703125 -0.671875q0.453125 -0.25 1.015625 -0.25q0.640625 0 1.046875 0.265625q0.40625 0.25 0.578125 0.734375q0.671875 -1.0 1.75 -1.0q0.859375 0 1.3125 0.46875q0.453125 0.46875 0.453125 1.4375l0 3.921875l-0.953125 0l0 -3.59375q0 -0.578125 -0.09375 -0.828125q-0.09375 -0.265625 -0.34375 -0.421875q-0.25 -0.15625 -0.578125 -0.15625q-0.609375 0 -1.015625 0.40625q-0.390625 0.40625 -0.390625 1.28125l0 3.3125l-0.96875 0l0 -3.703125q0 -0.640625 -0.234375 -0.96875q-0.234375 -0.328125 -0.765625 -0.328125q-0.40625 0 -0.765625 0.21875q-0.34375 0.21875 -0.5 0.640625q-0.15625 0.40625 -0.15625 1.1875l0 2.953125l-0.96875 0zm8.8767395 2.1875l0 -7.890625l0.890625 0l0 0.734375q0.3125 -0.421875 0.703125 -0.640625q0.390625 -0.21875 0.953125 -0.21875q0.71875 0 1.28125 0.375q0.5625 0.375 0.84375 1.0625q0.28125 0.671875 0.28125 1.5q0 0.875 -0.3125 1.578125q-0.3125 0.6875 -0.921875 1.0625q-0.59375 0.375 -1.25 0.375q-0.484375 0 -0.875 -0.203125q-0.375 -0.203125 -0.625 -0.515625l0 2.78125l-0.96875 0zm0.875 -5.0q0 1.09375 0.453125 1.625q0.453125 0.515625 1.078125 0.515625q0.640625 0 1.09375 -0.53125q0.46875 -0.546875 0.46875 -1.703125q0 -1.078125 -0.453125 -1.625q-0.4375 -0.546875 -1.0625 -0.546875q-0.625 0 -1.109375 0.578125q-0.46875 0.578125 -0.46875 1.6875zm4.6921234 -0.046875q0 -1.578125 0.890625 -2.34375q0.734375 -0.625 1.796875 -0.625q1.171875 0 1.90625 0.765625q0.75 0.765625 0.75 2.125q0 1.109375 -0.328125 1.75q-0.328125 0.625 -0.96875 0.96875q-0.625 0.34375 -1.359375 0.34375q-1.203125 0 -1.953125 -0.765625q-0.734375 -0.765625 -0.734375 -2.21875zm1.0 0q0 1.109375 0.46875 1.65625q0.484375 0.53125 1.21875 0.53125q0.71875 0 1.1875 -0.546875q0.484375 -0.546875 0.484375 -1.671875q0 -1.046875 -0.484375 -1.59375q-0.484375 -0.546875 -1.1875 -0.546875q-0.734375 0 -1.21875 0.546875q-0.46875 0.53125 -0.46875 1.625zm5.2858734 2.859375l0 -5.703125l0.859375 0l0 0.859375q0.34375 -0.609375 0.625 -0.796875q0.28125 -0.1875 0.609375 -0.1875q0.5 0 1.0 0.3125l-0.328125 0.890625q-0.359375 -0.203125 -0.71875 -0.203125q-0.3125 0 -0.5625 0.1875q-0.25 0.1875 -0.359375 0.53125q-0.15625 0.515625 -0.15625 1.125l0 2.984375l-0.96875 0zm5.6736145 -0.859375l0.125 0.84375q-0.40625 0.09375 -0.71875 0.09375q-0.53125 0 -0.828125 -0.171875q-0.28125 -0.171875 -0.40625 -0.4375q-0.109375 -0.265625 -0.109375 -1.140625l0 -3.28125l-0.71875 0l0 -0.75l0.71875 0l0 -1.40625l0.953125 -0.59375l0 2.0l0.984375 0l0 0.75l-0.984375 0l0 3.34375q0 0.40625 0.046875 0.53125q0.0625 0.109375 0.171875 0.1875q0.125 0.0625 0.328125 0.0625q0.171875 0 0.4375 -0.03125zm4.5700226 0.15625q-0.546875 0.453125 -1.046875 0.640625q-0.484375 0.1875 -1.0625 0.1875q-0.9375 0 -1.453125 -0.453125q-0.5 -0.46875 -0.5 -1.171875q0 -0.421875 0.1875 -0.765625q0.203125 -0.34375 0.5 -0.546875q0.3125 -0.21875 0.703125 -0.328125q0.28125 -0.078125 0.859375 -0.140625q1.171875 -0.140625 1.71875 -0.34375q0.015625 -0.1875 0.015625 -0.25q0 -0.59375 -0.28125 -0.828125q-0.359375 -0.328125 -1.09375 -0.328125q-0.6875 0 -1.015625 0.234375q-0.3125 0.234375 -0.46875 0.84375l-0.953125 -0.125q0.125 -0.609375 0.421875 -0.984375q0.296875 -0.375 0.859375 -0.5625q0.5625 -0.203125 1.296875 -0.203125q0.734375 0 1.1875 0.171875q0.453125 0.171875 0.65625 0.4375q0.21875 0.25 0.3125 0.640625q0.046875 0.25 0.046875 0.90625l0 1.28125q0 1.34375 0.0625 1.703125q0.0625 0.359375 0.25 0.6875l-1.015625 0q-0.15625 -0.296875 -0.1875 -0.703125zm-0.09375 -2.15625q-0.515625 0.21875 -1.578125 0.359375q-0.59375 0.09375 -0.84375 0.203125q-0.234375 0.09375 -0.375 0.3125q-0.140625 0.203125 -0.140625 0.453125q0 0.390625 0.296875 0.65625q0.296875 0.25 0.859375 0.25q0.5625 0 0.984375 -0.25q0.4375 -0.25 0.65625 -0.671875q0.140625 -0.328125 0.140625 -0.96875l0 -0.34375zm2.2858734 2.859375l0 -5.703125l0.875 0l0 0.8125q0.625 -0.9375 1.8125 -0.9375q0.515625 0 0.953125 0.1875q0.4375 0.171875 0.640625 0.484375q0.21875 0.296875 0.3125 0.703125q0.046875 0.28125 0.046875 0.953125l0 3.5l-0.96875 0l0 -3.46875q0 -0.59375 -0.109375 -0.875q-0.109375 -0.296875 -0.40625 -0.46875q-0.28125 -0.1875 -0.671875 -0.1875q-0.609375 0 -1.0625 0.390625q-0.453125 0.390625 -0.453125 1.5l0 3.109375l-0.96875 0zm8.051498 -0.859375l0.125 0.84375q-0.40625 0.09375 -0.71875 0.09375q-0.53125 0 -0.828125 -0.171875q-0.28125 -0.171875 -0.40625 -0.4375q-0.109375 -0.265625 -0.109375 -1.140625l0 -3.28125l-0.71875 0l0 -0.75l0.71875 0l0 -1.40625l0.953125 -0.59375l0 2.0l0.984375 0l0 0.75l-0.984375 0l0 3.34375q0 0.40625 0.046875 0.53125q0.0625 0.109375 0.171875 0.1875q0.125 0.0625 0.328125 0.0625q0.171875 0 0.4375 -0.03125z" fill-rule="nonzero"></path><path fill="#000000" d="m119.90059 156.88707l1.0 0.125q-0.234375 0.875 -0.875 1.359375q-0.640625 0.484375 -1.625 0.484375q-1.25 0 -1.984375 -0.765625q-0.734375 -0.765625 -0.734375 -2.15625q0 -1.453125 0.734375 -2.234375q0.75 -0.796875 1.921875 -0.796875q1.15625 0 1.875 0.78125q0.71875 0.765625 0.71875 2.1875q0 0.078125 0 0.25l-4.25 0q0.046875 0.9375 0.515625 1.4375q0.484375 0.5 1.203125 0.5q0.53125 0 0.90625 -0.265625q0.375 -0.28125 0.59375 -0.90625zm-3.171875 -1.5625l3.1875 0q-0.0625 -0.71875 -0.359375 -1.078125q-0.46875 -0.546875 -1.203125 -0.546875q-0.671875 0 -1.125 0.453125q-0.453125 0.4375 -0.5 1.171875zm5.1921234 3.40625l0 -5.703125l0.875 0l0 0.8125q0.625 -0.9375 1.8125 -0.9375q0.515625 0 0.953125 0.1875q0.4375 0.171875 0.640625 0.484375q0.21875 0.296875 0.3125 0.703125q0.046875 0.28125 0.046875 0.953125l0 3.5l-0.96875 0l0 -3.46875q0 -0.59375 -0.109375 -0.875q-0.109375 -0.296875 -0.40625 -0.46875q-0.28125 -0.1875 -0.671875 -0.1875q-0.609375 0 -1.0625 0.390625q-0.453125 0.390625 -0.453125 1.5l0 3.109375l-0.96875 0zm8.887146 2.1875l0 -7.890625l0.890625 0l0 0.734375q0.3125 -0.421875 0.703125 -0.640625q0.390625 -0.21875 0.953125 -0.21875q0.71875 0 1.28125 0.375q0.5625 0.375 0.84375 1.0625q0.28125 0.671875 0.28125 1.5q0 0.875 -0.3125 1.578125q-0.3125 0.6875 -0.921875 1.0625q-0.59375 0.375 -1.25 0.375q-0.484375 0 -0.875 -0.203125q-0.375 -0.203125 -0.625 -0.515625l0 2.78125l-0.96875 0zm0.875 -5.0q0 1.09375 0.453125 1.625q0.453125 0.515625 1.078125 0.515625q0.640625 0 1.09375 -0.53125q0.46875 -0.546875 0.46875 -1.703125q0 -1.078125 -0.453125 -1.625q-0.4375 -0.546875 -1.0625 -0.546875q-0.625 0 -1.109375 0.578125q-0.46875 0.578125 -0.46875 1.6875zm5.0514984 2.8125l0 -5.703125l0.859375 0l0 0.859375q0.34375 -0.609375 0.625 -0.796875q0.28125 -0.1875 0.609375 -0.1875q0.5 0 1.0 0.3125l-0.328125 0.890625q-0.359375 -0.203125 -0.71875 -0.203125q-0.3125 0 -0.5625 0.1875q-0.25 0.1875 -0.359375 0.53125q-0.15625 0.515625 -0.15625 1.125l0 2.984375l-0.96875 0zm3.1892395 -2.859375q0 -1.578125 0.890625 -2.34375q0.734375 -0.625 1.796875 -0.625q1.171875 0 1.90625 0.765625q0.75 0.765625 0.75 2.125q0 1.109375 -0.328125 1.75q-0.328125 0.625 -0.96875 0.96875q-0.625 0.34375 -1.359375 0.34375q-1.203125 0 -1.953125 -0.765625q-0.734375 -0.765625 -0.734375 -2.21875zm1.0 0q0 1.109375 0.46875 1.65625q0.484375 0.53125 1.21875 0.53125q0.71875 0 1.1875 -0.546875q0.484375 -0.546875 0.484375 -1.671875q0 -1.046875 -0.484375 -1.59375q-0.484375 -0.546875 -1.1875 -0.546875q-0.734375 0 -1.21875 0.546875q-0.46875 0.53125 -0.46875 1.625zm8.988998 2.859375l0 -0.71875q-0.53125 0.84375 -1.59375 0.84375q-0.671875 0 -1.25 -0.375q-0.578125 -0.375 -0.890625 -1.046875q-0.3125 -0.671875 -0.3125 -1.546875q0 -0.859375 0.28125 -1.546875q0.296875 -0.703125 0.859375 -1.0625q0.5625 -0.375 1.265625 -0.375q0.515625 0 0.921875 0.21875q0.40625 0.21875 0.65625 0.5625l0 -2.828125l0.96875 0l0 7.875l-0.90625 0zm-3.046875 -2.84375q0 1.09375 0.453125 1.640625q0.46875 0.53125 1.09375 0.53125q0.640625 0 1.078125 -0.515625q0.4375 -0.515625 0.4375 -1.578125q0 -1.171875 -0.453125 -1.71875q-0.4375 -0.546875 -1.109375 -0.546875q-0.640625 0 -1.078125 0.53125q-0.421875 0.515625 -0.421875 1.65625z" fill-rule="nonzero"></path><path fill="#f1c232" d="m239.51968 182.2231l0 0c0 -4.4269714 3.581726 -8.015747 8.0 -8.015747l0 0c2.1217346 0 4.1565704 0.84451294 5.6568604 2.347763c1.5002899 1.5032349 2.3431396 3.5420685 2.3431396 5.667984l0 0c0 4.4269714 -3.581726 8.015747 -8.0 8.015747l0 0c-4.418274 0 -8.0 -3.5887756 -8.0 -8.015747z" fill-rule="nonzero"></path><path stroke="#000000" stroke-width="1.0" stroke-linejoin="round" stroke-linecap="butt" d="m239.51968 182.2231l0 0c0 -4.4269714 3.581726 -8.015747 8.0 -8.015747l0 0c2.1217346 0 4.1565704 0.84451294 5.6568604 2.347763c1.5002899 1.5032349 2.3431396 3.5420685 2.3431396 5.667984l0 0c0 4.4269714 -3.581726 8.015747 -8.0 8.015747l0 0c-4.418274 0 -8.0 -3.5887756 -8.0 -8.015747z" fill-rule="nonzero"></path><path fill="#f1c232" d="m335.51968 182.2231l0 0c0 -4.4269714 3.581726 -8.015747 8.0 -8.015747l0 0c2.1217346 0 4.156555 0.84451294 5.6568604 2.347763c1.5002747 1.5032349 2.3431396 3.5420685 2.3431396 5.667984l0 0c0 4.4269714 -3.581726 8.015747 -8.0 8.015747l0 0c-4.418274 0 -8.0 -3.5887756 -8.0 -8.015747z" fill-rule="nonzero"></path><path stroke="#000000" stroke-width="1.0" stroke-linejoin="round" stroke-linecap="butt" d="m335.51968 182.2231l0 0c0 -4.4269714 3.581726 -8.015747 8.0 -8.015747l0 0c2.1217346 0 4.156555 0.84451294 5.6568604 2.347763c1.5002747 1.5032349 2.3431396 3.5420685 2.3431396 5.667984l0 0c0 4.4269714 -3.581726 8.015747 -8.0 8.015747l0 0c-4.418274 0 -8.0 -3.5887756 -8.0 -8.015747z" fill-rule="nonzero"></path><path fill="#f1c232" d="m369.76642 182.2231l0 0c0 -4.4269714 3.5816956 -8.015747 8.0 -8.015747l0 0c2.121704 0 4.156555 0.84451294 5.65683 2.347763c1.5003052 1.5032349 2.3431702 3.5420685 2.3431702 5.667984l0 0c0 4.4269714 -3.581726 8.015747 -8.0 8.015747l0 0c-4.4183044 0 -8.0 -3.5887756 -8.0 -8.015747z" fill-rule="nonzero"></path><path stroke="#000000" stroke-width="1.0" stroke-linejoin="round" stroke-linecap="butt" d="m369.76642 182.2231l0 0c0 -4.4269714 3.5816956 -8.015747 8.0 -8.015747l0 0c2.121704 0 4.156555 0.84451294 5.65683 2.347763c1.5003052 1.5032349 2.3431702 3.5420685 2.3431702 5.667984l0 0c0 4.4269714 -3.581726 8.015747 -8.0 8.015747l0 0c-4.4183044 0 -8.0 -3.5887756 -8.0 -8.015747z" fill-rule="nonzero"></path><path fill="#f1c232" d="m406.24933 182.2231l0 0c0 -4.4269714 3.581726 -8.015747 8.0 -8.015747l0 0c2.1217346 0 4.1565857 0.84451294 5.6568604 2.347763c1.5003052 1.5032349 2.3431396 3.5420685 2.3431396 5.667984l0 0c0 4.4269714 -3.5816956 8.015747 -8.0 8.015747l0 0c-4.418274 0 -8.0 -3.5887756 -8.0 -8.015747z" fill-rule="nonzero"></path><path stroke="#000000" stroke-width="1.0" stroke-linejoin="round" stroke-linecap="butt" d="m406.24933 182.2231l0 0c0 -4.4269714 3.581726 -8.015747 8.0 -8.015747l0 0c2.1217346 0 4.1565857 0.84451294 5.6568604 2.347763c1.5003052 1.5032349 2.3431396 3.5420685 2.3431396 5.667984l0 0c0 4.4269714 -3.5816956 8.015747 -8.0 8.015747l0 0c-4.418274 0 -8.0 -3.5887756 -8.0 -8.015747z" fill-rule="nonzero"></path><path fill="#f1c232" d="m447.25723 182.2231l0 0c0 -4.4269714 3.5816956 -8.015747 8.0 -8.015747l0 0c2.121704 0 4.156555 0.84451294 5.65683 2.347763c1.5003052 1.5032349 2.3431702 3.5420685 2.3431702 5.667984l0 0c0 4.4269714 -3.581726 8.015747 -8.0 8.015747l0 0c-4.4183044 0 -8.0 -3.5887756 -8.0 -8.015747z" fill-rule="nonzero"></path><path stroke="#000000" stroke-width="1.0" stroke-linejoin="round" stroke-linecap="butt" d="m447.25723 182.2231l0 0c0 -4.4269714 3.5816956 -8.015747 8.0 -8.015747l0 0c2.121704 0 4.156555 0.84451294 5.65683 2.347763c1.5003052 1.5032349 2.3431702 3.5420685 2.3431702 5.667984l0 0c0 4.4269714 -3.581726 8.015747 -8.0 8.015747l0 0c-4.4183044 0 -8.0 -3.5887756 -8.0 -8.015747z" fill-rule="nonzero"></path><path fill="#000000" fill-opacity="0.0" d="m89.519684 57.318897c21.500069 0 32.24816 0.01574707 43.000137 0.031497955c10.751968 0.01574707 21.507797 0.03149414 43.01561 0.03149414" fill-rule="nonzero"></path><path stroke="#ffffff" stroke-width="1.0" stroke-linejoin="round" stroke-linecap="butt" d="m89.519684 57.318897c21.500061 0 32.24817 0.01574707 43.000137 0.031497955c5.3759766 0.007873535 10.75293 0.01574707 17.474365 0.021652222c3.3607178 0.0029525757 7.057541 0.0054130554 11.258453 0.0071372986l8.282791 0.0015678406" fill-rule="evenodd"></path><path fill="#ffffff" stroke="#ffffff" stroke-width="1.0" stroke-linecap="butt" d="m169.53513 59.032486l4.5384064 -1.6508751l-4.537781 -1.6525917z" fill-rule="evenodd"></path><path fill="#000000" fill-opacity="0.0" d="m111.519684 182.2231c4.0 0 6.0 0.01574707 8.0 0.03149414c2.0 0.01574707 4.0 0.03149414 8.0 0.03149414" fill-rule="nonzero"></path><path stroke="#ffffff" stroke-width="1.0" stroke-linejoin="round" stroke-linecap="butt" d="m111.519684 182.2231c4.0 0 6.0 0.01574707 8.0 0.03149414l2.0000305 0.013336182" fill-rule="evenodd"></path><path fill="#ffffff" stroke="#ffffff" stroke-width="1.0" stroke-linecap="butt" d="m121.51471 183.91965l4.543083 -1.6379852l-4.533081 -1.6654663z" fill-rule="evenodd"></path><path fill="#000000" fill-opacity="0.0" d="m143.51968 182.2231c4.0 0 6.0 0.01574707 8.0 0.03149414c2.0 0.01574707 4.0 0.03149414 8.0 0.03149414" fill-rule="nonzero"></path><path stroke="#ffffff" stroke-width="1.0" stroke-linejoin="round" stroke-linecap="butt" d="m143.51968 182.2231c4.0 0 6.0 0.01574707 8.0 0.03149414l2.0000305 0.013336182" fill-rule="evenodd"></path><path fill="#ffffff" stroke="#ffffff" stroke-width="1.0" stroke-linecap="butt" d="m153.51471 183.91965l4.5430756 -1.6379852l-4.533066 -1.6654663z" fill-rule="evenodd"></path><path fill="#000000" fill-opacity="0.0" d="m175.51968 182.2126c4.0 0 6.0 0.01574707 8.0 0.03149414c2.0 0.01574707 4.0 0.03149414 8.0 0.03149414" fill-rule="nonzero"></path><path stroke="#ffffff" stroke-width="1.0" stroke-linejoin="round" stroke-linecap="butt" d="m175.51968 182.2126c4.0 0 6.0 0.01574707 8.0 0.03149414l2.0000153 0.013320923" fill-rule="evenodd"></path><path fill="#ffffff" stroke="#ffffff" stroke-width="1.0" stroke-linecap="butt" d="m185.51471 183.90915l4.5430756 -1.6379852l-4.533066 -1.6654663z" fill-rule="evenodd"></path><path fill="#000000" fill-opacity="0.0" d="m207.51968 182.2231c8.0 0 12.0 0.01574707 16.0 0.03149414c4.0 0.01574707 8.0 0.03149414 16.0 0.03149414" fill-rule="nonzero"></path><path stroke="#ffffff" stroke-width="1.0" stroke-linejoin="round" stroke-linecap="butt" d="m207.51968 182.2231c8.0 0 12.0 0.01574707 16.0 0.03149414c2.0 0.007873535 4.0 0.01574707 6.5 0.021652222l3.5 0.0059661865" fill-rule="evenodd"></path><path fill="#ffffff" stroke="#ffffff" stroke-width="1.0" stroke-linecap="butt" d="m233.51862 183.93394l4.5391693 -1.6488037l-4.537033 -1.6546631z" fill-rule="evenodd"></path><path fill="#000000" fill-opacity="0.0" d="m255.51968 182.2231c8.0 0 12.0 0.01574707 16.0 0.03149414c4.0 0.01574707 8.0 0.03149414 16.0 0.03149414" fill-rule="nonzero"></path><path stroke="#ffffff" stroke-width="1.0" stroke-linejoin="round" stroke-linecap="butt" d="m255.51968 182.2231c8.0 0 12.0 0.01574707 16.0 0.03149414c2.0 0.007873535 4.0 0.01574707 6.5 0.021652222l3.5 0.0059661865" fill-rule="evenodd"></path><path fill="#ffffff" stroke="#ffffff" stroke-width="1.0" stroke-linecap="butt" d="m281.51862 183.93394l4.539154 -1.6488037l-4.537018 -1.6546631z" fill-rule="evenodd"></path><path fill="#000000" fill-opacity="0.0" d="m303.51968 182.2231c8.0 0 12.0 0.01574707 16.0 0.03149414c4.0 0.01574707 8.0 0.03149414 16.0 0.03149414" fill-rule="nonzero"></path><path stroke="#ffffff" stroke-width="1.0" stroke-linejoin="round" stroke-linecap="butt" d="m303.51968 182.2231c8.0 0 12.0 0.01574707 16.0 0.03149414c2.0 0.007873535 4.0 0.01574707 6.5 0.021652222l3.5 0.0059661865" fill-rule="evenodd"></path><path fill="#ffffff" stroke="#ffffff" stroke-width="1.0" stroke-linecap="butt" d="m329.51862 183.93394l4.539154 -1.6488037l-4.537018 -1.6546631z" fill-rule="evenodd"></path><path fill="#000000" fill-opacity="0.0" d="m351.51968 182.2231c4.5617065 0 6.843872 0.01574707 9.123413 0.03149414c2.2795105 0.01574707 4.5563965 0.03149414 9.1128235 0.03149414" fill-rule="nonzero"></path><path stroke="#ffffff" stroke-width="1.0" stroke-linejoin="round" stroke-linecap="butt" d="m351.51968 182.2231c4.561676 0 6.843872 0.01574707 9.123413 0.03149414l3.1128235 0.018203735" fill-rule="evenodd"></path><path fill="#ffffff" stroke="#ffffff" stroke-width="1.0" stroke-linecap="butt" d="m363.75226 183.92453l4.541748 -1.6416779l-4.534424 -1.661789z" fill-rule="evenodd"></path><path fill="#000000" fill-opacity="0.0" d="m385.76642 182.2231c5.120758 0 7.6824646 0.01574707 10.241516 0.03149414c2.559082 0.01574707 5.115448 0.03149414 10.230896 0.03149414" fill-rule="nonzero"></path><path stroke="#ffffff" stroke-width="1.0" stroke-linejoin="round" stroke-linecap="butt" d="m385.76642 182.2231c5.120758 0 7.682495 0.01574707 10.241547 0.03149414c1.2795105 0.007873535 2.5583801 0.01574707 4.156769 0.021652222l0.07409668 2.1362305E-4" fill-rule="evenodd"></path><path fill="#ffffff" stroke="#ffffff" stroke-width="1.0" stroke-linecap="butt" d="m400.2362 183.92818l4.540741 -1.6444397l-4.535431 -1.6590271z" fill-rule="evenodd"></path><path fill="#000000" fill-opacity="0.0" d="m422.24933 182.2231c6.2519836 0 9.37796 0.01574707 12.503967 0.03149414c3.1259766 0.01574707 6.251953 0.03149414 12.503937 0.03149414" fill-rule="nonzero"></path><path stroke="#ffffff" stroke-width="1.0" stroke-linejoin="round" stroke-linecap="butt" d="m422.24933 182.2231c6.2519836 0 9.37796 0.01574707 12.503967 0.03149414c1.5629883 0.007873535 3.1259766 0.01574707 5.079712 0.021652222l1.4242249 0.0030975342" fill-rule="evenodd"></path><path fill="#ffffff" stroke="#ffffff" stroke-width="1.0" stroke-linecap="butt" d="m441.25537 183.93108l4.5399475 -1.6466217l-4.536255 -1.6568298z" fill-rule="evenodd"></path><path fill="#f1c232" d="m504.2756 182.2231l0 0c0 -4.4269714 3.5816956 -8.015747 7.9999695 -8.015747l0 0c2.1217651 0 4.156555 0.84451294 5.6568604 2.347763c1.5003052 1.5032349 2.3431396 3.5420685 2.3431396 5.667984l0 0c0 4.4269714 -3.581726 8.015747 -8.0 8.015747l0 0c-4.418274 0 -7.9999695 -3.5887756 -7.9999695 -8.015747z" fill-rule="nonzero"></path><path stroke="#000000" stroke-width="1.0" stroke-linejoin="round" stroke-linecap="butt" d="m504.2756 182.2231l0 0c0 -4.4269714 3.5816956 -8.015747 7.9999695 -8.015747l0 0c2.1217651 0 4.156555 0.84451294 5.6568604 2.347763c1.5003052 1.5032349 2.3431396 3.5420685 2.3431396 5.667984l0 0c0 4.4269714 -3.581726 8.015747 -8.0 8.015747l0 0c-4.418274 0 -7.9999695 -3.5887756 -7.9999695 -8.015747z" fill-rule="nonzero"></path><path fill="#f1c232" d="m587.01575 182.25328l0 0c0 -4.4269714 3.581726 -8.015747 8.0 -8.015747l0 0c2.121704 0 4.156555 0.84451294 5.6568604 2.347763c1.5003052 1.5032349 2.3431396 3.5420685 2.3431396 5.667984l0 0c0 4.4269714 -3.581726 8.015747 -8.0 8.015747l0 0c-4.418274 0 -8.0 -3.5887756 -8.0 -8.015747z" fill-rule="nonzero"></path><path stroke="#000000" stroke-width="1.0" stroke-linejoin="round" stroke-linecap="butt" d="m587.01575 182.25328l0 0c0 -4.4269714 3.581726 -8.015747 8.0 -8.015747l0 0c2.121704 0 4.156555 0.84451294 5.6568604 2.347763c1.5003052 1.5032349 2.3431396 3.5420685 2.3431396 5.667984l0 0c0 4.4269714 -3.581726 8.015747 -8.0 8.015747l0 0c-4.418274 0 -8.0 -3.5887756 -8.0 -8.015747z" fill-rule="nonzero"></path><path fill="#000000" fill-opacity="0.0" d="m463.25723 182.2231c10.254608 0 15.38327 0.01574707 20.509247 0.03149414c5.1259766 0.01574707 10.249298 0.03149414 20.498627 0.03149414" fill-rule="nonzero"></path><path stroke="#ffffff" stroke-width="1.0" stroke-linejoin="round" stroke-linecap="butt" d="m463.25723 182.2231c10.254608 0 15.38327 0.01574707 20.509247 0.03149414c2.5629883 0.007873535 5.1253357 0.01574707 8.328064 0.021652222c1.6013489 0.002960205 3.362854 0.00541687 5.364563 0.0071411133l0.80599976 3.2043457E-4" fill-rule="evenodd"></path><path fill="#ffffff" stroke="#ffffff" stroke-width="1.0" stroke-linecap="butt" d="m498.26443 183.93544l4.5387573 -1.6499329l-4.537445 -1.6535339z" fill-rule="evenodd"></path><path fill="#000000" fill-opacity="0.0" d="m520.2756 182.2231c5.8189087 0 8.728394 0.01574707 11.637817 0.03149414c2.9094238 0.01574707 5.8189087 0.03149414 11.637817 0.03149414" fill-rule="nonzero"></path><path stroke="#ffffff" stroke-width="1.0" stroke-linejoin="round" stroke-linecap="butt" d="m520.2756 182.2231c5.8189087 0 8.728394 0.01574707 11.637817 0.03149414c1.4547119 0.007873535 2.9094238 0.01574707 4.727844 0.021652222l0.90997314 0.0021362305" fill-rule="evenodd"></path><path fill="#ffffff" stroke="#ffffff" stroke-width="1.0" stroke-linecap="butt" d="m537.5491 183.93011l4.540222 -1.6459045l-4.5360107 -1.6575623z" fill-rule="evenodd"></path><path fill="#000000" fill-opacity="0.0" d="m87.17654 62.98689c0 11.2641945 11.456696 17.189808 22.913391 22.528393c11.456688 5.3385773 22.913383 10.090134 22.913383 20.180267" fill-rule="nonzero"></path><path stroke="#ffffff" stroke-width="1.0" stroke-linejoin="round" stroke-linecap="butt" d="m87.17654 62.986885c0 11.264198 11.456696 17.189812 22.913391 22.528397c5.728348 2.6692886 11.456688 5.191818 15.752953 8.308304c2.1481247 1.5582352 3.9382324 3.2649536 5.1913147 5.212761c0.15663147 0.24347687 0.30488586 0.4907074 0.4443817 0.7418976l0.053588867 0.10045624" fill-rule="evenodd"></path><path fill="#ffffff" stroke="#ffffff" stroke-width="1.0" stroke-linecap="butt" d="m129.93086 100.28368l2.7140045 3.9945831l0.48861694 -4.804558z" fill-rule="evenodd"></path><path fill="#000000" fill-opacity="0.0" d="m11.0 57.255905c15.629921 0 23.444881 0.01574707 31.259842 0.031497955c7.8149605 0.01574707 15.629921 0.03149414 31.259842 0.03149414" fill-rule="nonzero"></path><path stroke="#ffffff" stroke-width="1.0" stroke-linejoin="round" stroke-linecap="butt" stroke-dasharray="4.0,3.0" d="m11.0 57.255905c15.629921 0 23.444881 0.01574707 31.259842 0.031497955c3.9074821 0.007873535 7.8149605 0.01574707 12.69931 0.021652222c2.4421768 0.0029525757 5.1285706 0.0054130554 8.18129 0.0071372986l4.379242 0.0011405945" fill-rule="evenodd"></path><path fill="#ffffff" stroke="#ffffff" stroke-width="1.0" stroke-linecap="butt" d="m67.51926 58.969067l4.5385284 -1.6505508l-4.5376663 -1.652916z" fill-rule="evenodd"></path><path fill="#f1c232" d="m644.0341 182.2546l0 0c0 -4.4269714 3.581726 -8.015747 8.0 -8.015747l0 0c2.121704 0 4.156555 0.84451294 5.6568604 2.347763c1.5003052 1.5032349 2.3431396 3.5420685 2.3431396 5.667984l0 0c0 4.4269714 -3.581726 8.015747 -8.0 8.015747l0 0c-4.418274 0 -8.0 -3.5887756 -8.0 -8.015747z" fill-rule="nonzero"></path><path stroke="#000000" stroke-width="1.0" stroke-linejoin="round" stroke-linecap="butt" d="m644.0341 182.2546l0 0c0 -4.4269714 3.581726 -8.015747 8.0 -8.015747l0 0c2.121704 0 4.156555 0.84451294 5.6568604 2.347763c1.5003052 1.5032349 2.3431396 3.5420685 2.3431396 5.667984l0 0c0 4.4269714 -3.581726 8.015747 -8.0 8.015747l0 0c-4.418274 0 -8.0 -3.5887756 -8.0 -8.015747z" fill-rule="nonzero"></path><path fill="#f1c232" d="m543.5512 182.25328l0 0c0 -4.4269714 3.581665 -8.015747 8.0 -8.015747l0 0c2.121704 0 4.156555 0.84451294 5.6567993 2.347763c1.5003052 1.5032349 2.3432007 3.5420685 2.3432007 5.667984l0 0c0 4.4269714 -3.581726 8.015747 -8.0 8.015747l0 0c-4.418335 0 -8.0 -3.5887756 -8.0 -8.015747z" fill-rule="nonzero"></path><path stroke="#000000" stroke-width="1.0" stroke-linejoin="round" stroke-linecap="butt" d="m543.5512 182.25328l0 0c0 -4.4269714 3.581665 -8.015747 8.0 -8.015747l0 0c2.121704 0 4.156555 0.84451294 5.6567993 2.347763c1.5003052 1.5032349 2.3432007 3.5420685 2.3432007 5.667984l0 0c0 4.4269714 -3.581726 8.015747 -8.0 8.015747l0 0c-4.418335 0 -8.0 -3.5887756 -8.0 -8.015747z" fill-rule="nonzero"></path><path fill="#000000" fill-opacity="0.0" d="m559.5512 182.25328c6.866089 0 10.299194 0.01574707 13.732239 0.03149414c3.4331055 0.01574707 6.86615 0.03149414 13.7323 0.03149414" fill-rule="nonzero"></path><path stroke="#ffffff" stroke-width="1.0" stroke-linejoin="round" stroke-linecap="butt" d="m559.5512 182.25328c6.866089 0 10.299194 0.01574707 13.732239 0.03149414c1.7165527 0.007873535 3.4331055 0.01574707 5.5787354 0.021652222l2.1535645 0.0042877197" fill-rule="evenodd"></path><path fill="#ffffff" stroke="#ffffff" stroke-width="1.0" stroke-linecap="butt" d="m581.0142 183.96243l4.539612 -1.647522l-4.53656 -1.6559296z" fill-rule="evenodd"></path><path fill="#000000" fill-opacity="0.0" d="m603.01575 182.25328c10.254639 0 15.383301 0.01574707 20.509277 0.03149414c5.1259766 0.01574707 10.249268 0.03149414 20.498596 0.03149414" fill-rule="nonzero"></path><path stroke="#ffffff" stroke-width="1.0" stroke-linejoin="round" stroke-linecap="butt" d="m603.01575 182.25328c10.254639 0 15.383301 0.01574707 20.509277 0.03149414c2.5629883 0.007873535 5.125305 0.01574707 8.328064 0.021652222c1.6013794 0.002960205 3.362854 0.00541687 5.364563 0.0071411133l0.80596924 3.2043457E-4" fill-rule="evenodd"></path><path fill="#ffffff" stroke="#ffffff" stroke-width="1.0" stroke-linecap="butt" d="m638.02295 183.96562l4.5387573 -1.6499329l-4.5374146 -1.6535339z" fill-rule="evenodd"></path><path fill="#000000" fill-opacity="0.0" d="m191.51968 57.318897c116.299225 0 174.44882 0.01574707 232.59842 0.031497955c58.149628 0.01574707 116.299194 0.03149414 232.59845 0.03149414" fill-rule="nonzero"></path><path stroke="#ffffff" stroke-width="1.0" stroke-linejoin="round" stroke-linecap="butt" d="m191.51968 57.318897c116.299225 0 174.44882 0.01574707 232.59842 0.031497955c29.074799 0.007873535 58.149628 0.01574707 94.4931 0.021652222c18.171753 0.0029525757 38.160706 0.0054130554 60.875366 0.0071372986l71.22998 0.002494812" fill-rule="evenodd"></path><path fill="#ffffff" stroke="#ffffff" stroke-width="1.0" stroke-linecap="butt" d="m650.7165 59.033413l4.538147 -1.6515732l-4.538025 -1.6518936z" fill-rule="evenodd"></path></g></svg>

