<?xml version="1.0" standalone="yes"?>

<svg version="1.1" viewBox="0.0 0.0 687.2913385826772 236.79265091863516" fill="none" stroke="none" stroke-linecap="square" stroke-miterlimit="10" xmlns="http://www.w3.org/2000/svg" xmlns:xlink="http://www.w3.org/1999/xlink"><clipPath id="p.0"><path d="m0 0l687.2913 0l0 236.79265l-687.2913 0l0 -236.79265z" clip-rule="nonzero"></path></clipPath><g clip-path="url(#p.0)"><path fill="#000000" fill-opacity="0.0" d="m0 0l687.2913 0l0 236.79265l-687.2913 0z" fill-rule="nonzero"></path><path fill="#000000" fill-opacity="0.0" d="m68.63301 25.32021l608.8819 0" fill-rule="nonzero"></path><path stroke="#666666" stroke-width="1.0" stroke-linejoin="round" stroke-linecap="butt" d="m68.63301 25.32021l602.8819 0" fill-rule="evenodd"></path><path fill="#666666" stroke="#666666" stroke-width="1.0" stroke-linecap="butt" d="m671.5149 26.971943l4.538086 -1.6517334l-4.538086 -1.6517315z" fill-rule="evenodd"></path><path fill="#000000" fill-opacity="0.0" d="m0 -8.503937l85.00787 0l0 32.283463l-85.00787 0z" fill-rule="nonzero"></path><path fill="#ffffff" d="m9.984375 7.5591884l2.03125 0l0 1.1250005q1.078125 -1.3125005 2.578125 -1.3125005q0.796875 0 1.375 0.328125q0.59375 0.32812548 0.96875 0.9843755q0.546875 -0.65625 1.171875 -0.9843755q0.640625 -0.328125 1.359375 -0.328125q0.921875 0 1.546875 0.375q0.640625 0.35937548 0.953125 1.0781255q0.21875 0.53125 0.21875 1.71875l0 5.3125l-2.1875 0l0 -4.75q0 -1.234375 -0.234375 -1.59375q-0.296875 -0.46875 -0.9375 -0.46875q-0.453125 0 -0.859375 0.28125q-0.40625 0.28125 -0.59375 0.828125q-0.171875 0.546875 -0.171875 1.71875l0 3.984375l-2.203125 0l0 -4.546875q0 -1.21875 -0.125 -1.5625q-0.109375 -0.359375 -0.359375 -0.53125q-0.234375 -0.171875 -0.65625 -0.171875q-0.515625 0 -0.921875 0.28125q-0.40625 0.265625 -0.578125 0.78125q-0.171875 0.515625 -0.171875 1.71875l0 4.03125l-2.203125 0l0 -8.296875zm16.039062 2.5312505l-2.0 -0.359375q0.34375 -1.203125 1.15625 -1.7812505q0.828125 -0.578125 2.4375 -0.578125q1.46875 0 2.1875 0.34375q0.71875 0.34375048 1.015625 0.8906255q0.296875 0.53125 0.296875 1.953125l-0.03125 2.5625q0 1.09375 0.109375 1.625q0.109375 0.515625 0.390625 1.109375l-2.171875 0q-0.078125 -0.21875 -0.203125 -0.65625q-0.0625 -0.1875 -0.078125 -0.25q-0.5625 0.546875 -1.203125 0.828125q-0.640625 0.265625 -1.375 0.265625q-1.28125 0 -2.015625 -0.6875q-0.734375 -0.703125 -0.734375 -1.765625q0 -0.703125 0.328125 -1.25q0.34375 -0.5625 0.9375 -0.84375q0.609375 -0.296875 1.75 -0.515625q1.546875 -0.296875 2.140625 -0.546875l0 -0.21875q0 -0.625 -0.3125 -0.890625q-0.3125 -0.28125 -1.1875 -0.28125q-0.578125 0 -0.90625 0.234375q-0.328125 0.234375 -0.53125 0.8125zm2.9375 1.78125q-0.421875 0.140625 -1.34375 0.34375q-0.90625 0.1875 -1.1875 0.375q-0.4375 0.296875 -0.4375 0.765625q0 0.46875 0.34375 0.8125q0.34375 0.328125 0.875 0.328125q0.59375 0 1.140625 -0.390625q0.390625 -0.296875 0.515625 -0.734375q0.09375 -0.28125 0.09375 -1.0625l0 -0.4375zm3.5390625 1.609375l2.203125 -0.328125q0.140625 0.640625 0.5625 0.96875q0.4375 0.328125 1.21875 0.328125q0.84375 0 1.28125 -0.3125q0.28125 -0.21875 0.28125 -0.578125q0 -0.25 -0.15625 -0.421875q-0.15625 -0.15625 -0.734375 -0.28125q-2.65625 -0.59375 -3.359375 -1.078125q-0.984375 -0.671875 -0.984375 -1.859375q0 -1.078125 0.84375 -1.8125q0.859375 -0.7343755 2.640625 -0.7343755q1.703125 0 2.53125 0.5625q0.828125 0.5468755 1.140625 1.6250005l-2.0625 0.390625q-0.140625 -0.484375 -0.515625 -0.734375q-0.359375 -0.265625 -1.046875 -0.265625q-0.875 0 -1.25 0.234375q-0.25 0.171875 -0.25 0.453125q0 0.234375 0.21875 0.390625q0.296875 0.21875 2.046875 0.625q1.765625 0.390625 2.453125 0.96875q0.6875 0.59375 0.6875 1.640625q0 1.140625 -0.953125 1.96875q-0.953125 0.8125 -2.8125 0.8125q-1.703125 0 -2.6875 -0.6875q-0.984375 -0.6875 -1.296875 -1.875zm13.4765625 -5.9218755l0 1.7500005l-1.5 0l0 3.34375q0 1.015625 0.046875 1.1875q0.046875 0.15625 0.1875 0.265625q0.15625 0.109375 0.375 0.109375q0.3125 0 0.890625 -0.203125l0.1875 1.703125q-0.765625 0.328125 -1.734375 0.328125q-0.59375 0 -1.078125 -0.203125q-0.46875 -0.203125 -0.703125 -0.515625q-0.21875 -0.3125 -0.296875 -0.859375q-0.078125 -0.375 -0.078125 -1.546875l0 -3.609375l-1.0 0l0 -1.7500005l1.0 0l0 -1.65625l2.203125 -1.28125l0 2.9375l1.5 0zm6.328125 5.6562505l2.1875 0.359375q-0.421875 1.203125 -1.328125 1.84375q-0.90625 0.625 -2.28125 0.625q-2.15625 0 -3.203125 -1.421875q-0.8125 -1.125 -0.8125 -2.859375q0 -2.0625 1.078125 -3.21875q1.078125 -1.1718755 2.71875 -1.1718755q1.859375 0 2.921875 1.2187505q1.078125 1.21875 1.03125 3.75l-5.5 0q0.015625 0.96875 0.515625 1.515625q0.515625 0.546875 1.28125 0.546875q0.515625 0 0.859375 -0.28125q0.359375 -0.28125 0.53125 -0.90625zm0.125 -2.21875q-0.015625 -0.953125 -0.484375 -1.453125q-0.46875 -0.5 -1.140625 -0.5q-0.71875 0 -1.1875 0.53125q-0.46875 0.515625 -0.46875 1.421875l3.28125 0zm6.0703125 4.859375l-2.1875 0l0 -8.296875l2.03125 0l0 1.1718755q0.53125 -0.8281255 0.9375 -1.0937505q0.421875 -0.265625 0.953125 -0.265625q0.75 0 1.453125 0.40625l-0.6875 1.9218755q-0.546875 -0.359375 -1.03125 -0.359375q-0.453125 0 -0.78125 0.25q-0.3125 0.25 -0.5 0.921875q-0.1875 0.65625 -0.1875 2.78125l0 2.5625z" fill-rule="nonzero"></path><path fill="#000000" fill-opacity="0.0" d="m10.0 94.22404l667.49603 0" fill-rule="nonzero"></path><path stroke="#999999" stroke-width="1.0" stroke-linejoin="round" stroke-linecap="butt" d="m10.0 94.22404l661.49603 0" fill-rule="evenodd"></path><path fill="#999999" stroke="#999999" stroke-width="1.0" stroke-linecap="butt" d="m671.49603 95.87577l4.538147 -1.6517334l-4.538147 -1.6517258z" fill-rule="evenodd"></path><path fill="#000000" fill-opacity="0.0" d="m0 59.72441l85.00787 0l0 34.48819l-85.00787 0z" fill-rule="nonzero"></path><path fill="#ffffff" d="m17.765625 84.08441l-2.046875 0l0 -1.21875q-0.5 0.703125 -1.203125 1.0625q-0.6875 0.34375 -1.390625 0.34375q-1.421875 0 -2.453125 -1.15625q-1.015625 -1.15625 -1.015625 -3.21875q0 -2.109375 0.984375 -3.203125q1.0 -1.09375 2.515625 -1.09375q1.390625 0 2.40625 1.15625l0 -4.125l2.203125 0l0 11.453125zm-5.859375 -4.328125q0 1.328125 0.359375 1.921875q0.53125 0.859375 1.484375 0.859375q0.765625 0 1.296875 -0.640625q0.53125 -0.65625 0.53125 -1.9375q0 -1.421875 -0.515625 -2.046875q-0.515625 -0.640625 -1.328125 -0.640625q-0.78125 0 -1.3125 0.625q-0.515625 0.625 -0.515625 1.859375zm12.8203125 1.6875l2.1875 0.359375q-0.421875 1.203125 -1.328125 1.84375q-0.90625 0.625 -2.28125 0.625q-2.15625 0 -3.203125 -1.421875q-0.8125 -1.125 -0.8125 -2.859375q0 -2.0625 1.078125 -3.21875q1.078125 -1.171875 2.71875 -1.171875q1.859375 0 2.921875 1.21875q1.078125 1.21875 1.03125 3.75l-5.5 0q0.015625 0.96875 0.515625 1.515625q0.515625 0.546875 1.28125 0.546875q0.515625 0 0.859375 -0.28125q0.359375 -0.28125 0.53125 -0.90625zm0.125 -2.21875q-0.015625 -0.953125 -0.484375 -1.453125q-0.46875 -0.5 -1.140625 -0.5q-0.71875 0 -1.1875 0.53125q-0.46875 0.515625 -0.46875 1.421875l3.28125 0zm6.2578125 4.859375l-3.34375 -8.296875l2.296875 0l1.5625 4.234375l0.453125 1.40625q0.1875 -0.53125 0.234375 -0.703125q0.109375 -0.359375 0.234375 -0.703125l1.578125 -4.234375l2.25 0l-3.296875 8.296875l-1.96875 0zm11.4140625 -2.640625l2.1875 0.359375q-0.421875 1.203125 -1.328125 1.84375q-0.90625 0.625 -2.28125 0.625q-2.15625 0 -3.203125 -1.421875q-0.8125 -1.125 -0.8125 -2.859375q0 -2.0625 1.078125 -3.21875q1.078125 -1.171875 2.71875 -1.171875q1.859375 0 2.921875 1.21875q1.078125 1.21875 1.03125 3.75l-5.5 0q0.015625 0.96875 0.515625 1.515625q0.515625 0.546875 1.28125 0.546875q0.515625 0 0.859375 -0.28125q0.359375 -0.28125 0.53125 -0.90625zm0.125 -2.21875q-0.015625 -0.953125 -0.484375 -1.453125q-0.46875 -0.5 -1.140625 -0.5q-0.71875 0 -1.1875 0.53125q-0.46875 0.515625 -0.46875 1.421875l3.28125 0zm3.9765625 4.859375l0 -11.453125l2.1875 0l0 11.453125l-2.1875 0zm3.9296875 -4.265625q0 -1.09375 0.53125 -2.109375q0.546875 -1.03125 1.53125 -1.5625q1.0 -0.546875 2.21875 -0.546875q1.875 0 3.078125 1.21875q1.203125 1.21875 1.203125 3.09375q0 1.875 -1.21875 3.125q-1.203125 1.234375 -3.046875 1.234375q-1.140625 0 -2.1875 -0.515625q-1.03125 -0.515625 -1.578125 -1.515625q-0.53125 -1.0 -0.53125 -2.421875zm2.25 0.109375q0 1.234375 0.578125 1.890625q0.59375 0.65625 1.453125 0.65625q0.859375 0 1.4375 -0.65625q0.59375 -0.65625 0.59375 -1.90625q0 -1.21875 -0.59375 -1.875q-0.578125 -0.65625 -1.4375 -0.65625q-0.859375 0 -1.453125 0.65625q-0.578125 0.65625 -0.578125 1.890625zm7.9765625 -4.140625l2.046875 0l0 1.21875q0.390625 -0.625 1.0625 -1.015625q0.6875 -0.390625 1.515625 -0.390625q1.453125 0 2.453125 1.140625q1.015625 1.125 1.015625 3.140625q0 2.078125 -1.015625 3.234375q-1.015625 1.15625 -2.46875 1.15625q-0.6875 0 -1.25 -0.265625q-0.546875 -0.28125 -1.171875 -0.953125l0 4.1875l-2.1875 0l0 -11.453125zm2.171875 4.0q0 1.40625 0.546875 2.078125q0.5625 0.65625 1.359375 0.65625q0.765625 0 1.265625 -0.609375q0.515625 -0.609375 0.515625 -2.015625q0 -1.296875 -0.53125 -1.921875q-0.515625 -0.640625 -1.296875 -0.640625q-0.796875 0 -1.328125 0.625q-0.53125 0.609375 -0.53125 1.828125z" fill-rule="nonzero"></path><path fill="#6fa8dc" d="m73.519684 25.318897l0 0c0 -4.4269753 3.581726 -8.015747 8.0 -8.015747l0 0c2.1217346 0 4.156563 0.84451294 5.6568527 2.3477573c1.5002975 1.5032444 2.3431473 3.5420818 2.3431473 5.6679897l0 0c0 4.4269753 -3.5817184 8.015747 -8.0 8.015747l0 0c-4.418274 0 -8.0 -3.5887718 -8.0 -8.015747z" fill-rule="nonzero"></path><path stroke="#000000" stroke-width="1.0" stroke-linejoin="round" stroke-linecap="butt" d="m73.519684 25.318897l0 0c0 -4.4269753 3.581726 -8.015747 8.0 -8.015747l0 0c2.1217346 0 4.156563 0.84451294 5.6568527 2.3477573c1.5002975 1.5032444 2.3431473 3.5420818 2.3431473 5.6679897l0 0c0 4.4269753 -3.5817184 8.015747 -8.0 8.015747l0 0c-4.418274 0 -8.0 -3.5887718 -8.0 -8.015747z" fill-rule="nonzero"></path><path fill="#f1c232" d="m95.519684 94.2231l0 0c0 -4.426979 3.581726 -8.015747 8.0 -8.015747l0 0c2.1217346 0 4.156563 0.84451294 5.6568527 2.3477554c1.5002975 1.5032425 2.3431473 3.5420837 2.3431473 5.6679916l0 0c0 4.4269714 -3.5817184 8.015747 -8.0 8.015747l0 0c-4.418274 0 -8.0 -3.5887756 -8.0 -8.015747z" fill-rule="nonzero"></path><path stroke="#000000" stroke-width="1.0" stroke-linejoin="round" stroke-linecap="butt" d="m95.519684 94.2231l0 0c0 -4.426979 3.581726 -8.015747 8.0 -8.015747l0 0c2.1217346 0 4.156563 0.84451294 5.6568527 2.3477554c1.5002975 1.5032425 2.3431473 3.5420837 2.3431473 5.6679916l0 0c0 4.4269714 -3.5817184 8.015747 -8.0 8.015747l0 0c-4.418274 0 -8.0 -3.5887756 -8.0 -8.015747z" fill-rule="nonzero"></path><path fill="#000000" fill-opacity="0.0" d="m81.519684 33.334644c0 13.218094 5.503937 19.82595 11.007874 26.436188c5.503937 6.6102333 11.007874 13.222851 11.007874 26.445705" fill-rule="nonzero"></path><path stroke="#ffffff" stroke-width="1.0" stroke-linejoin="round" stroke-linecap="butt" d="m81.519684 33.334644c0 13.218094 5.503937 19.825954 11.007874 26.436188c2.7519684 3.3051186 5.503937 6.6108284 7.567917 10.743122c1.03199 2.0661469 1.8919754 4.338928 2.4939728 6.9216156c0.15049744 0.645668 0.28486633 1.3107071 0.40177917 1.996727c0.029220581 0.17150879 0.05735016 0.3443222 0.084373474 0.5184784l0.041381836 0.28037262" fill-rule="evenodd"></path><path fill="#ffffff" stroke="#ffffff" stroke-width="1.0" stroke-linecap="butt" d="m101.46928 80.34634l1.9642029 4.4118576l1.3312149 -4.6422424z" fill-rule="evenodd"></path><path fill="#f1c232" d="m127.519684 94.2231l0 0c0 -4.426979 3.581726 -8.015747 8.0 -8.015747l0 0c2.1217346 0 4.1565704 0.84451294 5.6568604 2.3477554c1.5002899 1.5032425 2.3431396 3.5420837 2.3431396 5.6679916l0 0c0 4.4269714 -3.581726 8.015747 -8.0 8.015747l0 0c-4.418274 0 -8.0 -3.5887756 -8.0 -8.015747z" fill-rule="nonzero"></path><path stroke="#000000" stroke-width="1.0" stroke-linejoin="round" stroke-linecap="butt" d="m127.519684 94.2231l0 0c0 -4.426979 3.581726 -8.015747 8.0 -8.015747l0 0c2.1217346 0 4.1565704 0.84451294 5.6568604 2.3477554c1.5002899 1.5032425 2.3431396 3.5420837 2.3431396 5.6679916l0 0c0 4.4269714 -3.581726 8.015747 -8.0 8.015747l0 0c-4.418274 0 -8.0 -3.5887756 -8.0 -8.015747z" fill-rule="nonzero"></path><path fill="#f1c232" d="m159.51968 94.2126l0 0c0 -4.426979 3.581726 -8.015747 8.0 -8.015747l0 0c2.1217346 0 4.1565704 0.84451294 5.6568604 2.3477554c1.5002899 1.5032425 2.3431396 3.5420837 2.3431396 5.6679916l0 0c0 4.4269714 -3.581726 8.015747 -8.0 8.015747l0 0c-4.418274 0 -8.0 -3.5887756 -8.0 -8.015747z" fill-rule="nonzero"></path><path stroke="#000000" stroke-width="1.0" stroke-linejoin="round" stroke-linecap="butt" d="m159.51968 94.2126l0 0c0 -4.426979 3.581726 -8.015747 8.0 -8.015747l0 0c2.1217346 0 4.1565704 0.84451294 5.6568604 2.3477554c1.5002899 1.5032425 2.3431396 3.5420837 2.3431396 5.6679916l0 0c0 4.4269714 -3.581726 8.015747 -8.0 8.015747l0 0c-4.418274 0 -8.0 -3.5887756 -8.0 -8.015747z" fill-rule="nonzero"></path><path fill="#f1c232" d="m191.51968 94.2231l0 0c0 -4.426979 3.581726 -8.015747 8.0 -8.015747l0 0c2.1217346 0 4.1565704 0.84451294 5.6568604 2.3477554c1.5002899 1.5032425 2.3431396 3.5420837 2.3431396 5.6679916l0 0c0 4.4269714 -3.581726 8.015747 -8.0 8.015747l0 0c-4.418274 0 -8.0 -3.5887756 -8.0 -8.015747z" fill-rule="nonzero"></path><path stroke="#000000" stroke-width="1.0" stroke-linejoin="round" stroke-linecap="butt" d="m191.51968 94.2231l0 0c0 -4.426979 3.581726 -8.015747 8.0 -8.015747l0 0c2.1217346 0 4.1565704 0.84451294 5.6568604 2.3477554c1.5002899 1.5032425 2.3431396 3.5420837 2.3431396 5.6679916l0 0c0 4.4269714 -3.581726 8.015747 -8.0 8.015747l0 0c-4.418274 0 -8.0 -3.5887756 -8.0 -8.015747z" fill-rule="nonzero"></path><path fill="#f1c232" d="m287.51968 94.2231l0 0c0 -4.426979 3.581726 -8.015747 8.0 -8.015747l0 0c2.1217346 0 4.156555 0.84451294 5.6568604 2.3477554c1.5002747 1.5032425 2.3431396 3.5420837 2.3431396 5.6679916l0 0c0 4.4269714 -3.581726 8.015747 -8.0 8.015747l0 0c-4.418274 0 -8.0 -3.5887756 -8.0 -8.015747z" fill-rule="nonzero"></path><path stroke="#000000" stroke-width="1.0" stroke-linejoin="round" stroke-linecap="butt" d="m287.51968 94.2231l0 0c0 -4.426979 3.581726 -8.015747 8.0 -8.015747l0 0c2.1217346 0 4.156555 0.84451294 5.6568604 2.3477554c1.5002747 1.5032425 2.3431396 3.5420837 2.3431396 5.6679916l0 0c0 4.4269714 -3.581726 8.015747 -8.0 8.015747l0 0c-4.418274 0 -8.0 -3.5887756 -8.0 -8.015747z" fill-rule="nonzero"></path><path fill="#000000" fill-opacity="0.0" d="m10.0 164.21342l667.49603 0" fill-rule="nonzero"></path><path stroke="#666666" stroke-width="1.0" stroke-linejoin="round" stroke-linecap="butt" d="m10.0 164.21342l661.49603 0" fill-rule="evenodd"></path><path fill="#666666" stroke="#666666" stroke-width="1.0" stroke-linecap="butt" d="m671.49603 165.86516l4.538147 -1.6517334l-4.538147 -1.6517334z" fill-rule="evenodd"></path><path fill="#000000" fill-opacity="0.0" d="m0 131.92914l85.00787 0l0 32.283463l-85.00787 0z" fill-rule="nonzero"></path><path fill="#ffffff" d="m10.125 153.72913l0 -5.859375l-1.0 0l0 -0.875l1.0 0l0 -0.71875q0 -0.6875 0.125 -1.015625q0.171875 -0.4375 0.578125 -0.71875q0.421875 -0.28125 1.171875 -0.28125q0.484375 0 1.0625 0.125l-0.171875 0.984375q-0.359375 -0.0625 -0.671875 -0.0625q-0.515625 0 -0.734375 0.234375q-0.21875 0.21875 -0.21875 0.828125l0 0.625l1.3125 0l0 0.875l-1.3125 0l0 5.859375l-1.140625 0zm8.046738 -2.171875l1.1875 0.140625q-0.28125 1.046875 -1.046875 1.625q-0.75 0.5625 -1.921875 0.5625q-1.484375 0 -2.359375 -0.90625q-0.859375 -0.921875 -0.859375 -2.5625q0 -1.703125 0.875 -2.640625q0.890625 -0.9375 2.28125 -0.9375q1.359375 0 2.203125 0.921875q0.859375 0.921875 0.859375 2.578125q0 0.109375 0 0.3125l-5.03125 0q0.0625 1.109375 0.625 1.703125q0.5625 0.59375 1.40625 0.59375q0.640625 0 1.078125 -0.328125q0.453125 -0.34375 0.703125 -1.0625zm-3.75 -1.84375l3.765625 0q-0.078125 -0.859375 -0.4375 -1.28125q-0.546875 -0.65625 -1.40625 -0.65625q-0.796875 0 -1.328125 0.53125q-0.53125 0.515625 -0.59375 1.40625zm10.943726 3.1875q-0.625 0.53125 -1.21875 0.765625q-0.578125 0.21875 -1.25 0.21875q-1.125 0 -1.71875 -0.546875q-0.59375 -0.546875 -0.59375 -1.390625q0 -0.484375 0.21875 -0.890625q0.234375 -0.421875 0.59375 -0.671875q0.375 -0.25 0.828125 -0.375q0.328125 -0.078125 1.015625 -0.171875q1.375 -0.15625 2.03125 -0.390625q0.015625 -0.234375 0.015625 -0.296875q0 -0.703125 -0.328125 -0.984375q-0.4375 -0.390625 -1.296875 -0.390625q-0.8125 0 -1.203125 0.28125q-0.375 0.28125 -0.5625 1.0l-1.109375 -0.140625q0.140625 -0.71875 0.484375 -1.15625q0.359375 -0.453125 1.015625 -0.6875q0.671875 -0.234375 1.53125 -0.234375q0.875 0 1.40625 0.203125q0.546875 0.203125 0.796875 0.515625q0.25 0.296875 0.359375 0.765625q0.046875 0.296875 0.046875 1.0625l0 1.515625q0 1.59375 0.078125 2.015625q0.078125 0.421875 0.28125 0.8125l-1.1875 0q-0.171875 -0.359375 -0.234375 -0.828125zm-0.09375 -2.5625q-0.625 0.265625 -1.859375 0.4375q-0.703125 0.109375 -1.0 0.234375q-0.296875 0.125 -0.453125 0.375q-0.15625 0.234375 -0.15625 0.53125q0 0.453125 0.34375 0.765625q0.34375 0.296875 1.015625 0.296875q0.65625 0 1.171875 -0.28125q0.515625 -0.296875 0.765625 -0.796875q0.171875 -0.375 0.171875 -1.140625l0 -0.421875zm5.6156006 2.375l0.15625 1.0q-0.484375 0.109375 -0.859375 0.109375q-0.625 0 -0.96875 -0.203125q-0.34375 -0.203125 -0.484375 -0.515625q-0.140625 -0.328125 -0.140625 -1.34375l0 -3.890625l-0.828125 0l0 -0.875l0.828125 0l0 -1.671875l1.140625 -0.6875l0 2.359375l1.15625 0l0 0.875l-1.15625 0l0 3.953125q0 0.484375 0.0625 0.625q0.0625 0.140625 0.1875 0.21875q0.140625 0.078125 0.390625 0.078125q0.203125 0 0.515625 -0.03125zm5.6248627 1.015625l0 -0.984375q-0.796875 1.140625 -2.140625 1.140625q-0.59375 0 -1.125 -0.234375q-0.515625 -0.234375 -0.765625 -0.578125q-0.25 -0.34375 -0.34375 -0.84375q-0.078125 -0.328125 -0.078125 -1.0625l0 -4.171875l1.140625 0l0 3.734375q0 0.890625 0.078125 1.203125q0.109375 0.453125 0.453125 0.71875q0.34375 0.25 0.859375 0.25q0.515625 0 0.96875 -0.265625q0.453125 -0.265625 0.640625 -0.71875q0.1875 -0.453125 0.1875 -1.3125l0 -3.609375l1.140625 0l0 6.734375l-1.015625 0zm2.9749756 0l0 -6.734375l1.03125 0l0 1.015625q0.390625 -0.71875 0.71875 -0.9375q0.34375 -0.234375 0.734375 -0.234375q0.578125 0 1.171875 0.359375l-0.390625 1.0625q-0.421875 -0.25 -0.828125 -0.25q-0.375 0 -0.6875 0.234375q-0.296875 0.21875 -0.421875 0.625q-0.1875 0.609375 -0.1875 1.328125l0 3.53125l-1.140625 0zm9.06337 -2.171875l1.1875 0.140625q-0.28125 1.046875 -1.046875 1.625q-0.75 0.5625 -1.921875 0.5625q-1.484375 0 -2.359375 -0.90625q-0.859375 -0.921875 -0.859375 -2.5625q0 -1.703125 0.875 -2.640625q0.890625 -0.9375 2.28125 -0.9375q1.359375 0 2.203125 0.921875q0.859375 0.921875 0.859375 2.578125q0 0.109375 0 0.3125l-5.03125 0q0.0625 1.109375 0.625 1.703125q0.5625 0.59375 1.40625 0.59375q0.640625 0 1.078125 -0.328125q0.453125 -0.34375 0.703125 -1.0625zm-3.75 -1.84375l3.765625 0q-0.078125 -0.859375 -0.4375 -1.28125q-0.546875 -0.65625 -1.40625 -0.65625q-0.796875 0 -1.328125 0.53125q-0.53125 0.515625 -0.59375 1.40625zm14.240463 4.015625l-1.140625 0l0 -7.28125q-0.421875 0.390625 -1.09375 0.796875q-0.65625 0.390625 -1.1875 0.578125l0 -1.109375q0.953125 -0.4375 1.671875 -1.078125q0.71875 -0.640625 1.015625 -1.25l0.734375 0l0 9.34375z" fill-rule="nonzero"></path><path fill="#000000" fill-opacity="0.0" d="m10.0 218.74278l667.49603 0" fill-rule="nonzero"></path><path stroke="#666666" stroke-width="1.0" stroke-linejoin="round" stroke-linecap="butt" d="m10.0 218.74278l661.49603 0" fill-rule="evenodd"></path><path fill="#666666" stroke="#666666" stroke-width="1.0" stroke-linecap="butt" d="m671.49603 220.39452l4.538147 -1.6517334l-4.538147 -1.6517334z" fill-rule="evenodd"></path><path fill="#000000" fill-opacity="0.0" d="m0 184.50131l85.00787 0l0 34.48819l-85.00787 0z" fill-rule="nonzero"></path><path fill="#ffffff" d="m10.125 206.30132l0 -5.859375l-1.0 0l0 -0.875l1.0 0l0 -0.71875q0 -0.6875 0.125 -1.015625q0.171875 -0.4375 0.578125 -0.71875q0.421875 -0.28125 1.171875 -0.28125q0.484375 0 1.0625 0.125l-0.171875 0.984375q-0.359375 -0.0625 -0.671875 -0.0625q-0.515625 0 -0.734375 0.234375q-0.21875 0.21875 -0.21875 0.828125l0 0.625l1.3125 0l0 0.875l-1.3125 0l0 5.859375l-1.140625 0zm8.046738 -2.171875l1.1875 0.140625q-0.28125 1.046875 -1.046875 1.625q-0.75 0.5625 -1.921875 0.5625q-1.484375 0 -2.359375 -0.90625q-0.859375 -0.921875 -0.859375 -2.5625q0 -1.703125 0.875 -2.640625q0.890625 -0.9375 2.28125 -0.9375q1.359375 0 2.203125 0.921875q0.859375 0.921875 0.859375 2.578125q0 0.109375 0 0.3125l-5.03125 0q0.0625 1.109375 0.625 1.703125q0.5625 0.59375 1.40625 0.59375q0.640625 0 1.078125 -0.328125q0.453125 -0.34375 0.703125 -1.0625zm-3.75 -1.84375l3.765625 0q-0.078125 -0.859375 -0.4375 -1.28125q-0.546875 -0.65625 -1.40625 -0.65625q-0.796875 0 -1.328125 0.53125q-0.53125 0.515625 -0.59375 1.40625zm10.943726 3.1875q-0.625 0.53125 -1.21875 0.765625q-0.578125 0.21875 -1.25 0.21875q-1.125 0 -1.71875 -0.546875q-0.59375 -0.546875 -0.59375 -1.390625q0 -0.484375 0.21875 -0.890625q0.234375 -0.421875 0.59375 -0.671875q0.375 -0.25 0.828125 -0.375q0.328125 -0.078125 1.015625 -0.171875q1.375 -0.15625 2.03125 -0.390625q0.015625 -0.234375 0.015625 -0.296875q0 -0.703125 -0.328125 -0.984375q-0.4375 -0.390625 -1.296875 -0.390625q-0.8125 0 -1.203125 0.28125q-0.375 0.28125 -0.5625 1.0l-1.109375 -0.140625q0.140625 -0.71875 0.484375 -1.15625q0.359375 -0.453125 1.015625 -0.6875q0.671875 -0.234375 1.53125 -0.234375q0.875 0 1.40625 0.203125q0.546875 0.203125 0.796875 0.515625q0.25 0.296875 0.359375 0.765625q0.046875 0.296875 0.046875 1.0625l0 1.515625q0 1.59375 0.078125 2.015625q0.078125 0.421875 0.28125 0.8125l-1.1875 0q-0.171875 -0.359375 -0.234375 -0.828125zm-0.09375 -2.5625q-0.625 0.265625 -1.859375 0.4375q-0.703125 0.109375 -1.0 0.234375q-0.296875 0.125 -0.453125 0.375q-0.15625 0.234375 -0.15625 0.53125q0 0.453125 0.34375 0.765625q0.34375 0.296875 1.015625 0.296875q0.65625 0 1.171875 -0.28125q0.515625 -0.296875 0.765625 -0.796875q0.171875 -0.375 0.171875 -1.140625l0 -0.421875zm5.6156006 2.375l0.15625 1.0q-0.484375 0.109375 -0.859375 0.109375q-0.625 0 -0.96875 -0.203125q-0.34375 -0.203125 -0.484375 -0.515625q-0.140625 -0.328125 -0.140625 -1.34375l0 -3.890625l-0.828125 0l0 -0.875l0.828125 0l0 -1.671875l1.140625 -0.6875l0 2.359375l1.15625 0l0 0.875l-1.15625 0l0 3.953125q0 0.484375 0.0625 0.625q0.0625 0.140625 0.1875 0.21875q0.140625 0.078125 0.390625 0.078125q0.203125 0 0.515625 -0.03125zm5.6248627 1.015625l0 -0.984375q-0.796875 1.140625 -2.140625 1.140625q-0.59375 0 -1.125 -0.234375q-0.515625 -0.234375 -0.765625 -0.578125q-0.25 -0.34375 -0.34375 -0.84375q-0.078125 -0.328125 -0.078125 -1.0625l0 -4.171875l1.140625 0l0 3.734375q0 0.890625 0.078125 1.203125q0.109375 0.453125 0.453125 0.71875q0.34375 0.25 0.859375 0.25q0.515625 0 0.96875 -0.265625q0.453125 -0.265625 0.640625 -0.71875q0.1875 -0.453125 0.1875 -1.3125l0 -3.609375l1.140625 0l0 6.734375l-1.015625 0zm2.9749756 0l0 -6.734375l1.03125 0l0 1.015625q0.390625 -0.71875 0.71875 -0.9375q0.34375 -0.234375 0.734375 -0.234375q0.578125 0 1.171875 0.359375l-0.390625 1.0625q-0.421875 -0.25 -0.828125 -0.25q-0.375 0 -0.6875 0.234375q-0.296875 0.21875 -0.421875 0.625q-0.1875 0.609375 -0.1875 1.328125l0 3.53125l-1.140625 0zm9.06337 -2.171875l1.1875 0.140625q-0.28125 1.046875 -1.046875 1.625q-0.75 0.5625 -1.921875 0.5625q-1.484375 0 -2.359375 -0.90625q-0.859375 -0.921875 -0.859375 -2.5625q0 -1.703125 0.875 -2.640625q0.890625 -0.9375 2.28125 -0.9375q1.359375 0 2.203125 0.921875q0.859375 0.921875 0.859375 2.578125q0 0.109375 0 0.3125l-5.03125 0q0.0625 1.109375 0.625 1.703125q0.5625 0.59375 1.40625 0.59375q0.640625 0 1.078125 -0.328125q0.453125 -0.34375 0.703125 -1.0625zm-3.75 -1.84375l3.765625 0q-0.078125 -0.859375 -0.4375 -1.28125q-0.546875 -0.65625 -1.40625 -0.65625q-0.796875 0 -1.328125 0.53125q-0.53125 0.515625 -0.59375 1.40625zm15.943588 2.921875l0 1.09375l-6.15625 0q-0.015625 -0.40625 0.140625 -0.796875q0.234375 -0.625 0.75 -1.234375q0.515625 -0.609375 1.5 -1.40625q1.515625 -1.25 2.046875 -1.96875q0.53125 -0.734375 0.53125 -1.375q0 -0.6875 -0.484375 -1.140625q-0.484375 -0.46875 -1.265625 -0.46875q-0.828125 0 -1.328125 0.5q-0.484375 0.484375 -0.5 1.359375l-1.171875 -0.125q0.125 -1.3125 0.90625 -2.0q0.78125 -0.6875 2.109375 -0.6875q1.34375 0 2.125 0.75q0.78125 0.734375 0.78125 1.828125q0 0.5625 -0.234375 1.109375q-0.21875 0.53125 -0.75 1.140625q-0.53125 0.59375 -1.765625 1.625q-1.03125 0.859375 -1.328125 1.171875q-0.28125 0.3125 -0.46875 0.625l4.5625 0z" fill-rule="nonzero"></path><path fill="#e69138" d="m151.51968 218.74213l0 0c0 -4.4269714 3.581726 -8.015747 8.0 -8.015747l0 0c2.1217346 0 4.1565704 0.84451294 5.6568604 2.347763c1.5002899 1.5032349 2.3431396 3.5420685 2.3431396 5.667984l0 0c0 4.4269714 -3.581726 8.015747 -8.0 8.015747l0 0c-4.418274 0 -8.0 -3.5887756 -8.0 -8.015747z" fill-rule="nonzero"></path><path stroke="#000000" stroke-width="1.0" stroke-linejoin="round" stroke-linecap="butt" d="m151.51968 218.74213l0 0c0 -4.4269714 3.581726 -8.015747 8.0 -8.015747l0 0c2.1217346 0 4.1565704 0.84451294 5.6568604 2.347763c1.5002899 1.5032349 2.3431396 3.5420685 2.3431396 5.667984l0 0c0 4.4269714 -3.581726 8.015747 -8.0 8.015747l0 0c-4.418274 0 -8.0 -3.5887756 -8.0 -8.015747z" fill-rule="nonzero"></path><path fill="#000000" fill-opacity="0.0" d="m135.51968 102.238846c0 27.121902 6.0 40.684753 12.0 54.24382c6.0 13.5590515 12.0 27.114304 12.0 54.228622" fill-rule="nonzero"></path><path stroke="#ffffff" stroke-width="1.0" stroke-linejoin="round" stroke-linecap="butt" d="m135.51968 102.238846c0 27.121902 6.0 40.68477 12.0 54.24382c3.0 6.7795258 6.0 13.558105 8.25 22.031097c1.125 4.2364807 2.0625 8.896561 2.71875 14.192184c0.328125 2.647812 0.5859375 5.4544983 0.76171875 8.446564c0.043945312 0.74801636 0.08276367 1.5076141 0.11627197 2.2792053c0.01675415 0.38580322 0.032180786 0.7746124 0.04624939 1.1664581l0.003692627 0.11399841" fill-rule="evenodd"></path><path fill="#ffffff" stroke="#ffffff" stroke-width="1.0" stroke-linecap="butt" d="m157.76486 204.74062l1.7296448 4.5089874l1.5733337 -4.565872z" fill-rule="evenodd"></path><path fill="#e69138" d="m192.51968 218.74213l0 0c0 -4.4269714 3.581726 -8.015747 8.0 -8.015747l0 0c2.1217346 0 4.1565704 0.84451294 5.6568604 2.347763c1.5002899 1.5032349 2.3431396 3.5420685 2.3431396 5.667984l0 0c0 4.4269714 -3.581726 8.015747 -8.0 8.015747l0 0c-4.418274 0 -8.0 -3.5887756 -8.0 -8.015747z" fill-rule="nonzero"></path><path stroke="#000000" stroke-width="1.0" stroke-linejoin="round" stroke-linecap="butt" d="m192.51968 218.74213l0 0c0 -4.4269714 3.581726 -8.015747 8.0 -8.015747l0 0c2.1217346 0 4.1565704 0.84451294 5.6568604 2.347763c1.5002899 1.5032349 2.3431396 3.5420685 2.3431396 5.667984l0 0c0 4.4269714 -3.581726 8.015747 -8.0 8.015747l0 0c-4.418274 0 -8.0 -3.5887756 -8.0 -8.015747z" fill-rule="nonzero"></path><path fill="#e69138" d="m247.51968 218.74213l0 0c0 -4.4269714 3.581726 -8.015747 8.0 -8.015747l0 0c2.1217346 0 4.156555 0.84451294 5.6568604 2.347763c1.5002747 1.5032349 2.3431396 3.5420685 2.3431396 5.667984l0 0c0 4.4269714 -3.581726 8.015747 -8.0 8.015747l0 0c-4.418274 0 -8.0 -3.5887756 -8.0 -8.015747z" fill-rule="nonzero"></path><path stroke="#000000" stroke-width="1.0" stroke-linejoin="round" stroke-linecap="butt" d="m247.51968 218.74213l0 0c0 -4.4269714 3.581726 -8.015747 8.0 -8.015747l0 0c2.1217346 0 4.156555 0.84451294 5.6568604 2.347763c1.5002747 1.5032349 2.3431396 3.5420685 2.3431396 5.667984l0 0c0 4.4269714 -3.581726 8.015747 -8.0 8.015747l0 0c-4.418274 0 -8.0 -3.5887756 -8.0 -8.015747z" fill-rule="nonzero"></path><path fill="#e69138" d="m279.51968 218.74213l0 0c0 -4.4269714 3.581726 -8.015747 8.0 -8.015747l0 0c2.1217346 0 4.156555 0.84451294 5.6568604 2.347763c1.5002747 1.5032349 2.3431396 3.5420685 2.3431396 5.667984l0 0c0 4.4269714 -3.581726 8.015747 -8.0 8.015747l0 0c-4.418274 0 -8.0 -3.5887756 -8.0 -8.015747z" fill-rule="nonzero"></path><path stroke="#000000" stroke-width="1.0" stroke-linejoin="round" stroke-linecap="butt" d="m279.51968 218.74213l0 0c0 -4.4269714 3.581726 -8.015747 8.0 -8.015747l0 0c2.1217346 0 4.156555 0.84451294 5.6568604 2.347763c1.5002747 1.5032349 2.3431396 3.5420685 2.3431396 5.667984l0 0c0 4.4269714 -3.581726 8.015747 -8.0 8.015747l0 0c-4.418274 0 -8.0 -3.5887756 -8.0 -8.015747z" fill-rule="nonzero"></path><path fill="#e69138" d="m311.51968 218.74213l0 0c0 -4.4269714 3.581726 -8.015747 8.0 -8.015747l0 0c2.1217346 0 4.156555 0.84451294 5.6568604 2.347763c1.5002747 1.5032349 2.3431396 3.5420685 2.3431396 5.667984l0 0c0 4.4269714 -3.581726 8.015747 -8.0 8.015747l0 0c-4.418274 0 -8.0 -3.5887756 -8.0 -8.015747z" fill-rule="nonzero"></path><path stroke="#000000" stroke-width="1.0" stroke-linejoin="round" stroke-linecap="butt" d="m311.51968 218.74213l0 0c0 -4.4269714 3.581726 -8.015747 8.0 -8.015747l0 0c2.1217346 0 4.156555 0.84451294 5.6568604 2.347763c1.5002747 1.5032349 2.3431396 3.5420685 2.3431396 5.667984l0 0c0 4.4269714 -3.581726 8.015747 -8.0 8.015747l0 0c-4.418274 0 -8.0 -3.5887756 -8.0 -8.015747z" fill-rule="nonzero"></path><path fill="#e69138" d="m367.51968 218.74213l0 0c0 -4.4269714 3.581726 -8.015747 8.0 -8.015747l0 0c2.1217346 0 4.156555 0.84451294 5.6568604 2.347763c1.5002747 1.5032349 2.3431396 3.5420685 2.3431396 5.667984l0 0c0 4.4269714 -3.581726 8.015747 -8.0 8.015747l0 0c-4.418274 0 -8.0 -3.5887756 -8.0 -8.015747z" fill-rule="nonzero"></path><path stroke="#000000" stroke-width="1.0" stroke-linejoin="round" stroke-linecap="butt" d="m367.51968 218.74213l0 0c0 -4.4269714 3.581726 -8.015747 8.0 -8.015747l0 0c2.1217346 0 4.156555 0.84451294 5.6568604 2.347763c1.5002747 1.5032349 2.3431396 3.5420685 2.3431396 5.667984l0 0c0 4.4269714 -3.581726 8.015747 -8.0 8.015747l0 0c-4.418274 0 -8.0 -3.5887756 -8.0 -8.015747z" fill-rule="nonzero"></path><path fill="#a64d79" d="m199.51968 164.2126l0 0c0 -4.4269714 3.581726 -8.015747 8.0 -8.015747l0 0c2.1217346 0 4.1565704 0.84451294 5.6568604 2.3477478c1.5002899 1.5032501 2.3431396 3.5420837 2.3431396 5.6679993l0 0c0 4.4269714 -3.581726 8.015747 -8.0 8.015747l0 0c-4.418274 0 -8.0 -3.5887756 -8.0 -8.015747z" fill-rule="nonzero"></path><path stroke="#000000" stroke-width="1.0" stroke-linejoin="round" stroke-linecap="butt" d="m199.51968 164.2126l0 0c0 -4.4269714 3.581726 -8.015747 8.0 -8.015747l0 0c2.1217346 0 4.1565704 0.84451294 5.6568604 2.3477478c1.5002899 1.5032501 2.3431396 3.5420837 2.3431396 5.6679993l0 0c0 4.4269714 -3.581726 8.015747 -8.0 8.015747l0 0c-4.418274 0 -8.0 -3.5887756 -8.0 -8.015747z" fill-rule="nonzero"></path><path fill="#000000" fill-opacity="0.0" d="m199.51968 102.238846c0 13.48954 2.0 20.234978 4.0 26.97908c2.0 6.744095 4.0 13.486832 4.0 26.973679" fill-rule="nonzero"></path><path stroke="#ffffff" stroke-width="1.0" stroke-linejoin="round" stroke-linecap="butt" d="m199.51968 102.238846c0 13.48954 2.0 20.234978 4.0 26.97908c1.0 3.3720398 2.0 6.743744 2.75 10.958313c0.375 2.1072693 0.6875 4.4252625 0.90625 7.0593567c0.0546875 0.65852356 0.103515625 1.336792 0.1459961 2.0364838l0.05091858 0.9213104" fill-rule="evenodd"></path><path fill="#ffffff" stroke="#ffffff" stroke-width="1.0" stroke-linecap="butt" d="m205.7216 150.23383l1.7622986 4.4963074l1.5401764 -4.5771637z" fill-rule="evenodd"></path><path fill="#a64d79" d="m247.51968 164.2126l0 0c0 -4.4269714 3.581726 -8.015747 8.0 -8.015747l0 0c2.1217346 0 4.156555 0.84451294 5.6568604 2.3477478c1.5002747 1.5032501 2.3431396 3.5420837 2.3431396 5.6679993l0 0c0 4.4269714 -3.581726 8.015747 -8.0 8.015747l0 0c-4.418274 0 -8.0 -3.5887756 -8.0 -8.015747z" fill-rule="nonzero"></path><path stroke="#000000" stroke-width="1.0" stroke-linejoin="round" stroke-linecap="butt" d="m247.51968 164.2126l0 0c0 -4.4269714 3.581726 -8.015747 8.0 -8.015747l0 0c2.1217346 0 4.156555 0.84451294 5.6568604 2.3477478c1.5002747 1.5032501 2.3431396 3.5420837 2.3431396 5.6679993l0 0c0 4.4269714 -3.581726 8.015747 -8.0 8.015747l0 0c-4.418274 0 -8.0 -3.5887756 -8.0 -8.015747z" fill-rule="nonzero"></path><path fill="#a64d79" d="m279.51968 164.2126l0 0c0 -4.4269714 3.581726 -8.015747 8.0 -8.015747l0 0c2.1217346 0 4.156555 0.84451294 5.6568604 2.3477478c1.5002747 1.5032501 2.3431396 3.5420837 2.3431396 5.6679993l0 0c0 4.4269714 -3.581726 8.015747 -8.0 8.015747l0 0c-4.418274 0 -8.0 -3.5887756 -8.0 -8.015747z" fill-rule="nonzero"></path><path stroke="#000000" stroke-width="1.0" stroke-linejoin="round" stroke-linecap="butt" d="m279.51968 164.2126l0 0c0 -4.4269714 3.581726 -8.015747 8.0 -8.015747l0 0c2.1217346 0 4.156555 0.84451294 5.6568604 2.3477478c1.5002747 1.5032501 2.3431396 3.5420837 2.3431396 5.6679993l0 0c0 4.4269714 -3.581726 8.015747 -8.0 8.015747l0 0c-4.418274 0 -8.0 -3.5887756 -8.0 -8.015747z" fill-rule="nonzero"></path><path fill="#6fa8dc" d="m175.51968 25.318897l0 0c0 -4.4269753 3.581726 -8.015747 8.0 -8.015747l0 0c2.1217346 0 4.1565704 0.84451294 5.6568604 2.3477573c1.5002899 1.5032444 2.3431396 3.5420818 2.3431396 5.6679897l0 0c0 4.4269753 -3.581726 8.015747 -8.0 8.015747l0 0c-4.418274 0 -8.0 -3.5887718 -8.0 -8.015747z" fill-rule="nonzero"></path><path stroke="#000000" stroke-width="1.0" stroke-linejoin="round" stroke-linecap="butt" d="m175.51968 25.318897l0 0c0 -4.4269753 3.581726 -8.015747 8.0 -8.015747l0 0c2.1217346 0 4.1565704 0.84451294 5.6568604 2.3477573c1.5002899 1.5032444 2.3431396 3.5420818 2.3431396 5.6679897l0 0c0 4.4269753 -3.581726 8.015747 -8.0 8.015747l0 0c-4.418274 0 -8.0 -3.5887718 -8.0 -8.015747z" fill-rule="nonzero"></path><path fill="#f1c232" d="m239.51968 94.2231l0 0c0 -4.426979 3.581726 -8.015747 8.0 -8.015747l0 0c2.1217346 0 4.1565704 0.84451294 5.6568604 2.3477554c1.5002899 1.5032425 2.3431396 3.5420837 2.3431396 5.6679916l0 0c0 4.4269714 -3.581726 8.015747 -8.0 8.015747l0 0c-4.418274 0 -8.0 -3.5887756 -8.0 -8.015747z" fill-rule="nonzero"></path><path stroke="#000000" stroke-width="1.0" stroke-linejoin="round" stroke-linecap="butt" d="m239.51968 94.2231l0 0c0 -4.426979 3.581726 -8.015747 8.0 -8.015747l0 0c2.1217346 0 4.1565704 0.84451294 5.6568604 2.3477554c1.5002899 1.5032425 2.3431396 3.5420837 2.3431396 5.6679916l0 0c0 4.4269714 -3.581726 8.015747 -8.0 8.015747l0 0c-4.418274 0 -8.0 -3.5887756 -8.0 -8.015747z" fill-rule="nonzero"></path><path fill="#f1c232" d="m335.51968 94.2231l0 0c0 -4.426979 3.581726 -8.015747 8.0 -8.015747l0 0c2.1217346 0 4.156555 0.84451294 5.6568604 2.3477554c1.5002747 1.5032425 2.3431396 3.5420837 2.3431396 5.6679916l0 0c0 4.4269714 -3.581726 8.015747 -8.0 8.015747l0 0c-4.418274 0 -8.0 -3.5887756 -8.0 -8.015747z" fill-rule="nonzero"></path><path stroke="#000000" stroke-width="1.0" stroke-linejoin="round" stroke-linecap="butt" d="m335.51968 94.2231l0 0c0 -4.426979 3.581726 -8.015747 8.0 -8.015747l0 0c2.1217346 0 4.156555 0.84451294 5.6568604 2.3477554c1.5002747 1.5032425 2.3431396 3.5420837 2.3431396 5.6679916l0 0c0 4.4269714 -3.581726 8.015747 -8.0 8.015747l0 0c-4.418274 0 -8.0 -3.5887756 -8.0 -8.015747z" fill-rule="nonzero"></path><path fill="#000000" fill-opacity="0.0" d="m295.51968 164.2126c24.0 0 48.0 -30.992126 48.0 -61.984253" fill-rule="nonzero"></path><path stroke="#ffffff" stroke-width="1.0" stroke-linejoin="round" stroke-linecap="butt" d="m295.51968 164.2126c12.0 0 24.0 -7.7480316 33.0 -19.370087c4.5 -5.81102 8.25 -12.590546 10.875 -19.854324c1.3125 -3.6318893 2.34375 -7.384842 3.046875 -11.198326c0.17578125 -0.95336914 0.3310547 -1.9105301 0.4650879 -2.8705215c0.0670166 -0.47999573 0.12872314 -0.960701 0.18502808 -1.4419937c0.028167725 -0.24064636 0.05496216 -0.48145294 0.08041382 -0.72237396l0.05331421 -0.533844" fill-rule="evenodd"></path><path fill="#ffffff" stroke="#ffffff" stroke-width="1.0" stroke-linecap="butt" d="m344.87512 108.30214l-1.4271545 -4.6136475l-1.8723145 4.4516144z" fill-rule="evenodd"></path><path fill="#f1c232" d="m369.76642 94.2231l0 0c0 -4.426979 3.5816956 -8.015747 8.0 -8.015747l0 0c2.121704 0 4.156555 0.84451294 5.65683 2.3477554c1.5003052 1.5032425 2.3431702 3.5420837 2.3431702 5.6679916l0 0c0 4.4269714 -3.581726 8.015747 -8.0 8.015747l0 0c-4.4183044 0 -8.0 -3.5887756 -8.0 -8.015747z" fill-rule="nonzero"></path><path stroke="#000000" stroke-width="1.0" stroke-linejoin="round" stroke-linecap="butt" d="m369.76642 94.2231l0 0c0 -4.426979 3.5816956 -8.015747 8.0 -8.015747l0 0c2.121704 0 4.156555 0.84451294 5.65683 2.3477554c1.5003052 1.5032425 2.3431702 3.5420837 2.3431702 5.6679916l0 0c0 4.4269714 -3.581726 8.015747 -8.0 8.015747l0 0c-4.4183044 0 -8.0 -3.5887756 -8.0 -8.015747z" fill-rule="nonzero"></path><path fill="#000000" fill-opacity="0.0" d="m377.76642 86.20735c0 -13.218094 10.188965 -19.82595 20.37793 -26.436188c10.188995 -6.610237 20.37796 -13.222851 20.37796 -26.445705" fill-rule="nonzero"></path><path stroke="#ffffff" stroke-width="1.0" stroke-linejoin="round" stroke-linecap="butt" d="m377.76642 86.20735c0 -13.218094 10.188965 -19.82595 20.37793 -26.436192c5.0944824 -3.3051186 10.188995 -6.6108284 14.009857 -10.743118c1.9104309 -2.0661469 3.5024414 -4.338932 4.6168823 -6.9216156c0.2786255 -0.64567184 0.52734375 -1.3107109 0.7437439 -1.996727c0.054107666 -0.17150879 0.10620117 -0.3443222 0.15621948 -0.5184784l0.085998535 -0.31476212" fill-rule="evenodd"></path><path fill="#ffffff" stroke="#ffffff" stroke-width="1.0" stroke-linecap="butt" d="m419.3953 39.48712l-1.0594482 -4.7117004l-2.2170105 4.2903748z" fill-rule="evenodd"></path><path fill="#f1c232" d="m406.24933 94.2231l0 0c0 -4.426979 3.581726 -8.015747 8.0 -8.015747l0 0c2.1217346 0 4.1565857 0.84451294 5.6568604 2.3477554c1.5003052 1.5032425 2.3431396 3.5420837 2.3431396 5.6679916l0 0c0 4.4269714 -3.5816956 8.015747 -8.0 8.015747l0 0c-4.418274 0 -8.0 -3.5887756 -8.0 -8.015747z" fill-rule="nonzero"></path><path stroke="#000000" stroke-width="1.0" stroke-linejoin="round" stroke-linecap="butt" d="m406.24933 94.2231l0 0c0 -4.426979 3.581726 -8.015747 8.0 -8.015747l0 0c2.1217346 0 4.1565857 0.84451294 5.6568604 2.3477554c1.5003052 1.5032425 2.3431396 3.5420837 2.3431396 5.6679916l0 0c0 4.4269714 -3.5816956 8.015747 -8.0 8.015747l0 0c-4.418274 0 -8.0 -3.5887756 -8.0 -8.015747z" fill-rule="nonzero"></path><path fill="#f1c232" d="m447.25723 94.2231l0 0c0 -4.426979 3.5816956 -8.015747 8.0 -8.015747l0 0c2.121704 0 4.156555 0.84451294 5.65683 2.3477554c1.5003052 1.5032425 2.3431702 3.5420837 2.3431702 5.6679916l0 0c0 4.4269714 -3.581726 8.015747 -8.0 8.015747l0 0c-4.4183044 0 -8.0 -3.5887756 -8.0 -8.015747z" fill-rule="nonzero"></path><path stroke="#000000" stroke-width="1.0" stroke-linejoin="round" stroke-linecap="butt" d="m447.25723 94.2231l0 0c0 -4.426979 3.5816956 -8.015747 8.0 -8.015747l0 0c2.121704 0 4.156555 0.84451294 5.65683 2.3477554c1.5003052 1.5032425 2.3431702 3.5420837 2.3431702 5.6679916l0 0c0 4.4269714 -3.581726 8.015747 -8.0 8.015747l0 0c-4.4183044 0 -8.0 -3.5887756 -8.0 -8.015747z" fill-rule="nonzero"></path><path fill="#6fa8dc" d="m410.51968 25.318897l0 0c0 -4.4269753 3.581726 -8.015747 8.0 -8.015747l0 0c2.1217346 0 4.156555 0.84451294 5.6568604 2.3477573c1.5002747 1.5032444 2.3431396 3.5420818 2.3431396 5.6679897l0 0c0 4.4269753 -3.581726 8.015747 -8.0 8.015747l0 0c-4.418274 0 -8.0 -3.5887718 -8.0 -8.015747z" fill-rule="nonzero"></path><path stroke="#000000" stroke-width="1.0" stroke-linejoin="round" stroke-linecap="butt" d="m410.51968 25.318897l0 0c0 -4.4269753 3.581726 -8.015747 8.0 -8.015747l0 0c2.1217346 0 4.156555 0.84451294 5.6568604 2.3477573c1.5002747 1.5032444 2.3431396 3.5420818 2.3431396 5.6679897l0 0c0 4.4269753 -3.581726 8.015747 -8.0 8.015747l0 0c-4.418274 0 -8.0 -3.5887718 -8.0 -8.015747z" fill-rule="nonzero"></path><path fill="#000000" fill-opacity="0.0" d="m89.519684 25.318897c21.500069 0 32.24817 0.015748978 43.000137 0.031496048c10.751968 0.015748978 21.507797 0.031496048 43.01561 0.031496048" fill-rule="nonzero"></path><path stroke="#ffffff" stroke-width="1.0" stroke-linejoin="round" stroke-linecap="butt" d="m89.519684 25.318897c21.500061 0 32.24817 0.015748978 43.000137 0.031496048c5.3759766 0.007873535 10.75293 0.015748978 17.474365 0.021654129c3.3607178 0.0029525757 7.057541 0.0054130554 11.258453 0.0071353912l8.282791 0.0015697479" fill-rule="evenodd"></path><path fill="#ffffff" stroke="#ffffff" stroke-width="1.0" stroke-linecap="butt" d="m169.53513 27.032486l4.5384064 -1.6508732l-4.537781 -1.6525917z" fill-rule="evenodd"></path><path fill="#000000" fill-opacity="0.0" d="m111.519684 94.2231c4.0 0 6.0 0.01574707 8.0 0.03149414c2.0 0.01574707 4.0 0.03149414 8.0 0.03149414" fill-rule="nonzero"></path><path stroke="#ffffff" stroke-width="1.0" stroke-linejoin="round" stroke-linecap="butt" d="m111.519684 94.2231c4.0 0 6.0 0.01574707 8.0 0.03149414l2.0000305 0.013328552" fill-rule="evenodd"></path><path fill="#ffffff" stroke="#ffffff" stroke-width="1.0" stroke-linecap="butt" d="m121.51471 95.91965l4.543083 -1.6379852l-4.533081 -1.6654663z" fill-rule="evenodd"></path><path fill="#000000" fill-opacity="0.0" d="m143.51968 94.2231c4.0 0 6.0 0.01574707 8.0 0.03149414c2.0 0.01574707 4.0 0.03149414 8.0 0.03149414" fill-rule="nonzero"></path><path stroke="#ffffff" stroke-width="1.0" stroke-linejoin="round" stroke-linecap="butt" d="m143.51968 94.2231c4.0 0 6.0 0.01574707 8.0 0.03149414l2.0000305 0.013328552" fill-rule="evenodd"></path><path fill="#ffffff" stroke="#ffffff" stroke-width="1.0" stroke-linecap="butt" d="m153.51471 95.91965l4.5430756 -1.6379852l-4.533066 -1.6654663z" fill-rule="evenodd"></path><path fill="#000000" fill-opacity="0.0" d="m175.51968 94.2126c4.0 0 6.0 0.01574707 8.0 0.03149414c2.0 0.01574707 4.0 0.03149414 8.0 0.03149414" fill-rule="nonzero"></path><path stroke="#ffffff" stroke-width="1.0" stroke-linejoin="round" stroke-linecap="butt" d="m175.51968 94.2126c4.0 0 6.0 0.01574707 8.0 0.03149414l2.0000153 0.013328552" fill-rule="evenodd"></path><path fill="#ffffff" stroke="#ffffff" stroke-width="1.0" stroke-linecap="butt" d="m185.51471 95.90914l4.5430756 -1.6379776l-4.533066 -1.6654663z" fill-rule="evenodd"></path><path fill="#000000" fill-opacity="0.0" d="m207.51968 94.2231c8.0 0 12.0 0.01574707 16.0 0.03149414c4.0 0.01574707 8.0 0.03149414 16.0 0.03149414" fill-rule="nonzero"></path><path stroke="#ffffff" stroke-width="1.0" stroke-linejoin="round" stroke-linecap="butt" d="m207.51968 94.2231c8.0 0 12.0 0.01574707 16.0 0.03149414c2.0 0.007873535 4.0 0.01574707 6.5 0.021652222l3.5 0.0059661865" fill-rule="evenodd"></path><path fill="#ffffff" stroke="#ffffff" stroke-width="1.0" stroke-linecap="butt" d="m233.51862 95.933945l4.5391693 -1.6488037l-4.537033 -1.6546631z" fill-rule="evenodd"></path><path fill="#000000" fill-opacity="0.0" d="m255.51968 94.2231c8.0 0 12.0 0.01574707 16.0 0.03149414c4.0 0.01574707 8.0 0.03149414 16.0 0.03149414" fill-rule="nonzero"></path><path stroke="#ffffff" stroke-width="1.0" stroke-linejoin="round" stroke-linecap="butt" d="m255.51968 94.2231c8.0 0 12.0 0.01574707 16.0 0.03149414c2.0 0.007873535 4.0 0.01574707 6.5 0.021652222l3.5 0.0059661865" fill-rule="evenodd"></path><path fill="#ffffff" stroke="#ffffff" stroke-width="1.0" stroke-linecap="butt" d="m281.51862 95.933945l4.539154 -1.6488037l-4.537018 -1.6546631z" fill-rule="evenodd"></path><path fill="#000000" fill-opacity="0.0" d="m303.51968 94.2231c8.0 0 12.0 0.01574707 16.0 0.03149414c4.0 0.01574707 8.0 0.03149414 16.0 0.03149414" fill-rule="nonzero"></path><path stroke="#ffffff" stroke-width="1.0" stroke-linejoin="round" stroke-linecap="butt" d="m303.51968 94.2231c8.0 0 12.0 0.01574707 16.0 0.03149414c2.0 0.007873535 4.0 0.01574707 6.5 0.021652222l3.5 0.0059661865" fill-rule="evenodd"></path><path fill="#ffffff" stroke="#ffffff" stroke-width="1.0" stroke-linecap="butt" d="m329.51862 95.933945l4.539154 -1.6488037l-4.537018 -1.6546631z" fill-rule="evenodd"></path><path fill="#000000" fill-opacity="0.0" d="m351.51968 94.2231c4.5617065 0 6.843872 0.01574707 9.123413 0.03149414c2.2795105 0.01574707 4.5563965 0.03149414 9.1128235 0.03149414" fill-rule="nonzero"></path><path stroke="#ffffff" stroke-width="1.0" stroke-linejoin="round" stroke-linecap="butt" d="m351.51968 94.2231c4.561676 0 6.843872 0.01574707 9.123413 0.03149414l3.1128235 0.018211365" fill-rule="evenodd"></path><path fill="#ffffff" stroke="#ffffff" stroke-width="1.0" stroke-linecap="butt" d="m363.75226 95.92452l4.541748 -1.6416702l-4.534424 -1.6617813z" fill-rule="evenodd"></path><path fill="#000000" fill-opacity="0.0" d="m385.76642 94.2231c5.120758 0 7.6824646 0.01574707 10.241516 0.03149414c2.559082 0.01574707 5.115448 0.03149414 10.230896 0.03149414" fill-rule="nonzero"></path><path stroke="#ffffff" stroke-width="1.0" stroke-linejoin="round" stroke-linecap="butt" d="m385.76642 94.2231c5.120758 0 7.682495 0.01574707 10.241547 0.03149414c1.2795105 0.007873535 2.5583801 0.01574707 4.156769 0.021652222l0.07409668 1.9836426E-4" fill-rule="evenodd"></path><path fill="#ffffff" stroke="#ffffff" stroke-width="1.0" stroke-linecap="butt" d="m400.2362 95.92818l4.540741 -1.6444397l-4.535431 -1.6590195z" fill-rule="evenodd"></path><path fill="#000000" fill-opacity="0.0" d="m422.24933 94.2231c6.2519836 0 9.37796 0.01574707 12.503967 0.03149414c3.1259766 0.01574707 6.251953 0.03149414 12.503937 0.03149414" fill-rule="nonzero"></path><path stroke="#ffffff" stroke-width="1.0" stroke-linejoin="round" stroke-linecap="butt" d="m422.24933 94.2231c6.2519836 0 9.37796 0.01574707 12.503967 0.03149414c1.5629883 0.007873535 3.1259766 0.01574707 5.079712 0.021652222l1.4242249 0.0031051636" fill-rule="evenodd"></path><path fill="#ffffff" stroke="#ffffff" stroke-width="1.0" stroke-linecap="butt" d="m441.25537 95.93108l4.5399475 -1.646637l-4.536255 -1.6568222z" fill-rule="evenodd"></path><path fill="#000000" fill-opacity="0.0" d="m215.51968 164.2126c8.0 0 12.0 0.01574707 16.0 0.03149414c4.0 0.01574707 8.0 0.03149414 16.0 0.03149414" fill-rule="nonzero"></path><path stroke="#ffffff" stroke-width="1.0" stroke-linejoin="round" stroke-linecap="butt" d="m215.51968 164.2126c8.0 0 12.0 0.01574707 16.0 0.03149414c2.0 0.007873535 4.0 0.01574707 6.5 0.021652222l3.5 0.0059661865" fill-rule="evenodd"></path><path fill="#ffffff" stroke="#ffffff" stroke-width="1.0" stroke-linecap="butt" d="m241.51862 165.92345l4.5391693 -1.6488037l-4.537033 -1.6546631z" fill-rule="evenodd"></path><path fill="#000000" fill-opacity="0.0" d="m263.51968 164.2126c4.0 0 6.0 0.01574707 8.0 0.03149414c2.0 0.01574707 4.0 0.03149414 8.0 0.03149414" fill-rule="nonzero"></path><path stroke="#ffffff" stroke-width="1.0" stroke-linejoin="round" stroke-linecap="butt" d="m263.51968 164.2126c4.0 0 6.0 0.01574707 8.0 0.03149414l2.0000305 0.013320923" fill-rule="evenodd"></path><path fill="#ffffff" stroke="#ffffff" stroke-width="1.0" stroke-linecap="butt" d="m273.5147 165.90915l4.543091 -1.6379852l-4.533081 -1.6654663z" fill-rule="evenodd"></path><path fill="#000000" fill-opacity="0.0" d="m167.51968 218.74213c6.2499695 0 9.373947 0.01574707 12.499939 0.03149414c3.1259766 0.01574707 6.2539673 0.03149414 12.507935 0.03149414" fill-rule="nonzero"></path><path stroke="#ffffff" stroke-width="1.0" stroke-linejoin="round" stroke-linecap="butt" d="m167.51968 218.74213c6.249954 0 9.373962 0.01574707 12.499939 0.03149414c1.5629883 0.007873535 3.12648 0.01574707 5.0809784 0.021652222l1.4269562 0.003112793" fill-rule="evenodd"></path><path fill="#ffffff" stroke="#ffffff" stroke-width="1.0" stroke-linecap="butt" d="m186.52571 220.45012l4.5399475 -1.646637l-4.5362396 -1.6568298z" fill-rule="evenodd"></path><path fill="#000000" fill-opacity="0.0" d="m208.51968 218.74213c9.749985 0 14.625946 0.01574707 19.49997 0.03149414c4.874008 0.01574707 9.7460785 0.03149414 19.492157 0.03149414" fill-rule="nonzero"></path><path stroke="#ffffff" stroke-width="1.0" stroke-linejoin="round" stroke-linecap="butt" d="m208.51968 218.74213c9.749985 0 14.625946 0.01574707 19.499954 0.03149414c2.4370117 0.007873535 4.873535 0.01574707 7.9190674 0.021652222c1.5227661 0.002960205 3.1977844 0.00541687 5.101242 0.0071411133l0.4718628 1.9836426E-4" fill-rule="evenodd"></path><path fill="#ffffff" stroke="#ffffff" stroke-width="1.0" stroke-linecap="butt" d="m241.51112 220.45435l4.538788 -1.6498413l-4.5374146 -1.6536255z" fill-rule="evenodd"></path><path fill="#000000" fill-opacity="0.0" d="m263.51968 218.74213c4.0 0 6.0 0.01574707 8.0 0.03149414c2.0 0.01574707 4.0 0.03149414 8.0 0.03149414" fill-rule="nonzero"></path><path stroke="#ffffff" stroke-width="1.0" stroke-linejoin="round" stroke-linecap="butt" d="m263.51968 218.74213c4.0 0 6.0 0.01574707 8.0 0.03149414l2.0000305 0.013336182" fill-rule="evenodd"></path><path fill="#ffffff" stroke="#ffffff" stroke-width="1.0" stroke-linecap="butt" d="m273.5147 220.43867l4.543091 -1.6379852l-4.533081 -1.6654663z" fill-rule="evenodd"></path><path fill="#000000" fill-opacity="0.0" d="m295.51968 218.74213c4.0 0 6.0 0.01574707 8.0 0.03149414c2.0 0.01574707 4.0 0.03149414 8.0 0.03149414" fill-rule="nonzero"></path><path stroke="#ffffff" stroke-width="1.0" stroke-linejoin="round" stroke-linecap="butt" d="m295.51968 218.74213c4.0 0 6.0 0.01574707 8.0 0.03149414l2.0000305 0.013336182" fill-rule="evenodd"></path><path fill="#ffffff" stroke="#ffffff" stroke-width="1.0" stroke-linecap="butt" d="m305.5147 220.43867l4.543091 -1.6379852l-4.533081 -1.6654663z" fill-rule="evenodd"></path><path fill="#000000" fill-opacity="0.0" d="m327.51968 218.74213c10.0 0 15.0 0.01574707 20.0 0.03149414c5.0 0.01574707 10.0 0.03149414 20.0 0.03149414" fill-rule="nonzero"></path><path stroke="#ffffff" stroke-width="1.0" stroke-linejoin="round" stroke-linecap="butt" d="m327.51968 218.74213c10.0 0 15.0 0.01574707 20.0 0.03149414c2.5 0.007873535 5.0 0.01574707 8.125 0.021652222c1.5625 0.002960205 3.28125 0.00541687 5.234375 0.0071411133l0.640625 2.593994E-4" fill-rule="evenodd"></path><path fill="#ffffff" stroke="#ffffff" stroke-width="1.0" stroke-linecap="butt" d="m361.519 220.4544l4.5387573 -1.6498871l-4.5374146 -1.6535797z" fill-rule="evenodd"></path><path fill="#000000" fill-opacity="0.0" d="m383.51968 218.74213c4.0 0 6.0 0.01574707 8.0 0.03149414c2.0 0.01574707 4.0 0.03149414 8.0 0.03149414" fill-rule="nonzero"></path><path stroke="#ffffff" stroke-width="1.0" stroke-linejoin="round" stroke-linecap="butt" d="m383.51968 218.74213c4.0 0 6.0 0.01574707 8.0 0.03149414l2.0000305 0.013336182" fill-rule="evenodd"></path><path fill="#ffffff" stroke="#ffffff" stroke-width="1.0" stroke-linecap="butt" d="m393.5147 220.43867l4.543091 -1.6379852l-4.533081 -1.6654663z" fill-rule="evenodd"></path><path fill="#f1c232" d="m504.2756 94.2231l0 0c0 -4.426979 3.5816956 -8.015747 7.9999695 -8.015747l0 0c2.1217651 0 4.156555 0.84451294 5.6568604 2.3477554c1.5003052 1.5032425 2.3431396 3.5420837 2.3431396 5.6679916l0 0c0 4.4269714 -3.581726 8.015747 -8.0 8.015747l0 0c-4.418274 0 -7.9999695 -3.5887756 -7.9999695 -8.015747z" fill-rule="nonzero"></path><path stroke="#000000" stroke-width="1.0" stroke-linejoin="round" stroke-linecap="butt" d="m504.2756 94.2231l0 0c0 -4.426979 3.5816956 -8.015747 7.9999695 -8.015747l0 0c2.1217651 0 4.156555 0.84451294 5.6568604 2.3477554c1.5003052 1.5032425 2.3431396 3.5420837 2.3431396 5.6679916l0 0c0 4.4269714 -3.581726 8.015747 -8.0 8.015747l0 0c-4.418274 0 -7.9999695 -3.5887756 -7.9999695 -8.015747z" fill-rule="nonzero"></path><path fill="#e69138" d="m399.51968 218.74213l0 0c0 -4.4269714 3.581726 -8.015747 8.0 -8.015747l0 0c2.1217346 0 4.156555 0.84451294 5.6568604 2.347763c1.5002747 1.5032349 2.3431396 3.5420685 2.3431396 5.667984l0 0c0 4.4269714 -3.581726 8.015747 -8.0 8.015747l0 0c-4.418274 0 -8.0 -3.5887756 -8.0 -8.015747z" fill-rule="nonzero"></path><path stroke="#000000" stroke-width="1.0" stroke-linejoin="round" stroke-linecap="butt" d="m399.51968 218.74213l0 0c0 -4.4269714 3.581726 -8.015747 8.0 -8.015747l0 0c2.1217346 0 4.156555 0.84451294 5.6568604 2.347763c1.5002747 1.5032349 2.3431396 3.5420685 2.3431396 5.667984l0 0c0 4.4269714 -3.581726 8.015747 -8.0 8.015747l0 0c-4.418274 0 -8.0 -3.5887756 -8.0 -8.015747z" fill-rule="nonzero"></path><path fill="#e69138" d="m558.51184 218.75l0 0c0 -4.4269714 3.581665 -8.015747 8.0 -8.015747l0 0c2.121704 0 4.156555 0.84451294 5.6567993 2.347763c1.5003052 1.5032349 2.3432007 3.5420685 2.3432007 5.667984l0 0c0 4.4269714 -3.581726 8.015747 -8.0 8.015747l0 0c-4.418335 0 -8.0 -3.5887756 -8.0 -8.015747z" fill-rule="nonzero"></path><path stroke="#000000" stroke-width="1.0" stroke-linejoin="round" stroke-linecap="butt" d="m558.51184 218.75l0 0c0 -4.4269714 3.581665 -8.015747 8.0 -8.015747l0 0c2.121704 0 4.156555 0.84451294 5.6567993 2.347763c1.5003052 1.5032349 2.3432007 3.5420685 2.3432007 5.667984l0 0c0 4.4269714 -3.581726 8.015747 -8.0 8.015747l0 0c-4.418335 0 -8.0 -3.5887756 -8.0 -8.015747z" fill-rule="nonzero"></path><path fill="#000000" fill-opacity="0.0" d="m415.51968 218.74213c35.748047 0 53.62204 0.01574707 71.49606 0.03149414c17.874023 0.01574707 35.748047 0.03149414 71.49609 0.03149414" fill-rule="nonzero"></path><path stroke="#ffffff" stroke-width="1.0" stroke-linejoin="round" stroke-linecap="butt" d="m415.51968 218.74213c35.748047 0 53.62204 0.01574707 71.49606 0.03149414c8.937012 0.007873535 17.874023 0.01574707 29.045288 0.021652222c5.5856323 0.002960205 11.729797 0.00541687 18.711853 0.0071411133l17.738953 0.002029419" fill-rule="evenodd"></path><path fill="#ffffff" stroke="#ffffff" stroke-width="1.0" stroke-linecap="butt" d="m552.5116 220.45616l4.53833 -1.6512146l-4.537903 -1.6522522z" fill-rule="evenodd"></path><path fill="#000000" fill-opacity="0.0" d="m512.2756 102.238846c0 27.12381 13.559082 40.68463 27.118103 54.247635c13.559082 13.562988 27.118164 27.128143 27.118164 54.2563" fill-rule="nonzero"></path><path stroke="#999999" stroke-width="1.0" stroke-linejoin="round" stroke-linecap="butt" stroke-dasharray="4.0,3.0" d="m512.2756 102.238846c0 27.12381 13.559082 40.68463 27.118103 54.247635c6.779541 6.781494 13.559082 13.563538 18.643738 22.041199c2.5422974 4.238846 4.6608887 8.901596 6.143921 14.20015c0.7415161 2.6492767 1.3241577 5.4575195 1.7213745 8.451187c0.0993042 0.7483978 0.18701172 1.5084076 0.26275635 2.280426c0.037841797 0.38598633 0.07269287 0.7749939 0.10455322 1.1670532l0.009277344 0.12080383" fill-rule="evenodd"></path><path fill="#999999" stroke="#999999" stroke-width="1.0" stroke-linecap="butt" d="m564.6288 204.8113l1.826355 4.470688l1.4746704 -4.598709z" fill-rule="evenodd"></path><path fill="#f1c232" d="m587.01575 94.25328l0 0c0 -4.4269714 3.581726 -8.015747 8.0 -8.015747l0 0c2.121704 0 4.156555 0.84451294 5.6568604 2.3477554c1.5003052 1.5032501 2.3431396 3.5420837 2.3431396 5.6679916l0 0c0 4.426979 -3.581726 8.015747 -8.0 8.015747l0 0c-4.418274 0 -8.0 -3.588768 -8.0 -8.015747z" fill-rule="nonzero"></path><path stroke="#000000" stroke-width="1.0" stroke-linejoin="round" stroke-linecap="butt" d="m587.01575 94.25328l0 0c0 -4.4269714 3.581726 -8.015747 8.0 -8.015747l0 0c2.121704 0 4.156555 0.84451294 5.6568604 2.3477554c1.5003052 1.5032501 2.3431396 3.5420837 2.3431396 5.6679916l0 0c0 4.426979 -3.581726 8.015747 -8.0 8.015747l0 0c-4.418274 0 -8.0 -3.588768 -8.0 -8.015747z" fill-rule="nonzero"></path><path fill="#000000" fill-opacity="0.0" d="m463.25723 94.2231c10.254608 0 15.38327 0.01574707 20.509247 0.03149414c5.1259766 0.01574707 10.249298 0.03149414 20.498627 0.03149414" fill-rule="nonzero"></path><path stroke="#ffffff" stroke-width="1.0" stroke-linejoin="round" stroke-linecap="butt" d="m463.25723 94.2231c10.254608 0 15.38327 0.01574707 20.509247 0.03149414c2.5629883 0.007873535 5.1253357 0.01574707 8.328064 0.021652222c1.6013489 0.0029525757 3.362854 0.00541687 5.364563 0.0071411133l0.80599976 3.1280518E-4" fill-rule="evenodd"></path><path fill="#ffffff" stroke="#ffffff" stroke-width="1.0" stroke-linecap="butt" d="m498.26443 95.93543l4.5387573 -1.6499252l-4.537445 -1.6535339z" fill-rule="evenodd"></path><path fill="#000000" fill-opacity="0.0" d="m520.2756 94.2231c5.8189087 0 8.728394 0.01574707 11.637817 0.03149414c2.9094238 0.01574707 5.8189087 0.03149414 11.637817 0.03149414" fill-rule="nonzero"></path><path stroke="#ffffff" stroke-width="1.0" stroke-linejoin="round" stroke-linecap="butt" d="m520.2756 94.2231c5.8189087 0 8.728394 0.01574707 11.637817 0.03149414c1.4547119 0.007873535 2.9094238 0.01574707 4.727844 0.021652222l0.90997314 0.0021362305" fill-rule="evenodd"></path><path fill="#ffffff" stroke="#ffffff" stroke-width="1.0" stroke-linecap="butt" d="m537.5491 95.93011l4.540222 -1.6458969l-4.5360107 -1.6575623z" fill-rule="evenodd"></path><path fill="#000000" fill-opacity="0.0" d="m574.51184 218.75c10.251953 0 20.503906 -58.23622 20.503906 -116.47244" fill-rule="nonzero"></path><path stroke="#ffffff" stroke-width="1.0" stroke-linejoin="round" stroke-linecap="butt" d="m574.51184 218.75c5.1259766 0 10.251953 -14.5590515 14.096436 -36.397644c1.9222412 -10.919281 3.524109 -23.658463 4.6453857 -37.30757c0.56066895 -6.8245544 1.0011597 -13.876602 1.3015137 -21.042389c0.15020752 -3.5828857 0.26538086 -7.1942215 0.34295654 -10.819763c0.01940918 -0.9063873 0.03643799 -1.8136597 0.051086426 -2.7216034l0.02947998 -2.1835861" fill-rule="evenodd"></path><path fill="#ffffff" stroke="#ffffff" stroke-width="1.0" stroke-linecap="butt" d="m596.63043 108.28764l-1.6237183 -4.54821l-1.6796875 4.527817z" fill-rule="evenodd"></path><path fill="#000000" fill-opacity="0.0" d="m11.0 25.255905c15.629921 0 23.444881 0.015748978 31.259842 0.031496048c7.8149605 0.015748978 15.629921 0.031496048 31.259842 0.031496048" fill-rule="nonzero"></path><path stroke="#ffffff" stroke-width="1.0" stroke-linejoin="round" stroke-linecap="butt" stroke-dasharray="4.0,3.0" d="m11.0 25.255905c15.629921 0 23.444881 0.015748978 31.259842 0.031496048c3.9074821 0.007873535 7.8149605 0.015748978 12.69931 0.021654129c2.4421768 0.0029525757 5.1285706 0.0054130554 8.18129 0.0071353912l4.379242 0.0011425018" fill-rule="evenodd"></path><path fill="#ffffff" stroke="#ffffff" stroke-width="1.0" stroke-linecap="butt" d="m67.51926 26.969065l4.5385284 -1.6505489l-4.5376663 -1.652916z" fill-rule="evenodd"></path><path fill="#000000" fill-opacity="0.0" d="m595.01575 86.23753c0 -13.233574 4.0 -19.849037 8.0 -26.467148c4.0 -6.6181107 8.0 -13.238869 8.0 -26.477734" fill-rule="nonzero"></path><path stroke="#ffffff" stroke-width="1.0" stroke-linejoin="round" stroke-linecap="butt" d="m595.01575 86.23753c0 -13.233574 4.0 -19.849037 8.0 -26.467148c2.0 -3.3090553 4.0 -6.6187706 5.5 -10.756084c0.75 -2.068657 1.375 -4.3442116 1.8125 -6.930031c0.109375 -0.64645386 0.20703125 -1.3122978 0.2919922 -1.9991531c0.021240234 -0.17171478 0.04168701 -0.344738 0.061340332 -0.519104l0.030090332 -0.2810707" fill-rule="evenodd"></path><path fill="#ffffff" stroke="#ffffff" stroke-width="1.0" stroke-linecap="butt" d="m612.36127 39.36865l-1.4196167 -4.6159744l-1.8795776 4.448559z" fill-rule="evenodd"></path><path fill="#6fa8dc" d="m603.0184 25.287401l0 0c0 -4.4269753 3.581726 -8.015747 8.0 -8.015747l0 0c2.121704 0 4.156555 0.84451294 5.6568604 2.3477573c1.5003052 1.5032444 2.3431396 3.5420818 2.3431396 5.6679897l0 0c0 4.4269753 -3.581726 8.015749 -8.0 8.015749l0 0c-4.418274 0 -8.0 -3.5887737 -8.0 -8.015749z" fill-rule="nonzero"></path><path stroke="#000000" stroke-width="1.0" stroke-linejoin="round" stroke-linecap="butt" d="m603.0184 25.287401l0 0c0 -4.4269753 3.581726 -8.015747 8.0 -8.015747l0 0c2.121704 0 4.156555 0.84451294 5.6568604 2.3477573c1.5003052 1.5032444 2.3431396 3.5420818 2.3431396 5.6679897l0 0c0 4.4269753 -3.581726 8.015749 -8.0 8.015749l0 0c-4.418274 0 -8.0 -3.5887737 -8.0 -8.015749z" fill-rule="nonzero"></path><path fill="#f1c232" d="m644.0341 94.25459l0 0c0 -4.4269714 3.581726 -8.015747 8.0 -8.015747l0 0c2.121704 0 4.156555 0.84451294 5.6568604 2.3477554c1.5003052 1.5032501 2.3431396 3.5420837 2.3431396 5.6679916l0 0c0 4.426979 -3.581726 8.015747 -8.0 8.015747l0 0c-4.418274 0 -8.0 -3.588768 -8.0 -8.015747z" fill-rule="nonzero"></path><path stroke="#000000" stroke-width="1.0" stroke-linejoin="round" stroke-linecap="butt" d="m644.0341 94.25459l0 0c0 -4.4269714 3.581726 -8.015747 8.0 -8.015747l0 0c2.121704 0 4.156555 0.84451294 5.6568604 2.3477554c1.5003052 1.5032501 2.3431396 3.5420837 2.3431396 5.6679916l0 0c0 4.426979 -3.581726 8.015747 -8.0 8.015747l0 0c-4.418274 0 -8.0 -3.588768 -8.0 -8.015747z" fill-rule="nonzero"></path><path fill="#f1c232" d="m543.5512 94.25328l0 0c0 -4.4269714 3.581665 -8.015747 8.0 -8.015747l0 0c2.121704 0 4.156555 0.84451294 5.6567993 2.3477554c1.5003052 1.5032501 2.3432007 3.5420837 2.3432007 5.6679916l0 0c0 4.426979 -3.581726 8.015747 -8.0 8.015747l0 0c-4.418335 0 -8.0 -3.588768 -8.0 -8.015747z" fill-rule="nonzero"></path><path stroke="#000000" stroke-width="1.0" stroke-linejoin="round" stroke-linecap="butt" d="m543.5512 94.25328l0 0c0 -4.4269714 3.581665 -8.015747 8.0 -8.015747l0 0c2.121704 0 4.156555 0.84451294 5.6567993 2.3477554c1.5003052 1.5032501 2.3432007 3.5420837 2.3432007 5.6679916l0 0c0 4.426979 -3.581726 8.015747 -8.0 8.015747l0 0c-4.418335 0 -8.0 -3.588768 -8.0 -8.015747z" fill-rule="nonzero"></path><path fill="#000000" fill-opacity="0.0" d="m559.5512 94.25328c6.866089 0 10.299194 0.01574707 13.732239 0.03149414c3.4331055 0.01574707 6.86615 0.03150177 13.7323 0.03150177" fill-rule="nonzero"></path><path stroke="#ffffff" stroke-width="1.0" stroke-linejoin="round" stroke-linecap="butt" d="m559.5512 94.25328c6.866089 0 10.299194 0.01574707 13.732239 0.03149414c1.7165527 0.007873535 3.4331055 0.01574707 5.5787354 0.021652222l2.1535645 0.0042800903" fill-rule="evenodd"></path><path fill="#ffffff" stroke="#ffffff" stroke-width="1.0" stroke-linecap="butt" d="m581.0142 95.96244l4.539612 -1.647522l-4.53656 -1.6559448z" fill-rule="evenodd"></path><path fill="#000000" fill-opacity="0.0" d="m603.01575 94.25328c10.254639 0 15.383301 0.01574707 20.509277 0.03149414c5.1259766 0.01574707 10.249268 0.03150177 20.498596 0.03150177" fill-rule="nonzero"></path><path stroke="#ffffff" stroke-width="1.0" stroke-linejoin="round" stroke-linecap="butt" d="m603.01575 94.25328c10.254639 0 15.383301 0.01574707 20.509277 0.03149414c2.5629883 0.007873535 5.125305 0.01574707 8.328064 0.021652222c1.6013794 0.0029525757 3.362854 0.00541687 5.364563 0.0071411133l0.80596924 3.1280518E-4" fill-rule="evenodd"></path><path fill="#ffffff" stroke="#ffffff" stroke-width="1.0" stroke-linecap="butt" d="m638.02295 95.96562l4.5387573 -1.6499329l-4.5374146 -1.6535339z" fill-rule="evenodd"></path><path fill="#000000" fill-opacity="0.0" d="m191.51968 25.318897c54.75023 0 82.126434 0.015748978 109.50046 0.031496048c27.373993 0.015748978 54.74582 0.031496048 109.49167 0.031496048" fill-rule="nonzero"></path><path stroke="#ffffff" stroke-width="1.0" stroke-linejoin="round" stroke-linecap="butt" d="m191.51968 25.318897c54.75023 0 82.126434 0.015748978 109.50046 0.031496048c13.687012 0.007873535 27.373444 0.015748978 44.481384 0.021654129c8.553955 0.0029525757 17.963318 0.0054130554 28.655792 0.0071353912l30.354492 0.0022602081" fill-rule="evenodd"></path><path fill="#ffffff" stroke="#ffffff" stroke-width="1.0" stroke-linecap="butt" d="m404.5117 27.033176l4.538208 -1.6513958l-4.537964 -1.6520691z" fill-rule="evenodd"></path><path fill="#000000" fill-opacity="0.0" d="m426.51968 25.318897c44.12509 0 66.187225 0.015748978 88.25021 0.031496048c22.062988 0.015748978 44.12683 0.031496048 88.25372 0.031496048" fill-rule="nonzero"></path><path stroke="#ffffff" stroke-width="1.0" stroke-linejoin="round" stroke-linecap="butt" d="m426.51968 25.318897c44.12509 0 66.187225 0.015748978 88.25021 0.031496048c11.031494 0.007873535 22.063171 0.015748978 35.852905 0.021654129c6.8948364 0.0029525757 14.479187 0.0054130554 23.097778 0.0071353912l23.30304 0.0021533966" fill-rule="evenodd"></path><path fill="#ffffff" stroke="#ffffff" stroke-width="1.0" stroke-linecap="butt" d="m597.0235 27.033068l4.538208 -1.6513138l-4.537903 -1.6521511z" fill-rule="evenodd"></path><path fill="#000000" fill-opacity="0.0" d="m167.51968 86.19685c0 -13.2155075 4.0 -19.824715 8.0 -26.431015c4.0 -6.6062965 8.0 -13.20969 8.0 -26.41938" fill-rule="nonzero"></path><path stroke="#ffffff" stroke-width="1.0" stroke-linejoin="round" stroke-linecap="butt" d="m167.51968 86.19685c0 -13.2155075 4.0 -19.824715 8.0 -26.431015c2.0 -3.3031464 4.0 -6.605568 5.5 -10.733421c0.75 -2.063919 1.375 -4.334198 1.8125 -6.9141045c0.109375 -0.64497375 0.20701599 -1.3093033 0.2919922 -1.9945984c0.021240234 -0.17131805 0.04168701 -0.34395218 0.061340332 -0.51792145l0.028656006 -0.26711655" fill-rule="evenodd"></path><path fill="#ffffff" stroke="#ffffff" stroke-width="1.0" stroke-linecap="butt" d="m184.86377 39.422775l-1.4185181 -4.616314l-1.880661 4.4481125z" fill-rule="evenodd"></path></g></svg>

